<?xml version="1.0" encoding="utf-8"?>
<!-- Generator: Adobe Illustrator 22.0.1, SVG Export Plug-In . SVG Version: 6.00 Build 0)  -->
<svg version="1.1" id="Layer_1" xmlns="http://www.w3.org/2000/svg" xmlns:xlink="http://www.w3.org/1999/xlink" x="0px" y="0px"
	 viewBox="0 0 238 134" style="enable-background:new 0 0 238 134;" xml:space="preserve">
<style type="text/css">
	.st0{fill:#F0CA4D;}
	.st1{fill:#FFFFFF;}
</style>
<g>
	<path class="st0" d="M0,134h238V0H0V134z"/>
	<path class="st1" d="M132.3,76.7c7.6-4.6,12.5-12.8,12.5-22.4c0-14.5-11.9-26.3-26.3-26.3C104,28,92.2,39.8,92.2,54.3
		c0,9.5,4.9,17.8,12.5,22.4C91.5,81.7,81.6,93.2,79,107h6.6c3.3-15.1,16.8-26.3,32.9-26.3s29.6,11.2,32.9,26.3h6.6
		C155.4,92.8,145.5,81.3,132.3,76.7 M98.8,54.3c0-10.9,8.9-19.8,19.8-19.8s19.8,8.9,19.8,19.8s-8.9,19.8-19.8,19.8
		S98.8,65.2,98.8,54.3"/>
</g>
</svg>
