<svg xmlns="http://www.w3.org/2000/svg" xmlns:xlink="http://www.w3.org/1999/xlink" preserveAspectRatio="xMidYMid" width="36" height="30" viewBox="0 0 36 30">
  <defs>
    <style>
      .cls-1 {
        fill: #fff;
        fill-rule: evenodd;
      }
    </style>
  </defs>
  <path d="M34.000,30.000 L2.000,30.000 C0.895,30.000 -0.000,29.105 -0.000,28.000 L-0.000,11.429 C-0.000,10.324 0.895,9.429 2.000,9.429 L34.000,9.429 C35.105,9.429 36.000,10.324 36.000,11.429 L36.000,28.000 C36.000,29.105 35.105,30.000 34.000,30.000 ZM3.429,6.000 C3.429,5.053 4.196,4.286 5.143,4.286 L30.857,4.286 C31.804,4.286 32.571,5.053 32.571,6.000 L32.571,7.714 L3.429,7.714 L3.429,6.000 ZM6.214,1.714 C6.214,0.768 6.982,0.000 7.929,0.000 L28.071,0.000 C29.018,0.000 29.786,0.768 29.786,1.714 L29.786,2.571 L6.214,2.571 L6.214,1.714 Z" class="cls-1"/>
</svg>
