<svg xmlns="http://www.w3.org/2000/svg" xmlns:xlink="http://www.w3.org/1999/xlink" preserveAspectRatio="xMidYMid" width="28" height="28" viewBox="0 0 28 28">
  <defs>
    <style>
      .cls-1 {
        fill: #fff;
        fill-rule: evenodd;
      }
    </style>
  </defs>
  <path d="M25.058,0.050 C25.016,0.042 24.978,0.017 24.938,-0.000 C17.646,-0.000 10.354,-0.000 3.063,-0.000 C2.845,0.058 2.622,0.101 2.412,0.178 C1.110,0.657 0.311,1.570 0.050,2.942 C0.042,2.983 0.017,3.022 0.000,3.062 C0.000,10.354 0.000,17.646 0.000,24.937 C0.069,25.180 0.120,25.429 0.209,25.663 C0.693,26.933 1.606,27.695 2.942,27.950 C2.984,27.958 3.022,27.983 3.063,28.000 C10.354,28.000 17.646,28.000 24.938,28.000 C25.155,27.942 25.378,27.900 25.588,27.823 C26.890,27.344 27.689,26.430 27.950,25.059 C27.958,25.017 27.983,24.978 28.000,24.937 C28.000,17.646 28.000,10.354 28.000,3.062 C27.938,2.837 27.894,2.605 27.813,2.387 C27.332,1.096 26.419,0.307 25.058,0.050 ZM12.016,16.016 C12.016,18.993 12.016,21.958 12.016,24.957 C10.942,23.876 9.894,22.820 8.852,21.772 C7.743,22.877 6.675,23.942 5.630,24.985 C4.751,24.110 3.909,23.271 3.068,22.434 C4.106,21.405 5.176,20.344 6.285,19.244 C5.177,18.158 4.110,17.113 2.990,16.016 C6.054,16.016 9.028,16.016 12.016,16.016 ZM16.013,3.076 C17.072,4.141 18.121,5.197 19.159,6.241 C20.276,5.123 21.342,4.055 22.388,3.008 C23.277,3.903 24.121,4.753 24.995,5.632 C23.962,6.660 22.891,7.726 21.789,8.822 C22.853,9.878 23.912,10.929 25.003,12.013 C21.983,12.013 19.009,12.013 16.013,12.013 C16.013,9.020 16.013,6.051 16.013,3.076 Z" class="cls-1"/>
</svg>
