<svg xmlns="http://www.w3.org/2000/svg" xmlns:xlink="http://www.w3.org/1999/xlink" preserveAspectRatio="xMidYMid" width="28" height="28" viewBox="0 0 28 28">
  <defs>
    <style>
      .cls-1 {
        fill: #fff;
        fill-rule: evenodd;
      }
    </style>
  </defs>
  <path d="M25.058,0.050 C25.016,0.042 24.978,0.017 24.938,-0.000 C17.646,-0.000 10.354,-0.000 3.063,-0.000 C2.845,0.058 2.622,0.101 2.412,0.178 C1.110,0.657 0.311,1.570 0.050,2.942 C0.042,2.983 0.017,3.022 0.000,3.062 C0.000,10.354 0.000,17.646 0.000,24.937 C0.069,25.180 0.120,25.429 0.209,25.663 C0.693,26.933 1.606,27.695 2.942,27.950 C2.984,27.958 3.022,27.983 3.063,28.000 C10.354,28.000 17.646,28.000 24.938,28.000 C25.155,27.942 25.378,27.900 25.588,27.823 C26.890,27.344 27.689,26.430 27.950,25.059 C27.958,25.017 27.983,24.978 28.000,24.937 C28.000,17.646 28.000,10.354 28.000,3.062 C27.938,2.837 27.894,2.605 27.813,2.387 C27.332,1.096 26.419,0.307 25.058,0.050 ZM3.516,24.485 C3.516,21.590 3.516,18.708 3.516,15.792 C4.556,16.843 5.572,17.869 6.581,18.889 C7.655,17.814 8.690,16.779 9.703,15.765 C10.554,16.616 11.370,17.431 12.184,18.245 C11.179,19.245 10.142,20.277 9.068,21.346 C10.141,22.402 11.175,23.418 12.260,24.485 C9.292,24.485 6.410,24.485 3.516,24.485 ZM24.487,12.177 C23.462,11.144 22.445,10.121 21.440,9.110 C20.358,10.193 19.325,11.228 18.312,12.242 C17.450,11.375 16.632,10.552 15.786,9.700 C16.787,8.705 17.825,7.672 18.891,6.610 C17.861,5.587 16.835,4.569 15.778,3.519 C18.704,3.519 21.585,3.519 24.487,3.519 C24.487,6.419 24.487,9.294 24.487,12.177 Z" class="cls-1"/>
</svg>
