<svg xmlns="http://www.w3.org/2000/svg" xmlns:xlink="http://www.w3.org/1999/xlink" preserveAspectRatio="xMidYMid" width="27" height="25" viewBox="0 0 27 25">
  <defs>
    <style>
      .cls-1 {
        fill: #fff;
        fill-rule: evenodd;
      }
    </style>
  </defs>
  <path d="M25.621,25.000 L24.128,25.000 C23.366,25.000 22.749,24.378 22.749,23.611 L22.749,1.389 C22.749,0.621 23.366,-0.000 24.128,-0.000 L25.621,-0.000 C26.383,-0.000 27.000,0.621 27.000,1.389 L27.000,23.611 C27.000,24.378 26.383,25.000 25.621,25.000 ZM1.272,25.000 C0.569,25.000 0.000,24.427 0.000,23.719 L0.000,1.294 C0.000,0.587 0.569,0.013 1.272,0.013 L21.942,11.546 C21.942,11.546 22.896,12.507 21.942,13.468 C20.988,14.429 1.272,25.000 1.272,25.000 Z" class="cls-1"/>
</svg>
