<?xml version="1.0" encoding="utf-8"?>
<!-- Generator: Adobe Illustrator 19.2.0, SVG Export Plug-In . SVG Version: 6.00 Build 0)  -->
<svg version="1.1" id="Layer_1" xmlns="http://www.w3.org/2000/svg" xmlns:xlink="http://www.w3.org/1999/xlink" x="0px" y="0px"
	 viewBox="0 0 35 29" style="enable-background:new 0 0 35 29;" xml:space="preserve">
<style type="text/css">
	.st0{fill:#FFFFFF;}
</style>
<path class="st0" d="M23.1,24.8c-0.4,0-0.8-0.2-1.1-0.5c-0.6-0.6-0.6-1.6,0-2.2c4.2-4.2,4.2-11.1,0-15.4c-0.6-0.6-0.6-1.6,0-2.2
	c0.6-0.6,1.6-0.6,2.2,0c2.6,2.6,4.1,6.2,4.1,9.9s-1.4,7.2-4.1,9.9C23.9,24.7,23.5,24.8,23.1,24.8z M17.7,21.9
	c-0.4,0-0.8-0.2-1.1-0.5c-0.6-0.6-0.6-1.6,0-2.2c2.6-2.6,2.6-6.9,0-9.5c-0.6-0.6-0.6-1.6,0-2.2c0.6-0.6,1.6-0.6,2.2,0
	c3.8,3.8,3.8,10.1,0,13.9C18.5,21.8,18.1,21.9,17.7,21.9z M12.9,0.5c0.8-0.8,1.5-0.5,1.5,0.6v26.8c0,1.2-0.7,1.5-1.5,0.6l-7.8-7.8H0
	V8.3h5.1L12.9,0.5z"/>
</svg>
