<svg xmlns="http://www.w3.org/2000/svg" xmlns:xlink="http://www.w3.org/1999/xlink" preserveAspectRatio="xMidYMid" width="35" height="29" viewBox="0 0 35 29">
  <defs>
    <style>
      .cls-1 {
        fill: #fff;
        fill-rule: evenodd;
      }
    </style>
  </defs>
  <path d="M28.632,27.770 C28.237,27.770 27.842,27.618 27.540,27.315 C26.937,26.708 26.937,25.725 27.540,25.118 C30.359,22.282 31.912,18.512 31.912,14.501 C31.912,10.491 30.359,6.720 27.540,3.884 C26.937,3.277 26.937,2.294 27.540,1.687 C28.143,1.081 29.121,1.081 29.724,1.687 C33.126,5.110 35.000,9.661 35.000,14.501 C35.000,19.341 33.126,23.892 29.724,27.315 C29.422,27.618 29.027,27.770 28.632,27.770 ZM23.147,24.841 C22.751,24.841 22.356,24.689 22.055,24.386 C21.452,23.779 21.452,22.796 22.055,22.189 C26.269,17.950 26.269,11.052 22.055,6.813 C21.452,6.206 21.452,5.223 22.055,4.616 C22.658,4.010 23.635,4.010 24.238,4.616 C26.863,7.257 28.309,10.767 28.309,14.501 C28.309,18.235 26.863,21.745 24.238,24.386 C23.937,24.689 23.542,24.841 23.147,24.841 ZM17.661,21.912 C17.266,21.912 16.871,21.760 16.570,21.457 C15.967,20.850 15.967,19.867 16.570,19.260 C19.179,16.636 19.179,12.366 16.570,9.742 C15.967,9.135 15.967,8.152 16.570,7.545 C17.173,6.939 18.150,6.939 18.753,7.545 C22.566,11.381 22.566,17.622 18.753,21.457 C18.452,21.760 18.057,21.912 17.661,21.912 ZM12.910,0.479 C13.736,-0.352 14.412,-0.070 14.412,1.104 L14.412,27.898 C14.412,29.072 13.736,29.354 12.910,28.523 L5.147,20.714 L-0.000,20.714 L-0.000,8.288 L5.147,8.288 L12.910,0.479 Z" class="cls-1"/>
</svg>
