<?xml version="1.0" encoding="utf-8"?>
<!-- Generator: Adobe Illustrator 19.2.0, SVG Export Plug-In . SVG Version: 6.00 Build 0)  -->
<svg version="1.1" id="Layer_1" xmlns="http://www.w3.org/2000/svg" xmlns:xlink="http://www.w3.org/1999/xlink" x="0px" y="0px"
	 viewBox="0 0 35 29" style="enable-background:new 0 0 35 29;" xml:space="preserve">
<style type="text/css">
	.st0{fill:#FFFFFF;}
</style>
<g>
	<path class="st0" d="M12.9,0.5L5.1,8.3H0v12.4h5.1l7.8,7.8c0.8,0.8,1.5,0.5,1.5-0.6V1.1C14.4-0.1,13.7-0.4,12.9,0.5z"/>
	<path class="st0" d="M25.8,14.5l1.7-1.7c0.6-0.6,0.6-1.6,0-2.3s-1.6-0.6-2.3,0l-1.7,1.7l-1.7-1.7c-0.6-0.6-1.6-0.6-2.3,0
		s-0.6,1.6,0,2.3l1.7,1.7l-1.7,1.7c-0.6,0.6-0.6,1.6,0,2.3s1.6,0.6,2.3,0l1.7-1.7l1.7,1.7c0.6,0.6,1.6,0.6,2.3,0s0.6-1.6,0-2.3
		L25.8,14.5z"/>
</g>
</svg>
