<?xml version="1.0" encoding="UTF-8"?>
<svg width="147px" height="147px" viewBox="0 0 147 147" version="1.1" xmlns="http://www.w3.org/2000/svg" xmlns:xlink="http://www.w3.org/1999/xlink">
    <!-- Generator: Sketch 52.6 (67491) - http://www.bohemiancoding.com/sketch -->
    <title>Play</title>
    <desc>Created with Sketch.</desc>
    <g id="Page-1" stroke="none" stroke-width="1" fill="none" fill-rule="evenodd">
        <g id="Sign-in" transform="translate(-708.000000, -136.000000)">
            <g id="Group-3" transform="translate(582.000000, 139.000000)">
                <g id="Play" transform="translate(129.000000, 0.000000)">
                    <circle id="Oval" stroke="#E6E6E6" stroke-width="7" fill-opacity="0.12" fill="#FFFFFF" cx="70.5" cy="70.5" r="70"></circle>
                    <path d="M92.575017,67.4537164 L92.564067,67.4467569 L61.1587301,46.9095991 C60.8470246,46.7169911 60.4793407,46.6016194 60.0359475,46.5451925 C59.697674,46.5021433 59.4092456,46.4953238 58.8137093,46.5029453 C58.6305769,46.505289 58.561601,46.5059726 58.4685415,46.5059726 C56.9301036,46.5059726 56.1075192,47.0635556 55.7313583,48.019291 C55.5482869,48.4844319 55.4999456,48.9087928 55.5000005,49.495551 C55.500001,49.5003236 55.500001,49.5003236 55.5000011,49.5050484 L55.5000011,91.494803 C55.500001,91.498763 55.500001,91.498763 55.5000006,91.502772 C55.4999402,92.066726 55.5551537,92.514414 55.757096,92.998422 C56.1507816,93.941993 56.9729135,94.49409 58.4685415,94.49409 C58.5613064,94.49409 58.6300752,94.494766 58.8126069,94.497085 C59.4083102,94.504653 59.6968187,94.497815 60.0352206,94.454763 C60.4789806,94.398306 60.846926,94.282893 61.1479103,94.097131 L92.574789,73.5463617 C92.880901,73.3573135 93.148225,73.159751 93.379103,72.9550021 C94.316244,72.1239181 94.572652,71.3027495 94.489319,70.6518011 C94.486097,70.6266331 94.483774,70.6140502 94.484063,70.6152712 L94.45671,70.4998994 L94.484075,70.3845304 C94.483787,70.3857466 94.486114,70.3731504 94.48934,70.3479616 C94.572696,69.6971446 94.31644,68.8762096 93.379732,68.0453736 C93.148769,67.8405153 92.881313,67.6428527 92.575017,67.4537164 Z" id="Path" stroke="#444CC5" fill="#444CC5"></path>
                </g>
            </g>
        </g>
    </g>
</svg>