<?xml version="1.0" encoding="utf-8"?>
<!-- Generator: Adobe Illustrator 19.2.0, SVG Export Plug-In . SVG Version: 6.00 Build 0)  -->
<svg version="1.1" id="Layer_1" xmlns="http://www.w3.org/2000/svg" xmlns:xlink="http://www.w3.org/1999/xlink" x="0px" y="0px"
	 viewBox="0 0 70 70" style="enable-background:new 0 0 70 70;" xml:space="preserve">
<style type="text/css">
	.st0{opacity:0.6;fill-rule:evenodd;clip-rule:evenodd;}
	.st1{fill-rule:evenodd;clip-rule:evenodd;fill:#FFFFFF;}
	.st2{fill:#FFFFFF;}
</style>
<g>
	<path class="st0" d="M35,0c19.3,0,35,15.7,35,35c0,19.3-15.7,35-35,35S0,54.3,0,35C0,15.7,15.7,0,35,0z"/>
	<path class="st1" d="M35,0C15.7,0,0,15.7,0,35c0,19.3,15.7,35,35,35s35-15.7,35-35C70,15.7,54.3,0,35,0z M35,64.7
		C18.6,64.7,5.3,51.4,5.3,35C5.3,18.6,18.6,5.3,35,5.3S64.7,18.6,64.7,35C64.7,51.4,51.4,64.7,35,64.7z"/>
	<path class="st2" d="M24.3,36.4l12.4,12.4c0.8,0.8,2.1,0.8,2.9,0c0.8-0.8,0.8-2.1,0-2.9l-11-11l11-11c0.8-0.8,0.8-2.1,0-2.9
		c-0.8-0.8-2.1-0.8-2.9,0L24.3,33.6c-0.4,0.4-0.6,0.9-0.6,1.4C23.7,35.5,23.9,36,24.3,36.4z"/>
</g>
</svg>
