<?xml version="1.0" encoding="UTF-8"?>
<svg width="63px" height="63px" viewBox="0 0 63 63" version="1.1" xmlns="http://www.w3.org/2000/svg" xmlns:xlink="http://www.w3.org/1999/xlink">
    <!-- Generator: Sketch 52.6 (67491) - http://www.bohemiancoding.com/sketch -->
    <title>Fill 1</title>
    <desc>Created with Sketch.</desc>
    <defs>
        <filter x="-37.4%" y="-26.6%" width="167.6%" height="182.8%" filterUnits="objectBoundingBox" id="filter-1">
            <feOffset dx="0" dy="2" in="SourceAlpha" result="shadowOffsetOuter1"></feOffset>
            <feGaussianBlur stdDeviation="2" in="shadowOffsetOuter1" result="shadowBlurOuter1"></feGaussianBlur>
            <feColorMatrix values="0 0 0 0 0   0 0 0 0 0   0 0 0 0 0  0 0 0 0.5 0" type="matrix" in="shadowBlurOuter1" result="shadowMatrixOuter1"></feColorMatrix>
            <feMerge>
                <feMergeNode in="shadowMatrixOuter1"></feMergeNode>
                <feMergeNode in="SourceGraphic"></feMergeNode>
            </feMerge>
        </filter>
    </defs>
    <g id="Page-1" stroke="none" stroke-width="1" fill="none" fill-rule="evenodd">
        <g id="Users" transform="translate(-450.000000, -340.000000)" fill="#FFFFFF">
            <g id="Group-4" filter="url(#filter-1)" transform="translate(412.000000, 306.000000)">
                <path d="M55.75,54.333369 C55.75,46.7709226 61.9375536,40.583369 69.5,40.583369 C77.0624464,40.583369 83.25,46.7709226 83.25,54.333369 C83.25,61.8958155 77.0624464,68.0834762 69.5,68.0834762 C61.9375536,68.0834762 55.75,61.8958155 55.75,54.333369 M79.125,69.916631 C84.3958155,66.7082619 87.8332619,60.9791845 87.8332619,54.333369 C87.833369,44.25 79.5831548,36 69.5,36 C59.4167381,36 51.166631,44.25 51.166631,54.333369 C51.166631,60.9791845 54.6040774,66.708369 59.8748929,69.916631 C50.7082619,73.3541845 43.8332619,81.375 42,91 L46.583369,91 C48.875,80.458369 58.2709226,72.666631 69.5,72.666631 C80.7290774,72.666631 90.125,80.4582619 92.416631,91 L97,91 C95.1667381,81.1458155 88.2917381,73.125 79.125,69.916631" id="Fill-1"></path>
            </g>
        </g>
    </g>
</svg>