<?xml version="1.0" encoding="utf-8"?>
<!-- Generator: Adobe Illustrator 22.0.1, SVG Export Plug-In . SVG Version: 6.00 Build 0)  -->
<svg version="1.1" id="Layer_1" xmlns="http://www.w3.org/2000/svg" xmlns:xlink="http://www.w3.org/1999/xlink" x="0px" y="0px"
	 viewBox="0 0 34 37" style="enable-background:new 0 0 34 37;" xml:space="preserve">
<style type="text/css">
	.st0{enable-background:new    ;}
	.st1{fill:#FFFFFF;}
</style>
<title>Group 3</title>
<desc>Created with Sketch.</desc>
<g id="Page-1">
	<g id="Artboard" transform="translate(-710.000000, -637.000000)" class="st0">
		<g id="Group-4">
			<g id="Group" transform="translate(31.000000, 577.000000)">
				<g id="Group-3" transform="translate(679.000000, 60.000000)">
					<path id="Fill-1" class="st1" d="M1.3,13.4c-0.8,2-1.3,4.2-1.3,6.6C0,29.3,7.6,37,17,37s17-7.7,17-17.1c0-9.4-7.6-17.1-17-17.1
						c-1.2,0-2.4,0.1-3.6,0.4l0,0l-0.9-2.6C12.4,0.3,12.1,0,11.7,0c-0.4,0-0.7,0.2-0.9,0.5L8.5,5.2C7.7,5.6,7,6.1,6.3,6.7l-1.9-2
						c-0.3-0.3-0.7-0.3-1-0.2C3,4.6,2.8,5,2.8,5.4v6.8c0,0.5,0.4,0.9,0.9,0.9h6.7c0.4,0,0.7-0.2,0.9-0.6s0.1-0.7-0.2-1L8.9,9.2
						C9.1,9,9.4,8.8,9.7,8.6l4.5,2.2c0.3,0.2,0.7,0.1,1-0.1c0.3-0.2,0.4-0.6,0.3-1l-1-3c0.8-0.2,1.7-0.2,2.5-0.2
						c7.4,0,13.4,6,13.4,13.5c0,7.4-6,13.5-13.4,13.5s-13.4-6-13.4-13.5c0-1.8,0.4-3.5,1-5.1H3.7C2.7,14.8,1.8,14.3,1.3,13.4"/>
					<g class="st0">
						<path class="st1" d="M8.8,16.7c0.4,0,0.8,0,1.1-0.1c0.4-0.1,0.7-0.2,1-0.3c0.3-0.1,0.5-0.3,0.8-0.6s0.3-0.5,0.4-0.9h1.5V26h-2
							v-7.9H8.8V16.7z"/>
						<path class="st1" d="M18.9,14.8h5.8v1.6h-4.4l-0.6,2.8l0,0c0.2-0.3,0.6-0.5,0.9-0.6c0.4-0.1,0.8-0.2,1.1-0.2
							c0.6,0,1.1,0.1,1.5,0.3s0.8,0.4,1.1,0.8s0.5,0.7,0.7,1.2c0.2,0.5,0.2,1,0.2,1.5c0,0.4-0.1,0.9-0.2,1.4s-0.4,0.9-0.7,1.3
							c-0.3,0.4-0.7,0.7-1.2,1c-0.5,0.3-1.1,0.4-1.8,0.4c-0.5,0-1-0.1-1.5-0.2c-0.5-0.1-0.9-0.4-1.2-0.6c-0.4-0.3-0.6-0.6-0.8-1.1
							c-0.2-0.4-0.3-0.9-0.3-1.5h1.8c0.1,0.6,0.3,1.1,0.6,1.4c0.4,0.3,0.8,0.5,1.4,0.5c0.4,0,0.7-0.1,1-0.2c0.3-0.1,0.5-0.3,0.6-0.5
							c0.2-0.2,0.3-0.5,0.4-0.8c0.1-0.3,0.1-0.6,0.1-1c0-0.3,0-0.6-0.1-0.9c-0.1-0.3-0.2-0.5-0.4-0.7c-0.2-0.2-0.4-0.4-0.7-0.5
							s-0.6-0.2-1-0.2c-0.4,0-0.7,0.1-1.1,0.2c-0.3,0.1-0.6,0.4-0.7,0.8h-1.8L18.9,14.8z"/>
					</g>
				</g>
			</g>
		</g>
	</g>
</g>
</svg>
