<?xml version="1.0" encoding="UTF-8"?>
<svg width="613px" height="613px" viewBox="0 0 613 613" version="1.1" xmlns="http://www.w3.org/2000/svg" xmlns:xlink="http://www.w3.org/1999/xlink">
    <!-- Generator: Sketch 51.3 (57544) - http://www.bohemiancoding.com/sketch -->
    <title>circular-down-arrow-button</title>
    <desc>Created with Sketch.</desc>
    <defs></defs>
    <g id="Page-1" stroke="none" stroke-width="1" fill="none" fill-rule="evenodd">
        <g id="circular-down-arrow-button" fill="#FFFFFF" fill-rule="nonzero">
            <path d="M306.037,0 C136.997,0 0,136.997 0,306.037 C0,475.077 136.997,612.074 306.037,612.074 C475.077,612.074 612.074,475.077 612.074,306.037 C612.074,136.997 475.077,0 306.037,0 Z M306.037,582.405 C153.834,582.405 29.669,458.24 29.669,306.037 C29.669,153.834 153.834,29.669 306.037,29.669 C458.24,29.669 582.405,153.834 582.405,306.037 C582.405,458.24 458.24,582.405 306.037,582.405 Z M425.381,315.68 C431.018,321.317 431.018,330.885 425.381,336.523 L316.421,446.225 C315.605,447.041 314.789,447.857 314.047,447.857 L313.231,448.673 C312.415,448.673 312.415,449.489 311.599,449.489 C310.783,449.489 310.783,449.489 309.967,450.305 C309.151,450.305 309.151,450.305 308.335,450.305 C307.519,450.305 306.703,450.305 305.146,450.305 C304.33,450.305 303.514,450.305 301.957,450.305 C301.141,450.305 301.141,450.305 300.325,450.305 C299.509,450.305 299.509,450.305 298.693,449.489 C297.877,449.489 297.877,448.673 297.061,448.673 C297.061,448.673 296.245,448.673 296.245,447.857 C295.429,447.041 294.613,447.041 293.871,446.225 L185.877,335.706 C180.24,330.069 180.24,320.501 185.877,314.863 C191.514,309.225 201.082,309.226 206.72,314.863 L291.648,399.791 L291.648,165.035 C291.648,157.024 298.027,150.645 306.038,150.645 C314.049,150.645 320.428,157.024 320.428,165.035 L320.428,399.718 L403.798,316.422 C410.176,310.042 419.818,310.042 425.381,315.68 Z" id="Shape"></path>
        </g>
    </g>
</svg>