<?xml version="1.0" encoding="UTF-8"?>
<svg width="42px" height="32px" viewBox="0 0 42 32" version="1.1" xmlns="http://www.w3.org/2000/svg" xmlns:xlink="http://www.w3.org/1999/xlink">
    <!-- Generator: Sketch 52.6 (67491) - http://www.bohemiancoding.com/sketch -->
    <title>no-credit-card</title>
    <desc>Created with Sketch.</desc>
    <g id="Page-1" stroke="none" stroke-width="1" fill="none" fill-rule="evenodd">
        <g id="Landing-page" transform="translate(-1261.000000, -1018.000000)" fill="#FFFFFF">
            <g id="Group-2" transform="translate(1237.000000, 986.000000)">
                <g id="no-credit-card" transform="translate(24.000000, 32.000000)">
                    <path d="M7.99067797,18.8899556 C8.1380339,18.8899556 8.23413559,18.8138667 8.27969492,18.6602667 C8.32454237,18.5066667 8.3480339,18.2855111 8.3480339,17.9960889 C8.3480339,17.6917333 8.32525424,17.4677333 8.27969492,17.3219556 C8.23413559,17.1761778 8.13732203,17.1029333 7.99067797,17.1029333 C7.8440339,17.1029333 7.74579661,17.1768889 7.69810169,17.3219556 C7.65111864,17.4677333 7.62691525,17.6924444 7.62691525,17.9960889 C7.62691525,18.2848 7.65040678,18.5059556 7.69810169,18.6602667 C7.74579661,18.8138667 7.8440339,18.8899556 7.99067797,18.8899556 Z" id="Path"></path>
                    <path d="M17.8870169,18.8899556 C18.033661,18.8899556 18.1297627,18.8138667 18.1760339,18.6602667 C18.2208814,18.5066667 18.2443729,18.2855111 18.2443729,17.9960889 C18.2443729,17.6917333 18.2208814,17.4677333 18.1760339,17.3219556 C18.1304746,17.1761778 18.033661,17.1029333 17.8870169,17.1029333 C17.739661,17.1029333 17.6421356,17.1768889 17.5944407,17.3219556 C17.5474576,17.4677333 17.5232542,17.6924444 17.5232542,17.9960889 C17.5232542,18.2848 17.5474576,18.5059556 17.5944407,18.6602667 C17.6428475,18.8138667 17.739661,18.8899556 17.8870169,18.8899556 Z" id="Path"></path>
                    <path d="M6.01169492,17.1036444 C5.86433898,17.1036444 5.76681356,17.1776 5.71983051,17.3226667 C5.67213559,17.4684444 5.6479322,17.6931556 5.6479322,17.9968 C5.6479322,18.2855111 5.67213559,18.5066667 5.71983051,18.6609778 C5.76681356,18.8145778 5.86505085,18.8906667 6.01169492,18.8906667 C6.15833898,18.8906667 6.25515254,18.8145778 6.30071186,18.6609778 C6.34627119,18.5073778 6.36905085,18.2862222 6.36905085,17.9968 C6.36905085,17.6924444 6.34627119,17.4684444 6.30071186,17.3226667 C6.25515254,17.1768889 6.15833898,17.1036444 6.01169492,17.1036444 Z" id="Path"></path>
                    <path d="M4.032,18.8899556 C4.17864407,18.8899556 4.27545763,18.8138667 4.32101695,18.6602667 C4.36586441,18.5066667 4.38935593,18.2855111 4.38935593,17.9960889 C4.38935593,17.6917333 4.36657627,17.4677333 4.32101695,17.3219556 C4.27545763,17.1761778 4.17864407,17.1029333 4.032,17.1029333 C3.88464407,17.1029333 3.78711864,17.1768889 3.74013559,17.3219556 C3.69244068,17.4677333 3.66823729,17.6924444 3.66823729,17.9960889 C3.66823729,18.2848 3.69244068,18.5059556 3.74013559,18.6602667 C3.78783051,18.8138667 3.88464407,18.8899556 4.032,18.8899556 Z" id="Path"></path>
                    <path d="M6.07362712,22.8273778 L5.98250847,22.8444444 C5.89708475,22.8593778 5.83586441,22.8778667 5.79884746,22.8992 C5.73549153,22.9354667 5.70488136,22.9916444 5.70488136,23.0684444 C5.70488136,23.1367111 5.72410169,23.1850667 5.76254237,23.2156444 C5.80098305,23.2462222 5.8479661,23.2618667 5.90349153,23.2618667 C5.99105085,23.2618667 6.07077966,23.2376889 6.14481356,23.1872 C6.21884746,23.1367111 6.25657627,23.0442667 6.26013559,22.9105778 L6.26013559,22.7612444 C6.23450847,22.7768889 6.20888136,22.7904 6.18254237,22.7996444 C6.15549153,22.8096 6.11989831,22.8181333 6.07362712,22.8273778 Z" id="Path"></path>
                    <path d="M9.97037288,18.8899556 C10.1177288,18.8899556 10.2138305,18.8138667 10.2593898,18.6602667 C10.3042373,18.5066667 10.3277288,18.2855111 10.3277288,17.9960889 C10.3277288,17.6917333 10.3049492,17.4677333 10.2593898,17.3219556 C10.2138305,17.1761778 10.1170169,17.1029333 9.97037288,17.1029333 C9.82372881,17.1029333 9.72549153,17.1768889 9.67779661,17.3219556 C9.63081356,17.4677333 9.60661017,17.6924444 9.60661017,17.9960889 C9.60661017,18.2848 9.63010169,18.5059556 9.67779661,18.6602667 C9.72620339,18.8138667 9.82301695,18.8899556 9.97037288,18.8899556 Z" id="Path"></path>
                    <path d="M10.2003051,22.2641778 C10.0977966,22.2641778 10.0180678,22.2933333 9.96183051,22.3523556 C9.90488136,22.4106667 9.87,22.4888889 9.85505085,22.5884444 L10.5441356,22.5884444 C10.5370169,22.4832 10.5014237,22.4014222 10.4373559,22.3466667 C10.374,22.2933333 10.2942712,22.2641778 10.2003051,22.2641778 Z" id="Path"></path>
                    <path d="M13.9276271,17.1036444 C13.7809831,17.1036444 13.6834576,17.1776 13.6350508,17.3226667 C13.5880678,17.4684444 13.5638644,17.6931556 13.5638644,17.9968 C13.5638644,18.2855111 13.5873559,18.5066667 13.6350508,18.6609778 C13.6827458,18.8145778 13.7809831,18.8906667 13.9276271,18.8906667 C14.0749831,18.8906667 14.1710847,18.8145778 14.2166441,18.6609778 C14.2622034,18.5073778 14.2849831,18.2862222 14.2849831,17.9968 C14.2849831,17.6924444 14.2622034,17.4684444 14.2166441,17.3226667 C14.1710847,17.1768889 14.0749831,17.1036444 13.9276271,17.1036444 Z" id="Path"></path>
                    <path d="M15.7136949,22.8273778 L15.6225763,22.8444444 C15.5371525,22.8593778 15.4759322,22.8778667 15.4389153,22.8992 C15.3762712,22.9354667 15.3449492,22.9916444 15.3449492,23.0684444 C15.3449492,23.1367111 15.3641695,23.1850667 15.403322,23.2156444 C15.4417627,23.2462222 15.4887458,23.2618667 15.5442712,23.2618667 C15.6318305,23.2618667 15.7115593,23.2376889 15.7863051,23.1872 C15.860339,23.1367111 15.8980678,23.0442667 15.9009153,22.9105778 L15.9009153,22.7612444 C15.8752881,22.7768889 15.849661,22.7904 15.823322,22.7996444 C15.7948475,22.8096 15.7599661,22.8181333 15.7136949,22.8273778 Z" id="Path"></path>
                    <path d="M19.8667119,17.1036444 C19.7193559,17.1036444 19.6218305,17.1776 19.5741356,17.3226667 C19.5264407,17.4684444 19.5029492,17.6931556 19.5029492,17.9968 C19.5029492,18.2855111 19.5264407,18.5066667 19.5741356,18.6609778 C19.6211186,18.8145778 19.7193559,18.8906667 19.8667119,18.8906667 C20.0133559,18.8906667 20.1101695,18.8145778 20.1557288,18.6609778 C20.2005763,18.5073778 20.2240678,18.2862222 20.2240678,17.9968 C20.2240678,17.6924444 20.2005763,17.4684444 20.1557288,17.3226667 C20.1101695,17.1768889 20.0126441,17.1036444 19.8667119,17.1036444 Z" id="Path"></path>
                    <path d="M19.8403729,22.2641778 C19.7378644,22.2641778 19.6581356,22.2933333 19.6018983,22.3523556 C19.545661,22.4106667 19.5100678,22.4888889 19.4951186,22.5884444 L20.1834915,22.5884444 C20.1763729,22.4832 20.1407797,22.4014222 20.0767119,22.3466667 C20.0133559,22.2933333 19.934339,22.2641778 19.8403729,22.2641778 Z" id="Path"></path>
                    <path d="M15.907322,17.1036444 C15.760678,17.1036444 15.6631525,17.1776 15.6154576,17.3226667 C15.5684746,17.4684444 15.5442712,17.6931556 15.5442712,17.9968 C15.5442712,18.2855111 15.5684746,18.5066667 15.6154576,18.6609778 C15.6631525,18.8145778 15.760678,18.8906667 15.907322,18.8906667 C16.054678,18.8906667 16.1507797,18.8145778 16.196339,18.6609778 C16.2411864,18.5073778 16.264678,18.2862222 16.264678,17.9968 C16.264678,17.6924444 16.2411864,17.4684444 16.196339,17.3226667 C16.1507797,17.1768889 16.054678,17.1036444 15.907322,17.1036444 Z" id="Path"></path>
                    <path d="M2.77413559,26.7669333 L22.1873898,26.7669333 C22.2002034,26.7534222 22.2080339,26.7377778 22.2208475,26.7256889 L22.9220339,26.0259556 L23.6630847,25.2849778 L25.4455932,23.5050667 L22.2208475,20.2837333 C21.6428136,19.7063111 21.6428136,18.7676444 22.2208475,18.1895111 L25.7602373,14.6545778 C26.0385763,14.3765333 26.4158644,14.2208 26.8088136,14.2208 C27.2017627,14.2208 27.5797627,14.3772444 27.8581017,14.6545778 L31.0814237,17.8752 L34.3047458,14.6545778 C34.5830847,14.3765333 34.9610847,14.2208 35.3540339,14.2208 C35.7469831,14.2208 36.1242712,14.3772444 36.4026102,14.6545778 L39.9412881,18.1895111 C39.9868475,18.2350222 40.0252881,18.2883556 40.0630169,18.3381333 C40.4709153,18.8693333 40.4709153,19.6053333 40.0630169,20.1365333 C40.0252881,20.1870222 39.9875593,20.2389333 39.9412881,20.2851556 L36.7172542,23.5057778 L38.4997627,25.2849778 L39.1959661,25.9804444 L39.7839661,26.5678222 C40.813322,26.1582222 41.5465424,25.1463111 41.5465424,23.9601778 L41.5465424,3.04497778 C41.5465424,1.49688889 40.3014915,0.237511111 38.7731186,0.237511111 L2.77413559,0.237511111 C1.24505085,0.2368 0,1.49617778 0,3.04497778 L0,23.9587556 C0,25.5061333 1.24505085,26.7669333 2.77413559,26.7669333 Z M19.645322,23.1751111 C19.7058305,23.2135111 19.7805763,23.232 19.8667119,23.232 C19.9578305,23.232 20.0311525,23.2092444 20.0881017,23.1608889 C20.1194237,23.1367111 20.1471864,23.1018667 20.1699661,23.0570667 L20.5792881,23.0570667 C20.5686102,23.1466667 20.5194915,23.2398222 20.4305085,23.3336889 C20.2938305,23.4823111 20.1016271,23.5562667 19.855322,23.5562667 C19.6517288,23.5562667 19.4716271,23.4922667 19.3164407,23.3678222 C19.1605424,23.2419556 19.0829492,23.0385778 19.0829492,22.7562667 C19.0829492,22.4910222 19.1534237,22.2890667 19.293661,22.1475556 C19.4346102,22.0053333 19.6161356,21.9349333 19.8403729,21.9349333 C19.9742034,21.9349333 20.0930847,21.9591111 20.1998644,22.0074667 C20.3066441,22.0544 20.3949153,22.1304889 20.464678,22.2328889 C20.5280339,22.3239111 20.5678983,22.4291556 20.5864068,22.5493333 C20.5977966,22.6197333 20.6020678,22.72 20.5999322,22.8515556 L19.4858644,22.8515556 C19.4908475,23.0051556 19.5442373,23.1132444 19.645322,23.1751111 Z M20.5408475,18.9568 C20.412,19.1808 20.186339,19.2924444 19.8667119,19.2924444 C19.545661,19.2924444 19.3207119,19.1815111 19.1911525,18.9568 C19.0623051,18.7328 18.9968136,18.4120889 18.9968136,17.9960889 C18.9968136,17.5808 19.0615932,17.2593778 19.1911525,17.0346667 C19.32,16.8085333 19.545661,16.6961778 19.8667119,16.6961778 C20.186339,16.6961778 20.4112881,16.8078222 20.5408475,17.0346667 C20.6704068,17.2586667 20.7351864,17.5808 20.7351864,17.9960889 C20.7351864,18.4128 20.6704068,18.7313778 20.5408475,18.9568 Z M18.3938644,22.3886222 C18.3582712,22.3168 18.2927797,22.2812444 18.1981017,22.2812444 C18.0877627,22.2812444 18.0108814,22.3274667 17.9688814,22.4184889 C17.9475254,22.4675556 17.9361356,22.5251556 17.9361356,22.5934222 L17.9361356,23.5043556 L17.5346441,23.5043556 L17.5346441,22.5934222 C17.5346441,22.5038222 17.524678,22.4369778 17.5061695,22.3964444 C17.472,22.3224889 17.4057966,22.2862222 17.3082712,22.2862222 C17.1943729,22.2862222 17.1174915,22.3224889 17.078339,22.3964444 C17.0569831,22.4398222 17.0463051,22.5009778 17.0463051,22.5848889 L17.0463051,23.5050667 L16.6405424,23.5050667 L16.6405424,21.9790222 L17.0292203,21.9790222 L17.0292203,22.2016 C17.0790508,22.1219556 17.125322,22.0657778 17.1694576,22.0316444 C17.2470508,21.9719111 17.3474237,21.9427556 17.4712881,21.9427556 C17.5880339,21.9427556 17.682,21.9676444 17.755322,22.0188444 C17.8129831,22.0664889 17.8571186,22.1276444 17.8877288,22.2030222 C17.9404068,22.1134222 18.0044746,22.0465778 18.0820678,22.0046222 C18.1646441,21.9626667 18.2564746,21.9427556 18.3575593,21.9427556 C18.4251864,21.9427556 18.4913898,21.9562667 18.5568814,21.9818667 C18.621661,22.0081778 18.6814576,22.0536889 18.7348475,22.1184 C18.7775593,22.1710222 18.8067458,22.2378667 18.8216949,22.3139556 C18.8309492,22.3651556 18.8359322,22.4419556 18.8359322,22.5393778 L18.8330847,23.5029333 L18.422339,23.5029333 L18.422339,22.5294222 C18.422339,22.4739556 18.4130847,22.4256 18.3938644,22.3886222 Z M15.834,22.2961778 C15.7898644,22.2734222 15.7250847,22.2613333 15.639661,22.2613333 C15.5442712,22.2613333 15.4759322,22.2848 15.4360678,22.3317333 C15.4075932,22.3665778 15.3883729,22.4135111 15.3791186,22.4711111 L14.9932881,22.4711111 C15.0018305,22.3374222 15.0388475,22.2279111 15.1064746,22.1411556 C15.2118305,22.0081778 15.3947797,21.9406222 15.6538983,21.9406222 C15.8218983,21.9406222 15.9713898,21.9740444 16.1023729,22.0401778 C16.2333559,22.1070222 16.2981356,22.2321778 16.2981356,22.4149333 L16.2981356,23.1160889 C16.2981356,23.1651556 16.2988475,23.2241778 16.3009831,23.2938667 C16.3038305,23.3464889 16.311661,23.3820444 16.3244746,23.3998222 C16.338,23.4183111 16.3572203,23.4346667 16.3835593,23.4460444 L16.3835593,23.5050667 L15.9478983,23.5050667 C15.9357966,23.4737778 15.9272542,23.4446222 15.9229831,23.4183111 C15.9187119,23.3905778 15.9151525,23.3607111 15.9115932,23.3258667 C15.8560678,23.3856 15.7927119,23.4368 15.7193898,23.4780444 C15.6325424,23.5278222 15.5350169,23.5527111 15.4253898,23.5527111 C15.2858644,23.5527111 15.1712542,23.5121778 15.0801356,23.4339556 C14.9897288,23.3543111 14.9434576,23.2426667 14.9434576,23.0983111 C14.9434576,22.9098667 15.0160678,22.7740444 15.162,22.6901333 C15.2417288,22.6439111 15.3598983,22.6112 15.5157966,22.5912889 L15.6531864,22.5749333 C15.7272203,22.5656889 15.7806102,22.5543111 15.8126441,22.5393778 C15.8703051,22.5159111 15.8987797,22.4775111 15.8987797,22.4270222 C15.9002034,22.3630222 15.8788475,22.3210667 15.834,22.2961778 Z M15.907322,19.2924444 C15.5862712,19.2924444 15.361322,19.1815111 15.2317627,18.9568 C15.1022034,18.7328 15.0374237,18.4120889 15.0374237,17.9960889 C15.0374237,17.5808 15.1014915,17.2593778 15.2317627,17.0346667 C15.3606102,16.8085333 15.5862712,16.6961778 15.907322,16.6961778 C16.227661,16.6961778 16.4526102,16.8078222 16.5821695,17.0346667 C16.7110169,17.2586667 16.7765085,17.5808 16.7765085,17.9960889 C16.7765085,18.4120889 16.7117288,18.7320889 16.5821695,18.9568 C16.453322,19.1815111 16.2283729,19.2924444 15.907322,19.2924444 Z M17.0171186,17.9968 C17.0171186,17.5815111 17.0818983,17.2600889 17.2114576,17.0353778 C17.3403051,16.8092444 17.5659661,16.6968889 17.8870169,16.6968889 C18.2073559,16.6968889 18.4315932,16.8085333 18.5611525,17.0353778 C18.6907119,17.2593778 18.7554915,17.5815111 18.7554915,17.9968 C18.7554915,18.4128 18.6907119,18.7328 18.5611525,18.9575111 C18.4323051,19.1815111 18.2066441,19.2931556 17.8870169,19.2931556 C17.5659661,19.2931556 17.3410169,19.1822222 17.2114576,18.9575111 C17.0818983,18.7313778 17.0171186,18.4120889 17.0171186,17.9968 Z M14.6031864,18.9568 C14.474339,19.1808 14.2493898,19.2924444 13.928339,19.2924444 C13.6072881,19.2924444 13.382339,19.1815111 13.2527797,18.9568 C13.1239322,18.7328 13.0584407,18.4120889 13.0584407,17.9960889 C13.0584407,17.5808 13.1225085,17.2593778 13.2527797,17.0346667 C13.3816271,16.8085333 13.6072881,16.6961778 13.928339,16.6961778 C14.248678,16.6961778 14.4736271,16.8078222 14.6031864,17.0346667 C14.7320339,17.2586667 14.7975254,17.5808 14.7975254,17.9960889 C14.7975254,18.4128 14.7320339,18.7313778 14.6031864,18.9568 Z M14.6750847,21.4378667 L14.6750847,23.5043556 L14.2429831,23.5043556 L13.4001356,22.0380444 L13.4001356,23.5043556 L12.9979322,23.5043556 L12.9979322,21.4378667 L13.450678,21.4378667 L14.2728814,22.8785778 L14.2728814,21.4378667 L14.6750847,21.4378667 Z M10.0052542,23.1751111 C10.0657627,23.2135111 10.1397966,23.232 10.2266441,23.232 C10.3177627,23.232 10.3917966,23.2092444 10.4487458,23.1608889 C10.4793559,23.1367111 10.5071186,23.1018667 10.5306102,23.0570667 L10.9392203,23.0570667 C10.9285424,23.1466667 10.8794237,23.2398222 10.7911525,23.3336889 C10.6537627,23.4823111 10.4622712,23.5562667 10.2159661,23.5562667 C10.011661,23.5562667 9.83227119,23.4922667 9.67708475,23.3678222 C9.52118644,23.2419556 9.44359322,23.0385778 9.44359322,22.7562667 C9.44359322,22.4910222 9.5140678,22.2890667 9.65430508,22.1475556 C9.79525424,22.0053333 9.97677966,21.9349333 10.2017288,21.9349333 C10.3355593,21.9349333 10.4544407,21.9591111 10.5612203,22.0074667 C10.668,22.0544 10.7562712,22.1304889 10.8260339,22.2328889 C10.8893898,22.3239111 10.9292542,22.4291556 10.9477627,22.5493333 C10.9591525,22.6197333 10.9634237,22.72 10.9612881,22.8515556 L9.84508475,22.8515556 C9.85077966,23.0051556 9.90488136,23.1132444 10.0052542,23.1751111 Z M8.75450847,22.3886222 C8.71891525,22.3168 8.65342373,22.2812444 8.5580339,22.2812444 C8.44769492,22.2812444 8.37152542,22.3274667 8.32881356,22.4184889 C8.30745763,22.4675556 8.2960678,22.5251556 8.2960678,22.5934222 L8.2960678,23.5043556 L7.89457627,23.5043556 L7.89457627,22.5934222 C7.89457627,22.5038222 7.88461017,22.4369778 7.86610169,22.3964444 C7.8319322,22.3224889 7.76572881,22.2862222 7.66820339,22.2862222 C7.55430508,22.2862222 7.47742373,22.3224889 7.43827119,22.3964444 C7.41691525,22.4398222 7.40694915,22.5009778 7.40694915,22.5848889 L7.40694915,23.5050667 L7.00118644,23.5050667 L7.00118644,21.9790222 L7.38986441,21.9790222 L7.38986441,22.2016 C7.43898305,22.1219556 7.4859661,22.0657778 7.53010169,22.0316444 C7.60769492,21.9719111 7.7080678,21.9427556 7.8319322,21.9427556 C7.94867797,21.9427556 8.04264407,21.9676444 8.11525424,22.0188444 C8.17362712,22.0664889 8.21705085,22.1276444 8.24766102,22.2030222 C8.30033898,22.1134222 8.36511864,22.0465778 8.44271186,22.0046222 C8.52528814,21.9626667 8.61711864,21.9427556 8.71749153,21.9427556 C8.78511864,21.9427556 8.85132203,21.9562667 8.91681356,21.9818667 C8.98230508,22.0081778 9.04138983,22.0536889 9.09477966,22.1184 C9.13749153,22.1710222 9.16667797,22.2378667 9.18162712,22.3139556 C9.19088136,22.3651556 9.19586441,22.4419556 9.19586441,22.5393778 L9.19301695,23.5029333 L8.78298305,23.5029333 L8.78298305,22.5294222 C8.78227119,22.4739556 8.77301695,22.4256 8.75450847,22.3886222 Z M6.1939322,22.2961778 C6.14979661,22.2734222 6.08501695,22.2613333 5.99959322,22.2613333 C5.90420339,22.2613333 5.83586441,22.2848 5.79528814,22.3317333 C5.76681356,22.3665778 5.74830508,22.4135111 5.73905085,22.4711111 L5.35322034,22.4711111 C5.36176271,22.3374222 5.39949153,22.2279111 5.46640678,22.1411556 C5.57176271,22.0081778 5.75471186,21.9406222 6.01383051,21.9406222 C6.18254237,21.9406222 6.33132203,21.9740444 6.46230508,22.0401778 C6.59328814,22.1070222 6.6580678,22.2321778 6.6580678,22.4149333 L6.6580678,23.1160889 C6.6580678,23.1651556 6.65877966,23.2241778 6.66091525,23.2938667 C6.66376271,23.3464889 6.67159322,23.3820444 6.68440678,23.3998222 C6.6979322,23.4183111 6.71715254,23.4346667 6.74349153,23.4460444 L6.74349153,23.5050667 L6.30711864,23.5050667 C6.29501695,23.4737778 6.28647458,23.4446222 6.28149153,23.4183111 C6.27722034,23.3905778 6.27366102,23.3607111 6.27081356,23.3258667 C6.21528814,23.3856 6.15122034,23.4368 6.07861017,23.4780444 C5.99176271,23.5278222 5.89423729,23.5527111 5.78461017,23.5527111 C5.64508475,23.5527111 5.53047458,23.5121778 5.43935593,23.4339556 C5.34894915,23.3543111 5.30338983,23.2426667 5.30338983,23.0983111 C5.30338983,22.9098667 5.376,22.7740444 5.5219322,22.6901333 C5.60166102,22.6439111 5.71983051,22.6112 5.87572881,22.5912889 L6.01240678,22.5749333 C6.08644068,22.5656889 6.13983051,22.5543111 6.17186441,22.5393778 C6.22881356,22.5159111 6.258,22.4775111 6.258,22.4270222 C6.26084746,22.3630222 6.23877966,22.3210667 6.1939322,22.2961778 Z M6.68654237,18.9568 C6.55627119,19.1815111 6.3320339,19.2924444 6.01169492,19.2924444 C5.69064407,19.2924444 5.46569492,19.1815111 5.33613559,18.9568 C5.20728814,18.7328 5.14250847,18.4120889 5.14250847,17.9960889 C5.14250847,17.5808 5.20657627,17.2593778 5.33613559,17.0346667 C5.46569492,16.8085333 5.6899322,16.6961778 6.01169492,16.6961778 C6.3320339,16.6961778 6.55698305,16.8078222 6.68654237,17.0346667 C6.81538983,17.2586667 6.88016949,17.5808 6.88016949,17.9960889 C6.88088136,18.4128 6.81538983,18.7313778 6.68654237,18.9568 Z M4.37938983,10.8373333 L4.37938983,9.36248889 L5.8700339,9.36248889 L5.8700339,10.8707556 L4.38366102,10.8707556 C4.38366102,10.8593778 4.37938983,10.8487111 4.37938983,10.8373333 Z M10.1981695,10.8373333 C10.1981695,10.8487111 10.195322,10.8593778 10.1946102,10.8700444 L8.70681356,10.8700444 L8.70681356,9.36177778 L10.1981695,9.36177778 L10.1981695,10.8373333 Z M8.70681356,11.6472889 L10.0330169,11.6472889 C9.79240678,12.2126222 9.30335593,12.6407111 8.70681356,12.8177778 L8.70681356,11.6472889 Z M8.31955932,8.58595556 L7.93016949,8.58666667 L7.93016949,10.8707556 L6.64881356,10.8707556 L6.64881356,7.10044444 L8.12166102,7.10044444 C9.06061017,7.10044444 9.84722034,7.73048889 10.1034915,8.58524444 L8.31955932,8.58524444 L8.31955932,8.58595556 Z M5.87074576,8.58595556 L4.47620339,8.58595556 C4.67623729,7.91751111 5.20088136,7.39413333 5.87074576,7.19573333 L5.87074576,8.58595556 Z M5.87074576,11.6472889 L5.87074576,12.8177778 C5.27420339,12.6407111 4.78586441,12.2126222 4.54454237,11.6472889 L5.87074576,11.6472889 Z M6.64738983,11.6472889 L7.92874576,11.6472889 L7.92874576,12.9123556 L6.64738983,12.9123556 L6.64738983,11.6472889 Z M7.99067797,16.6961778 C8.31101695,16.6961778 8.5359661,16.8085333 8.66552542,17.0346667 C8.79437288,17.2600889 8.85915254,17.5815111 8.85915254,17.9975111 C8.85915254,18.4128 8.79437288,18.7320889 8.66552542,18.9568 C8.53525424,19.1808 8.31101695,19.2938667 7.99067797,19.2938667 C7.66962712,19.2938667 7.44467797,19.1815111 7.31511864,18.9568 C7.18627119,18.7328 7.12149153,18.4128 7.12149153,17.9975111 C7.12149153,17.5815111 7.18555932,17.2608 7.31511864,17.0346667 C7.44467797,16.8085333 7.66962712,16.6961778 7.99067797,16.6961778 Z M4.032,16.6961778 C4.35233898,16.6961778 4.57728814,16.8085333 4.70684746,17.0346667 C4.83640678,17.2600889 4.90118644,17.5815111 4.90118644,17.9975111 C4.90118644,18.4128 4.83711864,18.7320889 4.70684746,18.9568 C4.57728814,19.1808 4.35233898,19.2938667 4.032,19.2938667 C3.71094915,19.2938667 3.486,19.1815111 3.35644068,18.9568 C3.22759322,18.7328 3.16210169,18.4128 3.16210169,17.9975111 C3.16210169,17.5815111 3.22688136,17.2608 3.35644068,17.0346667 C3.48528814,16.8085333 3.71023729,16.6961778 4.032,16.6961778 Z M3.35786441,21.4378667 L3.81061017,21.4378667 L4.63210169,22.8785778 L4.63210169,21.4378667 L5.03501695,21.4378667 L5.03501695,23.5043556 L4.60291525,23.5043556 L3.7600678,22.0380444 L3.7600678,23.5043556 L3.35786441,23.5043556 L3.35786441,21.4378667 Z M9.10118644,17.9968 C9.10118644,17.5815111 9.16525424,17.2600889 9.29481356,17.0353778 C9.42437288,16.8092444 9.64861017,16.6968889 9.97037288,16.6968889 C10.2907119,16.6968889 10.5149492,16.8085333 10.6452203,17.0353778 C10.7747797,17.2593778 10.8395593,17.5815111 10.8395593,17.9968 C10.8395593,18.4128 10.7747797,18.7328 10.6452203,18.9575111 C10.5163729,19.1815111 10.2914237,19.2931556 9.97037288,19.2931556 C9.64932203,19.2931556 9.42437288,19.1822222 9.29481356,18.9575111 C9.16525424,18.7313778 9.10118644,18.4120889 9.10118644,17.9968 Z M34.1609492,11.3272889 C33.5743729,11.3272889 33.0255254,11.1829333 32.5286441,10.9454222 C31.9249831,11.3287111 31.2145424,11.5591111 30.4478644,11.5591111 C28.2944746,11.5591111 26.5432881,9.80977778 26.5432881,7.65937778 C26.5432881,5.50968889 28.2944746,3.76035556 30.4478644,3.76035556 C31.1141695,3.76035556 31.7334915,3.94382222 32.282339,4.23964444 C32.8383051,3.92177778 33.4747119,3.72408889 34.1595254,3.72408889 C36.2581017,3.72408889 37.9658644,5.42933333 37.9658644,7.52568889 C37.9658644,9.62204444 36.2595254,11.3272889 34.1609492,11.3272889 Z" id="Shape" fill-rule="nonzero"></path>
                    <path d="M31.106339,7.42471111 L30.7354576,7.42471111 L30.3645763,7.42471111 C30.3695593,7.25617778 30.3887797,7.0912 30.4151186,6.92906667 L30.786,6.92906667 L31.1568814,6.92906667 L33.2433559,6.92906667 C33.2049153,6.72426667 33.1444068,6.52871111 33.069661,6.33884444 L31.3369831,6.33884444 L30.9504407,6.33884444 L30.5638983,6.33884444 C30.6229831,6.16248889 30.691322,5.99395556 30.7731864,5.82968889 L31.1917627,5.82968889 L31.6131864,5.82968889 L32.8119661,5.82968889 C32.6809831,5.61706667 32.5357627,5.41653333 32.3627797,5.23946667 L32.1428136,5.23946667 L31.6160339,5.23946667 L31.1397966,5.23946667 C31.2800339,5.05386667 31.4352203,4.8832 31.6060678,4.72675556 C31.2465763,4.58453333 30.8571864,4.49991111 30.4478644,4.49991111 C28.7030847,4.49991111 27.2850508,5.91715556 27.2850508,7.65795556 C27.2850508,9.39946667 28.7030847,10.8167111 30.4478644,10.8167111 C30.938339,10.8167111 31.3982034,10.6944 31.8132203,10.4938667 C31.6793898,10.3879111 31.5462712,10.2812444 31.426678,10.1582222 L31.9833559,10.1582222 L32.019661,10.1582222 C32.1114915,10.0864 32.182678,9.99182222 32.2652542,9.91075556 C32.3812881,9.79911111 32.5072881,9.69671111 32.6062373,9.56871111 L31.8965085,9.56871111 L31.4145763,9.56871111 L30.9611186,9.56871111 C30.8678644,9.42293333 30.786,9.27075556 30.7133898,9.11288889 L31.1319661,9.11288889 L31.5533898,9.11288889 L32.8981017,9.11288889 C32.9991864,8.92515556 33.080339,8.72888889 33.1444068,8.52337778 L31.2771864,8.52337778 L30.8906441,8.52337778 L30.5048136,8.52337778 C30.4599661,8.35768889 30.4272203,8.18773333 30.4037288,8.01351111 L30.7746102,8.01351111 L31.1454915,8.01351111 L33.2583051,8.01351111 C33.279661,7.86133333 33.3045763,7.70986667 33.3045763,7.55128889 C33.3045763,7.5072 33.2924746,7.46666667 33.2910508,7.424 L31.106339,7.42471111 Z" id="Path"></path>
                    <polygon id="Path" points="25.0191864 26.0259556 24.2781356 26.7669333 23.2701356 27.7731556 26.8081017 31.3073778 31.0821356 27.0392889 35.3547458 31.3073778 38.892 27.7731556 37.8854237 26.7669333 37.143661 26.0259556 36.4018983 25.2849778 34.6201017 23.5050667 38.892 19.2362667 35.3547458 15.7013333 31.0821356 19.9694222 26.8081017 15.7013333 23.2701356 19.2362667 27.5420339 23.5050667 25.7609492 25.2849778"></polygon>
                </g>
            </g>
        </g>
    </g>
</svg>