<?xml version="1.0" encoding="UTF-8"?>
<svg width="46px" height="36px" viewBox="0 0 46 36" version="1.1" xmlns="http://www.w3.org/2000/svg" xmlns:xlink="http://www.w3.org/1999/xlink">
    <!-- Generator: Sketch 52.6 (67491) - http://www.bohemiancoding.com/sketch -->
    <title>Rent</title>
    <desc>Created with Sketch.</desc>
    <g id="Page-1" stroke="none" stroke-width="1" fill="none" fill-rule="evenodd">
        <g id="Landing-page" transform="translate(-1259.000000, -1126.000000)" fill="#FFFFFF">
            <g id="Group-2" transform="translate(1237.000000, 986.000000)">
                <g id="Rent" transform="translate(22.000000, 140.000000)">
                    <path d="M0.320920521,19.8740718 C0.0122355525,20.322749 0.0122355525,20.9141399 0.320920521,21.3624691 C0.422999712,21.5104038 2.85192733,25.0128017 6.80050764,28.5705446 C5.60771824,26.1712175 4.93581289,23.4718441 4.93581289,20.6182704 C4.93581289,17.7650448 5.60771824,15.0653233 6.80050764,12.6663443 C2.85227689,16.2240872 0.422999712,19.7261371 0.320920521,19.8740718 Z" id="Path"></path>
                    <path d="M45.6790795,19.8740718 C45.5770003,19.7261371 43.1477231,16.2240872 39.1994924,12.6663443 C40.3922818,15.0653233 41.0641871,17.7650448 41.0641871,20.6182704 C41.0641871,23.4718441 40.3922818,26.1712175 39.1994924,28.5705446 C43.1477231,25.0128017 45.5770003,21.5104038 45.6790795,21.3624691 C45.9877644,20.9141399 45.9877644,20.322749 45.6790795,19.8740718 Z" id="Path"></path>
                    <path d="M23,5.26438738 C14.4833719,5.26438738 7.57938653,12.1386525 7.57938653,20.6182704 C7.57938653,29.0982364 14.4833719,35.9725015 23,35.9725015 C31.5166281,35.9725015 38.4206135,29.0982364 38.4206135,20.6182704 C38.4206135,12.1386525 31.5166281,5.26438738 23,5.26438738 Z M21.6782132,19.3025217 L24.3217868,19.3025217 C26.2651386,19.3025217 27.8463187,20.8768951 27.8463187,22.8118812 C27.8463187,24.7468673 26.2651386,26.3212407 24.3217868,26.3212407 L24.3217868,28.5148515 C24.3217868,29.241646 23.7299368,29.8309483 23,29.8309483 C22.2700632,29.8309483 21.6782132,29.241646 21.6782132,28.5148515 L21.6782132,26.3212407 L19.4754682,26.3212407 C18.7451818,26.3212407 18.1536813,25.7322866 18.1536813,25.005492 C18.1536813,24.2783493 18.7451818,23.6893951 19.4754682,23.6893951 L24.3217868,23.6893951 C24.8077122,23.6893951 25.2030946,23.2957148 25.2030946,22.8118812 C25.2030946,22.3280476 24.8077122,21.9343673 24.3217868,21.9343673 L21.6782132,21.9343673 C19.7348614,21.9343673 18.1536813,20.3599938 18.1536813,18.4250077 C18.1536813,16.4896736 19.7348614,14.9153001 21.6782132,14.9153001 L21.6782132,12.7220374 C21.6782132,11.9952429 22.2700632,11.4059406 23,11.4059406 C23.7299368,11.4059406 24.3217868,11.9952429 24.3217868,12.7220374 L24.3217868,14.9153001 L26.5245318,14.9153001 C27.2548182,14.9153001 27.8463187,15.5046024 27.8463187,16.231397 C27.8463187,16.9581915 27.2548182,17.5474938 26.5245318,17.5474938 L21.6782132,17.5474938 C21.1922878,17.5474938 20.7969054,17.9411742 20.7969054,18.4250077 C20.7969054,18.9088413 21.1922878,19.3025217 21.6782132,19.3025217 Z" id="Shape" fill-rule="nonzero"></path>
                    <path d="M5.07809465,10.6680074 C7.60315842,8.39990718 10.19779,6.58013614 12.7903241,5.25916613 C16.2110287,3.51597306 19.646416,2.63219364 23,2.63219364 C26.353584,2.63219364 29.7886217,3.51597306 33.2096759,5.25916613 C35.80221,6.58013614 38.3968416,8.39990718 40.9219054,10.6680074 C41.4637646,11.1546257 42.2996261,11.1121597 42.7886978,10.5722849 C43.2774197,10.0324103 43.2347701,9.20049505 42.6925614,8.71352875 C39.9968993,6.2919245 37.2113935,4.34127475 34.4140017,2.91588024 C30.6167923,0.981242287 26.7765838,0 23,0 C19.2234162,0 15.3832077,0.981242287 11.5859983,2.91588024 C8.78860652,4.34127475 6.00310068,6.2919245 3.30743857,8.71352875 C2.76557942,9.20049505 2.72258025,10.0324103 3.21165189,10.5722849 C3.70037388,11.1121597 4.53623541,11.1546257 5.07809465,10.6680074 Z" id="Path"></path>
                </g>
            </g>
        </g>
    </g>
</svg>