<svg xmlns="http://www.w3.org/2000/svg" xmlns:xlink="http://www.w3.org/1999/xlink" preserveAspectRatio="xMidYMid" width="90" height="23.25" viewBox="0 0 90 23.25">
  <defs>
    <style>
      .cls-1 {
        fill: #fff;
        fill-rule: evenodd;
      }
    </style>
  </defs>
  <path d="M77.933,23.238 C71.269,23.238 65.867,18.039 65.867,11.625 C65.867,5.211 71.269,0.012 77.933,0.012 C84.597,0.012 90.000,5.211 90.000,11.625 C90.000,18.039 84.597,23.238 77.933,23.238 ZM45.000,23.238 C38.336,23.238 32.934,18.039 32.934,11.625 C32.934,5.211 38.336,0.012 45.000,0.012 C51.664,0.012 57.066,5.211 57.066,11.625 C57.066,18.039 51.664,23.238 45.000,23.238 ZM12.067,23.238 C5.403,23.238 0.000,18.039 0.000,11.625 C0.000,5.211 5.403,0.012 12.067,0.012 C18.731,0.012 24.133,5.211 24.133,11.625 C24.133,18.039 18.731,23.238 12.067,23.238 Z" class="cls-1"/>
</svg>
