<?xml version="1.0" encoding="UTF-8"?>
<svg width="14px" height="14px" viewBox="0 0 14 14" version="1.1" xmlns="http://www.w3.org/2000/svg" xmlns:xlink="http://www.w3.org/1999/xlink">
    <!-- Generator: Sketch 52.6 (67491) - http://www.bohemiancoding.com/sketch -->
    <title>Shape 4</title>
    <desc>Created with Sketch.</desc>
    <g id="Page-1" stroke="none" stroke-width="1" fill="none" fill-rule="evenodd">
        <g id="03_Details" transform="translate(-78.000000, -366.000000)" fill="#FFFFFF">
            <g id="Group-2" transform="translate(60.000000, 348.000000)">
                <path d="M29.63064,22.95544 L26.868804,22.95544 L26.868804,20.287684 C26.868804,19.189216 26.137752,18.483028 25.000518,18.483028 C23.863284,18.483028 23.13219,19.189216 23.13219,20.287684 L23.13219,22.95544 L20.370354,22.95544 C19.23312,22.95544 18.502068,23.661628 18.502068,24.760096 C18.502068,25.858648 19.23312,26.564752 20.370354,26.564752 L23.13219,26.564752 L23.13219,29.232522 C23.13219,30.33106 23.863284,31.037178 25.000518,31.037178 C26.137752,31.037178 26.868804,30.33106 26.868804,29.232522 L26.868804,26.564752 L29.63064,26.564752 C30.767888,26.564752 31.498968,25.858648 31.498968,24.760096 C31.498968,23.661628 30.767888,22.95544 29.63064,22.95544 Z" id="Shape-4"></path>
            </g>
        </g>
    </g>
</svg>