<svg xmlns="http://www.w3.org/2000/svg" width="27" height="24" viewBox="0 0 27 24">
  <metadata><?xpacket begin="﻿" id="W5M0MpCehiHzreSzNTczkc9d"?>
<x:xmpmeta xmlns:x="adobe:ns:meta/" x:xmptk="Adobe XMP Core 5.6-c138 79.159824, 2016/09/14-01:09:01        ">
   <rdf:RDF xmlns:rdf="http://www.w3.org/1999/02/22-rdf-syntax-ns#">
      <rdf:Description rdf:about=""/>
   </rdf:RDF>
</x:xmpmeta>
                                                                                                    
                                                                                                    
                                                                                                    
                                                                                                    
                                                                                                    
                                                                                                    
                                                                                                    
                                                                                                    
                                                                                                    
                                                                                                    
                                                                                                    
                                                                                                    
                                                                                                    
                                                                                                    
                                                                                                    
                                                                                                    
                                                                                                    
                                                                                                    
                                                                                                    
                                                                                                    
                           
<?xpacket end="w"?></metadata>
<defs>
    <style>
      .cls-1 {
        fill: #fff;
        fill-rule: evenodd;
      }
    </style>
  </defs>
  <path id="Forma_1" data-name="Forma 1" class="cls-1" d="M313.234,338.191l-8.875-15.007a4.533,4.533,0,0,0-7.754,0l-9.032,15.264a4.275,4.275,0,0,0,0,4.368A4.5,4.5,0,0,0,291.45,345h18.073A4.423,4.423,0,0,0,314,340.632,4.265,4.265,0,0,0,313.234,338.191ZM302.4,339.652a1.914,1.914,0,0,1-3.823,0v-0.043a1.914,1.914,0,0,1,3.823,0v0.043Zm0.044-12.286-0.946,8.061a1.012,1.012,0,0,1-2.019,0l-0.946-8.065a0.9,0.9,0,0,1,.878-1.1h2.15A0.9,0.9,0,0,1,302.442,327.366Z" transform="translate(-287 -321)"/>
</svg>
