<svg xmlns="http://www.w3.org/2000/svg" xmlns:xlink="http://www.w3.org/1999/xlink" preserveAspectRatio="xMidYMid" width="38" height="37.124" viewBox="0 0 38 37.124">
  <defs>
    <style>
      .cls-1 {
        stroke: #fff;
        stroke-width: 2px;
        fill: none;
        fill-rule: evenodd;
      }
    </style>
  </defs>
  <path d="M34.000,36.125 L23.719,36.125 C22.062,36.125 20.719,34.781 20.719,33.125 L20.719,22.843 C20.719,21.186 22.062,19.843 23.719,19.843 L34.000,19.843 C35.657,19.843 37.000,21.186 37.000,22.843 L37.000,33.125 C37.000,34.781 35.657,36.125 34.000,36.125 ZM34.000,17.281 L23.719,17.281 C22.062,17.281 20.719,15.938 20.719,14.281 L20.719,3.999 C20.719,2.343 22.062,0.999 23.719,0.999 L34.000,0.999 C35.657,0.999 37.000,2.343 37.000,3.999 L37.000,14.281 C37.000,15.938 35.657,17.281 34.000,17.281 ZM14.281,36.125 L4.000,36.125 C2.343,36.125 1.000,34.781 1.000,33.125 L1.000,22.843 C1.000,21.186 2.343,19.843 4.000,19.843 L14.281,19.843 C15.938,19.843 17.281,21.186 17.281,22.843 L17.281,33.125 C17.281,34.781 15.938,36.125 14.281,36.125 ZM14.281,17.281 L4.000,17.281 C2.343,17.281 1.000,15.938 1.000,14.281 L1.000,3.999 C1.000,2.343 2.343,0.999 4.000,0.999 L14.281,0.999 C15.938,0.999 17.281,2.343 17.281,3.999 L17.281,14.281 C17.281,15.938 15.938,17.281 14.281,17.281 Z" class="cls-1"/>
</svg>
