<svg xmlns="http://www.w3.org/2000/svg" xmlns:xlink="http://www.w3.org/1999/xlink" preserveAspectRatio="xMidYMid" width="90" height="90" viewBox="0 0 90 90">
  <defs>
    <style>
      .cls-1 {
        fill: #fff;
        fill-rule: evenodd;
      }
    </style>
  </defs>
  <path d="M88.448,56.641 C85.339,68.246 77.895,77.946 67.491,83.953 C60.560,87.955 52.867,89.999 45.073,89.999 C41.166,89.999 37.233,89.485 33.358,88.447 C21.753,85.337 12.053,77.894 6.045,67.489 C0.038,57.084 -1.558,44.963 1.552,33.358 C4.661,21.752 12.104,12.052 22.509,6.045 C32.915,0.038 45.036,-1.559 56.642,1.551 C68.247,4.661 77.947,12.104 83.954,22.509 C89.962,32.914 91.558,45.035 88.448,56.641 ZM77.959,25.970 C72.876,17.166 64.669,10.869 54.850,8.238 C51.572,7.360 48.243,6.925 44.938,6.925 C38.343,6.925 31.835,8.655 25.971,12.040 C17.167,17.124 10.870,25.330 8.238,35.149 C5.607,44.969 6.958,55.225 12.040,64.028 C17.123,72.832 25.330,79.129 35.150,81.760 C44.969,84.391 55.225,83.041 64.028,77.958 C72.832,72.875 79.130,64.668 81.761,54.849 C84.392,45.030 83.042,34.774 77.959,25.970 ZM65.752,53.043 C61.288,53.043 57.669,49.442 57.669,45.000 C57.669,40.558 61.288,36.957 65.752,36.957 C70.215,36.957 73.834,40.558 73.834,45.000 C73.834,49.442 70.215,53.043 65.752,53.043 ZM43.830,53.043 C39.381,53.043 35.774,49.442 35.774,45.000 C35.774,40.558 39.381,36.957 43.830,36.957 C48.280,36.957 51.887,40.558 51.887,45.000 C51.887,49.442 48.280,53.043 43.830,53.043 ZM21.870,53.043 C17.428,53.043 13.827,49.442 13.827,45.000 C13.827,40.558 17.428,36.957 21.870,36.957 C26.312,36.957 29.913,40.558 29.913,45.000 C29.913,49.442 26.312,53.043 21.870,53.043 Z" class="cls-1"/>
</svg>
