<?xml version="1.0" encoding="utf-8"?>
<!-- Generator: Adobe Illustrator 19.2.0, SVG Export Plug-In . SVG Version: 6.00 Build 0)  -->
<svg version="1.1" id="Layer_1" xmlns="http://www.w3.org/2000/svg" xmlns:xlink="http://www.w3.org/1999/xlink" x="0px" y="0px"
	 viewBox="0 0 48 48" style="enable-background:new 0 0 48 48;" xml:space="preserve">
<style type="text/css">
	.st0{fill-rule:evenodd;clip-rule:evenodd;fill:#444CC5;}
	.st1{fill:#FFFFFF;}
</style>
<g>
	<path class="st0" d="M0,0h48v48H20C9,48,0,39,0,28V0z"/>
	<path class="st1" d="M16.1,18.5v-3c0-4.7,3.8-8.5,8.4-8.5c4.6,0,8.4,3.8,8.4,8.5v3c-1.3-0.6-2.8-1.1-4.2-1.4v-1.6
		c0-2.3-1.9-4.2-4.2-4.2c-2.3,0-4.2,1.9-4.2,4.2v1.6C18.9,17.4,17.4,17.8,16.1,18.5z M35,25.6C35,33,30.5,39.2,24.5,41
		c-6-1.8-10.5-8-10.5-15.4c0-1.9,0.3-3.7,0.8-5.3c6-3.6,13.4-3.6,19.4,0C34.7,22,35,23.8,35,25.6z M25.8,27.7c0.5-0.4,0.8-1,0.8-1.6
		c0-1.2-0.9-2.1-2.1-2.1s-2.1,1-2.1,2.1c0,0.7,0.3,1.2,0.8,1.6l-0.8,4.8h4.2L25.8,27.7z"/>
</g>
</svg>
