<?xml version="1.0" encoding="UTF-8" standalone="no"?>
<svg width="187px" height="117px" viewBox="0 0 187 117" version="1.1" xmlns="http://www.w3.org/2000/svg" xmlns:xlink="http://www.w3.org/1999/xlink">
    <!-- Generator: Sketch 50.2 (55047) - http://www.bohemiancoding.com/sketch -->
    <title>coupon</title>
    <desc>Created with Sketch.</desc>
    <defs></defs>
    <g id="Page-1" stroke="none" stroke-width="1" fill="none" fill-rule="evenodd" opacity="0.5">
        <g id="settings" transform="translate(-284.000000, -1303.000000)" fill-rule="nonzero">
            <g id="Group-187-copy-2" transform="translate(25.000000, 988.000000)">
                <g id="Group-186-copy" transform="translate(0.000000, 26.000000)">
                    <g id="coupon" transform="translate(0.000000, 289.000000)">
                        <g transform="translate(353.314780, 54.605253) rotate(-45.000000) translate(-353.314780, -54.605253) translate(267.814780, 4.605253)" id="Shape">
                            <path d="M164.874463,0 L38.4707302,0 L38.4707302,2.75343981 C38.4707302,4.27553386 37.2415356,5.50687961 35.7228447,5.50687961 C34.203821,5.50687961 32.9749592,4.27520043 32.9749592,2.75343981 L32.9749592,0 L5.49577107,0 C2.46071852,0 0,2.46535892 0,5.50687961 L0,29.7460191 C0,31.1340755 0.681148182,32.4531125 1.85909863,33.1833175 C7.3359027,36.577604 10.9915421,42.6349715 10.9915421,49.5622499 C10.9915421,56.4891949 7.3359027,62.5468959 1.85909863,65.9411823 C0.681148182,66.6713873 0,67.9907578 0,69.3784808 L0,93.6176202 C0,96.6588075 2.46071852,99.1244998 5.49577107,99.1244998 L32.9749592,99.1244998 L32.9749592,96.37106 C32.9749592,94.848966 34.2041538,93.6176202 35.7228447,93.6176202 C37.2418684,93.6176202 38.4707302,94.8492994 38.4707302,96.37106 L38.4707302,99.1244998 L164.874463,99.1244998 C167.909516,99.1244998 170.370234,96.6588075 170.370234,93.6176202 L170.370234,5.50687961 C170.370234,2.46535892 167.909516,0 164.874463,0 Z M38.4707302,85.3573008 C38.4707302,86.8793949 37.2415356,88.1107406 35.7228447,88.1107406 C34.203821,88.1107406 32.9749592,86.8790615 32.9749592,85.3573008 L32.9749592,79.8504212 C32.9749592,78.3283272 34.2041538,77.0969814 35.7228447,77.0969814 C37.2418684,77.0969814 38.4707302,78.3286606 38.4707302,79.8504212 L38.4707302,85.3573008 Z M38.4707302,68.8363286 C38.4707302,70.3584226 37.2415356,71.5897684 35.7228447,71.5897684 C34.203821,71.5897684 32.9749592,70.3580892 32.9749592,68.8363286 L32.9749592,63.329449 C32.9749592,61.8073549 34.2041538,60.5760091 35.7228447,60.5760091 C37.2418684,60.5760091 38.4707302,61.8076883 38.4707302,63.329449 L38.4707302,68.8363286 Z M38.4707302,52.3156897 C38.4707302,53.8377838 37.2415356,55.0691295 35.7228447,55.0691295 C34.203821,55.0691295 32.9749592,53.8374504 32.9749592,52.3156897 L32.9749592,46.8088101 C32.9749592,45.2867161 34.2041538,44.0553703 35.7228447,44.0553703 C37.2418684,44.0553703 38.4707302,45.2870495 38.4707302,46.8088101 L38.4707302,52.3156897 Z M38.4707302,35.7950509 C38.4707302,37.317145 37.2415356,38.5484907 35.7228447,38.5484907 C34.203821,38.5484907 32.9749592,37.3168115 32.9749592,35.7950509 L32.9749592,30.2881713 C32.9749592,28.7660772 34.2041538,27.5347315 35.7228447,27.5347315 C37.2418684,27.5347315 38.4707302,28.7664107 38.4707302,30.2881713 L38.4707302,35.7950509 Z M38.4707302,19.2740786 C38.4707302,20.7961727 37.2415356,22.0275184 35.7228447,22.0275184 C34.203821,22.0275184 32.9749592,20.7958393 32.9749592,19.2740786 L32.9749592,13.767199 C32.9749592,12.245105 34.2041538,11.0137592 35.7228447,11.0137592 C37.2418684,11.0137592 38.4707302,12.2454384 38.4707302,13.767199 L38.4707302,19.2740786 Z" fill="#FF5850"></path>
                            <path d="M162.461886,92.9292186 L47.1451289,92.9292186 C45.6286912,92.9292186 44.3995156,91.7013553 44.3995156,90.1865367 L44.3995156,7.90541624 C44.3995156,6.39059764 45.6286912,5.16273437 47.1451289,5.16273437 L162.461886,5.16273437 C163.978324,5.16273437 165.2075,6.39059764 165.2075,7.90541624 L165.2075,90.1865367 C165.2075,91.7013553 163.978324,92.9292186 162.461886,92.9292186 Z" fill="#FF7164"></path>
                            <path d="M101.705867,68.88003 L87.5745934,77.8299095 C84.4603913,79.8022668 80.5522048,76.9379856 81.4491927,73.3403153 L85.5198077,57.016244 L72.7156932,46.223566 C69.8936642,43.8448804 71.3865532,39.2100738 75.0553889,38.9592826 L91.7023224,37.8205643 L97.9201621,22.2002403 C99.2905694,18.757774 104.121165,18.757774 105.491572,22.2002403 L111.709412,37.8205643 L128.356345,38.9592826 C132.025181,39.2104068 133.51807,43.8452134 130.696041,46.223566 L117.891926,57.016244 L121.962541,73.3403153 C122.859529,76.9379856 118.951673,79.8025998 115.837141,77.8299095 L101.705867,68.88003 Z" fill="#FFFFFF"></path>
                        </g>
                    </g>
                </g>
            </g>
        </g>
    </g>
</svg>