<svg id="Layer_1" data-name="Layer 1" xmlns="http://www.w3.org/2000/svg" viewBox="0 0 181 181"><defs><style>.cls-1{fill:#444CC5;}.cls-2{fill:#fff;}</style></defs><title>Coupon_Code</title><circle class="cls-1" cx="90.5" cy="90.5" r="90.5"/><path id="Forma_1" data-name="Forma 1" class="cls-2" d="M40,93.93v42a7.07,7.07,0,0,0,7.14,7H82.88V93.93ZM140.06,66H117.45a27.21,27.21,0,0,0,4-3.12,14.39,14.39,0,0,0,.23-20.35l-.23-.22a15.33,15.33,0,0,0-21,0c-3.1,3-11.32,15.42-10.18,23.7h-.52c1.13-8.28-7.09-20.66-10.18-23.7a15.37,15.37,0,0,0-21,0,14.42,14.42,0,0,0-.2,20.38l.2.19a27.6,27.6,0,0,0,4,3.13H40a7.08,7.08,0,0,0-7.15,7V83.45A3.54,3.54,0,0,0,36.42,87H82.88V73H97.17v14h46.46a3.53,3.53,0,0,0,3.57-3.5h0V73A7.08,7.08,0,0,0,140.06,66Zm-57.6-.23a2.24,2.24,0,0,1-1.32.23c-4.94,0-14.37-5-17.45-8a7.51,7.51,0,0,1-.09-10.62l.09-.09a7.73,7.73,0,0,1,10.83,0C79.34,51.94,84.13,64.05,82.46,65.73ZM98.91,66a2.2,2.2,0,0,1-1.31-.23c-1.67-1.68,3.12-13.8,7.94-18.53a7.91,7.91,0,0,1,10.83,0,7.49,7.49,0,0,1,.1,10.6l-.1.11C113.29,60.94,103.86,66,98.91,66Zm-1.74,28v48.95h35.74a7.08,7.08,0,0,0,7.15-7v-42Z" transform="translate(0.47)"/></svg>