<?xml version="1.0" encoding="UTF-8" standalone="no"?>
<svg width="150px" height="150px" viewBox="0 0 150 150" version="1.1" xmlns="http://www.w3.org/2000/svg" xmlns:xlink="http://www.w3.org/1999/xlink">
    <!-- Generator: Sketch 50.2 (55047) - http://www.bohemiancoding.com/sketch -->
    <title>Slice 1</title>
    <desc>Created with Sketch.</desc>
    <defs></defs>
    <g id="Page-1" stroke="none" stroke-width="1" fill="none" fill-rule="evenodd">
        <circle id="Oval" fill="#444CC5" cx="75" cy="75" r="75"></circle>
        <g id="credit-card" transform="translate(35.000000, 48.000000)" fill="#FFFFFF" fill-rule="nonzero">
            <path d="M0,20 L0,50 C0,52.76 2.245,55 5,55 L75,55 C77.76,55 80,52.76 80,50 L80,20 L0,20 Z M27.5,40 L12.5,40 C11.12,40 10,38.88 10,37.5 C10,36.12 11.12,35 12.5,35 L27.5,35 C28.88,35 30,36.12 30,37.5 C30,38.88 28.88,40 27.5,40 Z M62.5,45 C60.57,45 58.83,44.25 57.5,43.055 C56.17,44.25 54.43,45 52.5,45 C48.36,45 45,41.64 45,37.5 C45,33.36 48.36,30 52.5,30 C54.43,30 56.17,30.75 57.5,31.945 C58.83,30.75 60.57,30 62.5,30 C66.64,30 70,33.36 70,37.5 C70,41.64 66.64,45 62.5,45 Z" id="Shape"></path>
            <path d="M75,0 L5,0 C2.245,0 0,2.245 0,5 L0,10 L80,10 L80,5 C80,2.245 77.76,0 75,0 Z" id="Shape"></path>
        </g>
    </g>
</svg>