<?xml version="1.0" encoding="UTF-8"?>
<svg width="20px" height="20px" viewBox="0 0 20 20" version="1.1" xmlns="http://www.w3.org/2000/svg" xmlns:xlink="http://www.w3.org/1999/xlink">
    <!-- Generator: Sketch 52.6 (67491) - http://www.bohemiancoding.com/sketch -->
    <title>Shape</title>
    <desc>Created with Sketch.</desc>
    <g id="Page-1" stroke="none" stroke-width="1" fill="none" fill-rule="evenodd">
        <g id="Home" transform="translate(-570.000000, -651.000000)" fill="#000000" fill-rule="nonzero">
            <g id="Group-190-copy" transform="translate(-1.000000, 85.000000)">
                <g id="Group-7" transform="translate(372.000000, 552.000000)">
                    <g id="Group-9" transform="translate(199.000000, 14.000000)">
                        <g id="Group-10">
                            <g id="more-circular-symbol">
                                <path d="M20,10 C20,4.4772549 15.5227124,0 10,0 C4.4772549,0 0,4.4772549 0,10 C0,15.5227124 4.4772549,20 10,20 C15.5227124,20 20,15.5227124 20,10 Z M15.4545425,8.18183007 C16.4581699,8.18183007 17.2727451,8.99637255 17.2727451,10 C17.2727451,11.0036275 16.4581699,11.8182026 15.4545425,11.8182026 C14.45,11.8182026 13.6363399,11.0045752 13.6363399,10 C13.6363399,8.99542484 14.45,8.18183007 15.4545425,8.18183007 Z M4.54545752,11.8182026 C3.54091503,11.8182026 2.72728758,11.0045752 2.72728758,10 C2.72728758,8.99542484 3.54091503,8.18183007 4.54545752,8.18183007 C5.54908497,8.18183007 6.36362745,8.99637255 6.36362745,10 C6.36362745,11.0036275 5.54908497,11.8182026 4.54545752,11.8182026 Z M8.18183007,10 C8.18183007,8.99545752 8.99545752,8.18183007 10,8.18183007 C11.0036275,8.18183007 11.8182026,8.99637255 11.8182026,10 C11.8182026,11.0036275 11.0036275,11.8182026 10,11.8182026 C8.99545752,11.8182026 8.18183007,11.0045425 8.18183007,10 Z" id="Shape"></path>
                            </g>
                        </g>
                    </g>
                </g>
            </g>
        </g>
    </g>
</svg>