<?xml version="1.0" encoding="UTF-8"?>
<svg width="32px" height="32px" viewBox="0 0 32 32" version="1.1" xmlns="http://www.w3.org/2000/svg" xmlns:xlink="http://www.w3.org/1999/xlink">
    <!-- Generator: Sketch 52.6 (67491) - http://www.bohemiancoding.com/sketch -->
    <title>edit</title>
    <desc>Created with Sketch.</desc>
    <g id="Page-1" stroke="none" stroke-width="1" fill="none" fill-rule="evenodd">
        <g id="EDIT" transform="translate(-943.000000, -354.000000)" fill="#FFFFFF">
            <g id="edit" transform="translate(943.000000, 354.000000)">
                <path d="M31.0441754,19.3478403 C30.581479,19.3478403 30.2064791,19.7228403 30.2064791,20.1855367 L30.2064791,27.6236911 C30.2048429,29.0107984 29.0808246,30.135144 27.6933901,30.1367801 L4.18848168,30.1367801 C2.80104712,30.135144 1.67702877,29.0107984 1.67539267,27.6236911 L1.67539267,5.79417541 C1.67702877,4.40674086 2.80104712,3.28272251 4.18848168,3.28108641 L11.6263089,3.28108641 C12.0890052,3.28108641 12.4640052,2.90608637 12.4640052,2.44339007 C12.4640052,1.9806937 12.0890052,1.60569374 11.6263089,1.60569374 L4.18848168,1.60569374 C1.87630894,1.60831154 0.00261780105,3.4820026 0,5.79417541 L0,27.6236911 C0.00261780105,29.9358639 1.87630894,31.8095549 4.18848168,31.8121727 L27.6933901,31.8121727 C30.0055628,31.8095549 31.8792539,29.9358639 31.8818717,27.6236911 L31.8818717,20.1858639 C31.8818717,19.7231675 31.5068717,19.3478403 31.0441754,19.3478403 Z" id="Path"></path>
                <polygon id="Path" points="13.098822 14.9397906 25.3301701 2.70811518 29.2748691 6.65281416 17.0435209 18.8844895"></polygon>
                <polygon id="Path" points="11.1030759 20.8802356 15.4623691 19.6727749 12.3105366 16.5209424"></polygon>
                <path d="M30.3655105,0.634816754 C29.5471204,-0.181609969 28.2221859,-0.181609969 27.4037958,0.634816754 L26.5153796,1.52323301 L30.4600786,5.46793198 L31.3484947,4.57951573 C32.1652487,3.7611257 32.1652487,2.43619108 31.3484947,1.61780105 L30.3655105,0.634816754 Z" id="Path"></path>
            </g>
        </g>
    </g>
</svg>