<?xml version="1.0" encoding="utf-8"?>
<!-- Generator: Adobe Illustrator 19.2.0, SVG Export Plug-In . SVG Version: 6.00 Build 0)  -->
<svg version="1.1" id="Layer_1" xmlns="http://www.w3.org/2000/svg" xmlns:xlink="http://www.w3.org/1999/xlink" x="0px" y="0px"
	 viewBox="0 0 1280 436" style="enable-background:new 0 0 1280 436;" xml:space="preserve">
<style type="text/css">
	.st0{fill:#1A1A1A;}
	.st1{fill:#333333;}
</style>
<g>
	<path class="st0" d="M0,0h1280v436H0V0z"/>
	<path class="st1" d="M592.5,130.5h135v135c0,22.1-17.9,40-40,40h-135v-135C552.5,148.4,570.4,130.5,592.5,130.5z"/>
	<path class="st0" d="M640,164.5c-29.5,0-53.5,24-53.5,53.5s23.9,53.5,53.5,53.5c29.5,0,53.5-23.9,53.5-53.5
		C693.5,188.5,669.5,164.5,640,164.5z M640,262.6c-24.6,0-44.6-19.9-44.6-44.6c0-24.6,19.9-44.6,44.6-44.6c24.6,0,44.5,20,44.5,44.6
		C684.6,242.6,664.6,262.6,640,262.6z"/>
	<path class="st0" d="M655.7,215.8l-22.2-16.2c-0.8-0.6-1.9-0.7-2.8-0.2c-0.9,0.5-1.5,1.4-1.5,2.4v32.3c0,1,0.6,1.9,1.5,2.4
		c0.4,0.2,0.8,0.3,1.2,0.3c0.5,0,1.1-0.2,1.6-0.5l22.2-16.1c0.7-0.5,1.1-1.3,1.1-2.2S656.4,216.3,655.7,215.8z"/>
</g>
</svg>
