<svg xmlns="http://www.w3.org/2000/svg" xmlns:xlink="http://www.w3.org/1999/xlink" preserveAspectRatio="xMidYMid" width="42" height="39.5" viewBox="0 0 42 39.5">
  <defs>
    <style>
      .cls-1 {
        stroke: #fff;
        stroke-width: 2px;
        fill: none;
        fill-rule: evenodd;
      }
    </style>
  </defs>
  <path d="M40.774,22.382 C40.314,23.506 39.230,24.240 38.027,24.240 L35.720,24.240 L35.720,34.395 C35.720,36.544 33.999,38.286 31.875,38.286 C31.875,38.286 27.322,38.834 26.000,38.156 C24.906,37.595 25.000,35.785 25.000,35.785 L25.000,28.156 C25.000,27.051 24.105,26.156 23.000,26.156 L19.000,26.156 C17.895,26.156 17.000,27.051 17.000,28.156 C17.000,28.156 17.000,32.752 17.000,35.752 C17.000,39.020 10.124,38.286 10.124,38.286 C8.000,38.286 6.279,36.544 6.279,34.395 L6.279,24.240 L3.972,24.240 C2.770,24.240 1.686,23.507 1.225,22.382 C0.765,21.258 1.020,19.964 1.870,19.103 L18.897,1.870 C20.058,0.695 21.941,0.695 23.102,1.870 L40.129,19.103 C40.980,19.964 41.234,21.258 40.774,22.382 Z" class="cls-1"/>
</svg>
