<?xml version="1.0" encoding="UTF-8"?>
<svg width="162px" height="159px" viewBox="0 0 162 159" version="1.1" xmlns="http://www.w3.org/2000/svg" xmlns:xlink="http://www.w3.org/1999/xlink">
    <!-- Generator: Sketch 52.6 (67491) - http://www.bohemiancoding.com/sketch -->
    <title>Artboard</title>
    <desc>Created with Sketch.</desc>
    <g id="Artboard" stroke="none" stroke-width="1" fill="none" fill-rule="evenodd">
        <circle id="Oval" stroke="#E6E6E6" stroke-width="7" fill-opacity="0.12" fill="#FFFFFF" cx="80.5" cy="79.5" r="70"></circle>
        <path d="M102.575017,76.4537164 L102.564067,76.4467569 L71.1587301,55.9095991 C70.8470246,55.7169911 70.4793407,55.6016194 70.0359475,55.5451925 C69.697674,55.5021433 69.4092456,55.4953238 68.8137093,55.5029453 C68.6305769,55.505289 68.561601,55.5059726 68.4685415,55.5059726 C66.9301036,55.5059726 66.1075192,56.0635556 65.7313583,57.019291 C65.5482869,57.4844319 65.4999456,57.9087928 65.5000005,58.495551 C65.500001,58.5003236 65.500001,58.5003236 65.5000011,58.5050484 L65.5000011,100.494803 C65.500001,100.498763 65.500001,100.498763 65.5000006,100.502772 C65.4999402,101.066726 65.5551537,101.514414 65.757096,101.998422 C66.1507816,102.941993 66.9729135,103.49409 68.4685415,103.49409 C68.5613064,103.49409 68.6300752,103.494766 68.8126069,103.497085 C69.4083102,103.504653 69.6968187,103.497815 70.0352206,103.454763 C70.4789806,103.398306 70.846926,103.282893 71.1479103,103.097131 L102.574789,82.5463617 C102.880901,82.3573135 103.148225,82.159751 103.379103,81.9550021 C104.316244,81.1239181 104.572652,80.3027495 104.489319,79.6518011 C104.486097,79.6266331 104.483774,79.6140502 104.484063,79.6152712 L104.45671,79.4998994 L104.484075,79.3845304 C104.483787,79.3857466 104.486114,79.3731504 104.48934,79.3479616 C104.572696,78.6971446 104.31644,77.8762096 103.379732,77.0453736 C103.148769,76.8405153 102.881313,76.6428527 102.575017,76.4537164 Z" id="Path" stroke="#FFFFFF" fill="#FFFFFF"></path>
    </g>
</svg>