<?xml version="1.0" encoding="utf-8"?>
<!-- Generator: Adobe Illustrator 19.2.0, SVG Export Plug-In . SVG Version: 6.00 Build 0)  -->
<svg version="1.1" id="Layer_1" xmlns="http://www.w3.org/2000/svg" xmlns:xlink="http://www.w3.org/1999/xlink" x="0px" y="0px"
	 viewBox="0 0 128 128" style="enable-background:new 0 0 128 128;" xml:space="preserve">
<style type="text/css">
	.st0{fill-rule:evenodd;clip-rule:evenodd;fill:#444CC5;}
	.st1{fill:#FFFFFF;}
</style>
<g>
	<path class="st0" d="M64,0c35.3,0,64,28.7,64,64c0,35.3-28.7,64-64,64S0,99.3,0,64C0,28.7,28.7,0,64,0z"/>
	<path class="st1" d="M64,54.4c-3.3,0-6,2.7-6,6.1v36.5c0,3.4,2.7,6.1,6,6.1c3.3,0,6-2.7,6-6.1V60.4C70,57.1,67.3,54.4,64,54.4z"/>
	<path class="st1" d="M64,26c-4.4,0-8,3.6-8,8.1c0,4.5,3.6,8.1,8,8.1c4.4,0,8-3.6,8-8.1C72,29.6,68.4,26,64,26z"/>
</g>
</svg>
