<?xml version="1.0" encoding="utf-8"?>
<!-- Generator: Adobe Illustrator 22.0.1, SVG Export Plug-In . SVG Version: 6.00 Build 0)  -->
<svg version="1.1" id="Layer_1" xmlns="http://www.w3.org/2000/svg" xmlns:xlink="http://www.w3.org/1999/xlink" x="0px" y="0px"
	 viewBox="0 0 1122 205.2" style="enable-background:new 0 0 1122 205.2;" xml:space="preserve">
<style type="text/css">
	.st0{fill:#FFFFFF;}
</style>
<g>
	<path class="st0" d="M390.9,112.8c-6.2,7.8-12.3,15.7-18.5,23.5c-4.6,5.8-5.1,5.8-9.7-0.2c-4.5-5.7-16.2-20.4-18.3-22.9
		c-0.1-0.1-0.3-0.1-0.3,0.1c0,3.5-0.1,24.6,0,32.8c0,3.4-1.1,3.9-6.2,4.1c-5.3,0.3-10.1,0.3-16.5,0.1c-5.2-0.1-5.7-1.4-5.7-4.7
		c0-28.8,0.1-57.7,0-86.5c0-3.4,1.3-5,4.7-4.8c0.2,0,0.3,0,0.5,0c17.6-0.6,17.6-0.6,26.6,14.7c5.2,8.7,10.4,17.4,15.5,26.2
		c4.2,7,5,7,9,0.2c7.3-12.3,14.7-24.5,21.9-36.9c1.7-2.9,3.7-4.3,7.1-4.2c4.5,0.2,9,0.1,13.6,0c3.7-0.1,5,1.5,5,5.1
		c-0.1,28.7-0.1,57.3,0,86c0,3.8-1.1,5-5.9,5.1c-6,0.1-11.3,0.1-17.1,0c-4.5,0-5.6-1.3-5.6-5.1c0.2-10.8,0-21.7,0.1-32.5
		C391,112.8,391,112.8,390.9,112.8z"/>
	<path class="st0" d="M625.1,120.5c0,0.8-0.1,1.7,0,2.5c2,9.6-3.2,15.1-10.5,19.9c-29.6,19.8-70,7.7-81.4-24.5
		c-10.2-28.9,9.8-60.7,41-65.2c15-2.2,28.8,0.8,41.2,9.7c4.7,3.4,4.7,4.3,0.7,8.4c-3.6,3.7-7.5,7.1-10.9,11c-3,3.4-5.7,3.4-9.5,1.2
		c-11.8-6.9-26.1-3.2-32.6,8.1c-5,8.6-3.6,19.5,3.5,26.7c7.1,7.3,18.5,9.3,27.1,5c2.3-1.2,2.4-2.7,2.4-4.8
		c-0.2-15.3-0.7-13.1,13.6-13.2c3.3,0,6.7,0.1,10,0c3.8-0.2,5.6,1.4,5.4,5.3C625,113.8,625.1,117.2,625.1,120.5z"/>
	<path class="st0" d="M445.9,102.6c0-14.2,0.1-28.3-0.1-42.5c-0.1-4.4,1.5-5.9,5.8-5.9c20.2,0.1,40.3,0.1,60.5,0
		c4.1,0,5.7,1.6,5.5,5.6c-0.2,4.2-0.2,8.3,0,12.5c0.1,3.6-1.2,5.1-4.9,5c-10.8-0.2-21.7-0.1-32.5-0.1c-6.2,0-6.3,0.1-6.2,7.1
		c0,6.2,0.2,6.4,6.5,6.4c4.7,0,9.3,0.1,14,0c2.8-0.1,3.9,1.1,3.9,3.8c-0.1,4.8-0.1,9.6,0,14.5c0.1,3.5-1.3,4.8-4.7,4.7
		c-5-0.1-10,0.1-15-0.1c-3.4-0.1-4.7,1-4.8,4.5c0,9-0.2,9,8.7,9c10.3,0,20.7,0.1,31-0.1c4.3-0.1,6,1.4,5.7,5.8
		c-0.3,4.3-0.2,8.7,0,13c0.1,3.3-1.3,4.3-4.4,4.3c-21.3-0.1-42.6-0.1-64,0c-3.7,0-5-1.3-4.9-4.9C446,131.3,445.9,117,445.9,102.6z"
		/>
	<path class="st0" d="M1099.7,38.9c-106.8,0-213.6,0-320.4,0c-14.3,0-22.2,8-22.3,22.3c0,27.5,0.4,55-0.2,82.5
		c-0.3,12.7,7.1,24.1,24,23.9c52.8-0.5,105.6-0.2,158.5-0.2c53.5,0,107,0,160.5,0c14.4,0,22.2-7.9,22.2-22.2c0-28,0-56,0-84
		C1121.9,46.8,1114.1,38.9,1099.7,38.9z M859.6,99.9c-3,15.3-14.4,24.8-31.6,26c-4.5,0.3-9,0.4-13.5,0.1c-3.3-0.2-3.9,1-3.7,3.9
		c0.2,4.7,0.1,9.3,0.1,14c-0.1,6.2-2.3,8.5-8.3,8.7c-3.3,0.1-6.7,0-10,0c-7.1-0.1-9-2.1-9-9.4c0-13.5,0-27,0-40.5
		c0-13.5,0-27,0-40.5c0-6.7,2.3-9.1,9-9c13,0.2,26-0.9,38.9,0.7c17.6,2.2,28.4,14.3,28.8,31.9C860.2,90.6,860.5,95.3,859.6,99.9z
		 M921.5,152.6c-13.8,0-27.6,0-41.5,0c-7.7,0-9.5-1.9-9.5-9.4c0-13.5,0-27,0-40.5c0-13.5,0-27,0-40.5c0-6.7,2.3-8.9,9-9c3,0,6,0,9,0
		c7,0.1,9.3,2.3,9.3,9.2c0,21.1,0.1,42.3-0.1,63.4c0,4.3,5.3,5.1,5.3,5.1s16-0.1,24-0.1c5.7,0,7.9,2.2,8,7.7
		C935.3,151.7,934.4,152.6,921.5,152.6z M1022.1,152.6c-2,0-4,0-6,0c-2,0-4,0-6,0c-4.9,0-8.3-2.1-9.6-7c0-0.2-0.2-0.3-0.2-0.4
		c-1.3-3.9-1.4-9.3-4.1-11.4c-3.2-2.5-22.8-2.1-25.7,0c-2.7,1.8-2.8,7.4-4.1,11.4c-1.9,5.8-4,7.4-10.2,7.5c-4.2,0.1-8.3,0.2-12.5,0
		c-4.7-0.2-6.7-2.9-5.1-7.4c10-28.5,20.1-56.9,30.2-85.3c0.2-0.6,0.5-1.2,0.8-1.8c4.9-7.6,19.2-4.7,19.2-4.7s7.7,2.4,9.3,6.9
		c10,28,20.1,55.9,30.1,83.8C1030.3,149.9,1028.4,152.5,1022.1,152.6z M1097.1,61.7c-8.3,17.2-16.6,34.4-25.1,51.5
		c-1.5,3.1-2.3,6.1-2.2,9.5c0.2,7,0.1,14,0,21c0,6.7-2.3,8.9-9,8.9c-3.2,0-6.3,0-9.5,0c-6.7-0.1-8.8-2.2-8.8-9.1
		c0-6.8-0.1-13.7,0-20.5c0.1-3.4-0.7-6.5-2.3-9.5c-8.3-16.8-16.6-33.6-24.8-50.5c-3.5-7.2-1.8-9.6,6.3-9.6
		c20.1-0.2,17.5-0.5,24.6,16.2c3.3,7.8,6.5,15.6,10.1,24.1c4.7-11.1,9.1-21.7,13.4-32.2c2.8-6.6,4.9-8.1,12-8.1c3.3,0,6.7-0.1,10,0
		C1097.9,53.4,1099.7,56.3,1097.1,61.7z"/>
	<path class="st0" d="M283.2,126.9c-14.8-31.8-29.6-63.6-44.4-95.4C228,8.6,203.2-3.9,178.4,1.1c-14.2,2.9-25.3,10.5-34,22.3
		c-1.2-1.4-2.2-2.7-3.3-4C116-10.5,67.7-5,50.8,30.2c-15.7,32.6-30.9,65.5-46,98.5c-10.9,23.9-2.7,52,18.8,66.8
		c21.5,14.8,50.7,12.1,69.2-6.3c2.3-2.3,4.3-4.9,6.5-7.3c0.5,0.4,0.7,0.6,1,0.8c23.6,29.4,62.7,30,87,1c2.9-3.4,3.4-0.4,4.4,0.9
		c18.1,21.6,48.3,26.7,71.6,11.9C286.7,181.8,295.1,152.6,283.2,126.9z M79.1,162.2c-7.3,13.4-22.6,19.2-36,12.9
		c-13.5-6.3-19.3-22-13-35.9c7.9-17.2,16-34.3,24.4-52.3c8.5,18.1,16.1,35.8,25,52.9C83.7,148,83.4,154.4,79.1,162.2z M171.2,150.1
		c0,13-8.4,23.8-20.4,26.8c-11.9,2.9-25-2.5-30.3-13.8C105,130.5,89.6,97.7,74.6,64.8C68.5,51.5,74.9,36,88,29.9
		c13.5-6.2,29.3-0.9,35.6,12.5c15.2,32.3,30.2,64.7,45.3,97C170.5,143,171.4,146.7,171.2,150.1z M261.1,150.5
		c-0.1,12.9-8.8,23.8-20.8,26.5c-12.7,2.9-25.1-3.2-30.9-15.5C194.6,129.7,179.8,98,165,66.2c-7.7-16.6,1.7-34.8,19.6-38.4
		c11.2-2.2,23.4,3.4,28.4,14c15.5,32.7,30.7,65.6,46,98.5C260.6,143.6,261.3,147.2,261.1,150.5z"/>
	<path class="st0" d="M735,144.3c-10-25.3-19.8-50.7-29.9-76c-6.8-17-2.2-13.4-20.1-13.9c-3,0-6,0.3-9-0.1c-5-0.6-7.4,1.5-9.2,6.2
		c-6.1,16.5-12.7,32.8-19.1,49.2c-4.4,11.3-8.9,22.6-13.2,33.9c-1.9,4.8-0.6,6.8,4.2,6.9c3.2,0.1,6.3,0,9.5,0
		c13.5,0,13.6,0,18.3-12.6c0.9-2.5,2-3.4,4.6-3.3c5.5,0.2,11,0,16.5,0.1c4.5,0,9.7-1.2,13.2,0.7c3.4,1.8,3.4,7.5,5,11.5
		c0.8,2,1.7,3.6,4.1,3.7c7.2,0,14.3,0.2,21.5-0.1C735.3,150.3,736.5,148,735,144.3z M674,113c3.4-9.5,6.7-18.6,10.5-29
		c3.7,10.2,7.1,19.4,10.6,29C687.7,113,681.1,113,674,113z"/>
	<path class="st0" d="M811.4,75.5c4.4-2,9.9-1,15.1-0.9c7,0.1,6.5,7.5,6.5,15.2c0,5.6,0.2,10.6-6.1,13c-4.5,1.7-9.6,1.4-14.4,1.5
		c-2.2,0-1.6-1.7-1.6-2.9c-0.1-3.2,0.1-18.4,0.2-23.9C811,76.5,811,75.7,811.4,75.5z"/>
	<path class="st0" d="M990.2,112c0,0-9.3,0-14,0c1-3.8,7.2-22.1,7.2-22.1L990.2,112z"/>
</g>
</svg>
