<?xml version="1.0" encoding="UTF-8"?>
<svg width="235px" height="183px" viewBox="0 0 235 183" version="1.1" xmlns="http://www.w3.org/2000/svg" xmlns:xlink="http://www.w3.org/1999/xlink">
    <!-- Generator: Sketch 52.6 (67491) - http://www.bohemiancoding.com/sketch -->
    <title>Artboard</title>
    <desc>Created with Sketch.</desc>
    <g id="Artboard" stroke="none" stroke-width="1" fill="none" fill-rule="evenodd">
        <g id="Group" transform="translate(9.000000, 11.000000)" fill="#FFFFFF">
            <path d="M171.739292,112.514486 L144.688343,54.5087338 C139.923823,43.6053808 129.607463,36.1551693 117.758976,35.0610338 C105.91049,33.9668984 94.404257,39.4019265 87.7236181,49.2483889 C81.8485443,40.6112579 72.2083962,35.2917475 61.7689028,34.9263704 L61.5401921,34.9263704 C61.2562755,34.9263704 60.9723588,34.9263704 60.6884421,34.9263704 L59.7341667,34.9263704 L59.4423634,34.9263704 C46.9380153,35.4312605 35.8149512,43.0190634 30.7825532,54.4771875 L3.73160417,112.48294 C-3.04429157,127.944735 3.06738174,146.022945 17.8353185,154.201449 C32.6032553,162.379953 51.1697184,157.968531 60.6805556,144.02135 C66.7659842,152.975988 76.8936638,158.332712 87.7203855,158.323234 C98.5471072,158.313757 108.665393,152.939309 114.735134,143.97403 C124.213701,157.9688 142.797907,162.429954 157.596433,154.26292 C172.394959,146.095886 178.527153,127.994207 171.739292,112.514486 Z M48.6140972,132.183602 C45.0076316,140.459307 35.3752289,144.244474 27.0995234,140.638009 C18.8238178,137.031543 15.0386507,127.399141 18.6451157,119.123435 L33.6296065,87.0408519 L51.6425417,125.685065 L48.6140972,132.183602 Z M94.2458148,140.59069 C85.9852017,144.200384 76.3617887,140.438537 72.7391273,132.183602 L45.6960648,74.1778495 C43.5101154,69.2211694 43.929306,63.5023816 46.8146627,58.9174312 C49.7000194,54.3324808 54.6745538,51.480418 60.0890625,51.3067847 L61.2799352,51.3067847 C67.864823,51.5157656 73.6715572,55.680789 75.9805093,61.8511343 L102.684449,119.123435 C106.260235,127.379972 102.492408,136.974011 94.2537014,140.59069 L94.2458148,140.59069 Z M148.3556,140.59069 C140.092776,144.200958 130.466975,140.439556 126.841025,132.183602 L99.7900764,74.1778495 C96.170544,65.9130329 99.936291,56.2788645 108.201108,52.6593322 C116.465924,49.0397998 126.100093,52.8055468 129.719625,61.0703634 L156.778461,119.123435 C160.355218,127.377823 156.591252,136.971002 148.3556,140.59069 Z" id="Shape" fill-rule="nonzero"></path>
            <path d="M175.824537,0.966782407 C174.535054,0.997308006 173.275017,1.35848232 172.165167,2.01569676 C169.865534,3.42176626 168.452719,5.9135664 168.426931,8.60887269 L168.426931,45.0369583 C168.458053,47.7370989 169.868475,50.2336051 172.165167,51.653794 C174.500013,53.0177038 177.381441,53.0476875 179.744164,51.7326597 L211.124843,33.4752407 C213.499512,32.1128669 214.963995,29.5842964 214.963995,26.8465752 C214.963995,24.108854 213.499512,21.5802836 211.124843,20.2179097 L179.744164,1.98415046 C178.538029,1.31935766 177.177776,0.98473547 175.800877,1.01410185 L175.824537,0.966782407 Z" id="Path"></path>
        </g>
    </g>
</svg>