<svg xmlns="http://www.w3.org/2000/svg" xmlns:xlink="http://www.w3.org/1999/xlink" preserveAspectRatio="xMidYMid" width="143" height="143" viewBox="0 0 143 143">
  <defs>
    <style>
      .cls-1 {
        fill: #fff;
        fill-rule: evenodd;
      }
    </style>
  </defs>
  <path d="M140.536,89.997 C135.595,108.437 123.769,123.849 107.236,133.394 C96.223,139.752 84.000,143.000 71.616,143.000 C65.407,143.000 59.159,142.184 53.002,140.534 C34.561,135.593 19.149,123.766 9.604,107.234 C0.058,90.701 -2.477,71.441 2.464,53.001 C7.404,34.561 19.231,19.149 35.764,9.603 C52.297,0.058 71.558,-2.478 89.998,2.463 C108.438,7.404 123.850,19.231 133.396,35.763 C142.941,52.296 145.477,71.556 140.536,89.997 ZM126.950,39.484 C118.398,24.673 104.591,14.079 88.071,9.652 C82.557,8.174 76.957,7.443 71.396,7.443 C60.300,7.443 49.352,10.353 39.485,16.049 C24.674,24.601 14.079,38.408 9.653,54.927 C5.226,71.447 7.497,88.702 16.049,103.513 C24.600,118.324 38.407,128.919 54.928,133.345 C71.448,137.771 88.702,135.500 103.513,126.948 C118.325,118.397 128.920,104.590 133.346,88.070 C137.773,71.550 135.501,54.296 126.950,39.484 ZM102.000,83.000 C95.925,83.000 91.000,78.075 91.000,72.000 C91.000,65.925 95.925,61.000 102.000,61.000 C108.075,61.000 113.000,65.925 113.000,72.000 C113.000,78.075 108.075,83.000 102.000,83.000 ZM72.000,83.000 C65.925,83.000 61.000,78.075 61.000,72.000 C61.000,65.925 65.925,61.000 72.000,61.000 C78.075,61.000 83.000,65.925 83.000,72.000 C83.000,78.075 78.075,83.000 72.000,83.000 ZM42.000,83.000 C35.925,83.000 31.000,78.075 31.000,72.000 C31.000,65.925 35.925,61.000 42.000,61.000 C48.075,61.000 53.000,65.925 53.000,72.000 C53.000,78.075 48.075,83.000 42.000,83.000 Z" class="cls-1"/>
</svg>
