<?xml version="1.0" encoding="utf-8"?>
<!-- Generator: Adobe Illustrator 19.2.0, SVG Export Plug-In . SVG Version: 6.00 Build 0)  -->
<svg version="1.1" id="Layer_1" xmlns="http://www.w3.org/2000/svg" xmlns:xlink="http://www.w3.org/1999/xlink" x="0px" y="0px"
	 viewBox="0 0 145 145" style="enable-background:new 0 0 145 145;" xml:space="preserve">
<style type="text/css">
	.st0{fill-rule:evenodd;clip-rule:evenodd;fill:#444CC5;}
	.st1{fill:#FFFFFF;}
</style>
<g>
	<path class="st0" d="M42.6,61.9c6.2,0,11.2,5,11.2,11.2s-5,11.2-11.2,11.2s-11.2-5-11.2-11.2S36.4,61.9,42.6,61.9z"/>
	<path class="st0" d="M73,61.9c6.2,0,11.2,5,11.2,11.2s-5,11.2-11.2,11.2c-6.2,0-11.2-5-11.2-11.2S66.8,61.9,73,61.9z"/>
	<path class="st0" d="M103.4,61.9c6.2,0,11.2,5,11.2,11.2s-5,11.2-11.2,11.2s-11.2-5-11.2-11.2S97.3,61.9,103.4,61.9z"/>
	<path class="st1" d="M135.3,36.3c-9.7-16.8-25.3-28.8-44-33.8c-18.7-5-38.2-2.4-55,7.2C19.5,19.4,7.5,35,2.5,53.7
		c-5,18.7-2.4,38.2,7.2,55c9.7,16.8,25.3,28.8,44,33.8c6.2,1.7,12.6,2.5,18.9,2.5c12.6,0,25-3.3,36.1-9.7
		c16.8-9.7,28.8-25.3,33.8-44C147.5,72.6,144.9,53,135.3,36.3z M135.2,89.3c-4.5,16.8-15.2,30.8-30.2,39.4c-15,8.7-32.5,11-49.3,6.5
		C38.9,130.7,24.9,120,16.3,105c-8.7-15-11-32.5-6.5-49.3C14.3,38.9,25,24.9,40,16.3c10-5.8,21.1-8.7,32.4-8.7
		c5.6,0,11.3,0.7,16.9,2.2c16.8,4.5,30.8,15.2,39.4,30.2C137.4,55.1,139.7,72.6,135.2,89.3z"/>
</g>
</svg>
