<svg xmlns="http://www.w3.org/2000/svg" xmlns:xlink="http://www.w3.org/1999/xlink" preserveAspectRatio="xMidYMid" width="32" height="36" viewBox="0 0 32 36">
  <defs>
    <style>
      .cls-1 {
        fill: #fff;
        fill-rule: evenodd;
      }
    </style>
  </defs>
  <path d="M31.960,0.741 C31.754,0.160 31.176,-0.130 30.599,0.078 L10.226,6.962 C9.814,7.086 9.484,7.501 9.484,7.998 L9.484,27.406 C8.494,26.701 7.216,26.286 5.814,26.286 C4.247,26.286 2.844,26.784 1.813,27.613 C0.700,28.484 -0.001,29.728 -0.001,31.097 C0.040,32.507 0.700,33.751 1.813,34.663 C2.844,35.493 4.288,35.990 5.814,35.990 C7.381,35.990 8.783,35.493 9.814,34.663 C10.927,33.792 11.629,32.548 11.629,31.180 C11.629,31.138 11.629,31.138 11.629,31.097 L11.629,17.536 L29.815,11.357 L29.815,20.481 C28.826,19.817 27.547,19.402 26.186,19.402 C24.619,19.402 23.217,19.900 22.186,20.729 C21.072,21.600 20.371,22.844 20.371,24.213 C20.371,25.581 21.072,26.825 22.186,27.696 C23.217,28.526 24.660,29.023 26.186,29.023 C27.753,29.023 29.156,28.526 30.186,27.696 C31.300,26.825 32.001,25.581 32.001,24.213 L32.001,1.073 C32.001,0.948 32.001,0.824 31.960,0.741 ZM8.494,32.963 C7.834,33.502 6.886,33.834 5.814,33.834 C4.741,33.834 3.793,33.502 3.133,32.963 C2.515,32.465 2.143,31.843 2.143,31.138 C2.185,30.433 2.556,29.811 3.133,29.314 C3.793,28.775 4.741,28.443 5.814,28.443 C6.886,28.443 7.834,28.775 8.494,29.314 C9.113,29.811 9.484,30.433 9.484,31.138 C9.484,31.843 9.113,32.465 8.494,32.963 ZM11.629,15.255 L11.629,8.745 L29.815,2.566 L29.815,9.076 L11.629,15.255 ZM28.867,26.079 C28.207,26.618 27.258,26.950 26.186,26.950 C25.114,26.950 24.166,26.618 23.506,26.079 C22.887,25.581 22.516,24.959 22.516,24.254 C22.516,23.549 22.887,22.927 23.506,22.430 C24.166,21.891 25.114,21.559 26.186,21.559 C27.258,21.559 28.207,21.891 28.867,22.430 C29.485,22.927 29.857,23.549 29.857,24.254 C29.815,24.959 29.444,25.581 28.867,26.079 Z" class="cls-1"/>
</svg>
