<svg xmlns="http://www.w3.org/2000/svg" xmlns:xlink="http://www.w3.org/1999/xlink" preserveAspectRatio="xMidYMid" width="33" height="33" viewBox="0 0 33 33">
  <defs>
    <style>
      .cls-1 {
        fill: #fff;
        fill-rule: evenodd;
      }
    </style>
  </defs>
  <path d="M32.443,20.768 C31.303,25.023 28.574,28.580 24.759,30.783 C22.218,32.250 19.397,32.999 16.539,32.999 C15.107,32.999 13.665,32.811 12.244,32.430 C7.989,31.290 4.432,28.561 2.229,24.746 C0.027,20.931 -0.558,16.486 0.582,12.231 C1.722,7.976 4.451,4.419 8.266,2.217 C12.081,0.014 16.526,-0.571 20.781,0.569 C25.036,1.709 28.593,4.438 30.796,8.253 C32.998,12.069 33.583,16.513 32.443,20.768 ZM24.426,14.943 L13.822,8.821 C13.259,8.496 12.587,8.496 12.024,8.821 C11.462,9.146 11.126,9.728 11.126,10.377 L11.126,22.622 C11.126,23.272 11.462,23.854 12.024,24.178 C12.306,24.341 12.614,24.422 12.923,24.422 C13.232,24.422 13.540,24.341 13.822,24.178 L24.426,18.056 C24.989,17.731 25.324,17.149 25.324,16.500 C25.324,15.850 24.988,15.268 24.426,14.943 Z" class="cls-1"/>
</svg>
