<?xml version="1.0" encoding="utf-8"?>
<!-- Generator: Adobe Illustrator 19.2.0, SVG Export Plug-In . SVG Version: 6.00 Build 0)  -->
<svg version="1.1" id="Layer_1" xmlns="http://www.w3.org/2000/svg" xmlns:xlink="http://www.w3.org/1999/xlink" x="0px" y="0px"
	 viewBox="0 0 300 450" style="enable-background:new 0 0 300 450;" xml:space="preserve">
<style type="text/css">
	.st0{fill:#1A1A1A;}
	.st1{fill:#333333;}
</style>
<g>
	<path class="st0" d="M0,0h300v450H0V0z"/>
	<path class="st1" d="M103,138h135v135c0,22.1-17.9,40-40,40H63V178C63,155.9,80.9,138,103,138z"/>
	<path class="st0" d="M150.5,172C121,172,97,196,97,225.5s24,53.5,53.5,53.5s53.5-24,53.5-53.5C204,195.9,180,172,150.5,172z
		 M150.5,270.1c-24.6,0-44.6-19.9-44.6-44.6c0-24.6,19.9-44.6,44.6-44.6c24.6,0,44.5,20,44.5,44.6
		C195.1,250.1,175.1,270.1,150.5,270.1z"/>
	<path class="st0" d="M168.1,223.4l-22.2-16.2c-0.8-0.6-1.9-0.7-2.8-0.2c-0.9,0.5-1.5,1.4-1.5,2.4v32.3c0,1,0.6,1.9,1.5,2.4
		c0.4,0.2,0.8,0.3,1.2,0.3c0.5,0,1.1-0.2,1.6-0.5l22.2-16.1c0.7-0.5,1.1-1.3,1.1-2.2C169.3,224.7,168.8,223.9,168.1,223.4z"/>
</g>
</svg>
