<?xml version="1.0" encoding="UTF-8"?>
<svg width="15px" height="15px" viewBox="0 0 15 15" version="1.1" xmlns="http://www.w3.org/2000/svg" xmlns:xlink="http://www.w3.org/1999/xlink">
    <!-- Generator: Sketch 52.6 (67491) - http://www.bohemiancoding.com/sketch -->
    <title>Forma 1</title>
    <desc>Created with Sketch.</desc>
    <g id="Page-1" stroke="none" stroke-width="1" fill="none" fill-rule="evenodd">
        <g id="03_Details" transform="translate(-232.000000, -365.000000)" fill="#FFFFFF">
            <g id="Group-2" transform="translate(60.000000, 348.000000)">
                <path d="M185.836105,23.6369 C186.096895,23.36393 186.18895,22.963325 186.076465,22.59098 C185.96371,22.218575 185.670055,21.95276 185.30923,21.896375 L182.101255,21.39572 C181.964635,21.37442 181.846555,21.282215 181.785565,21.1493 L180.351385,18.027665 C180.19033,17.67692 179.863495,17.458895 179.499235,17.458895 C179.135215,17.458895 178.80838,17.67692 178.647325,18.027665 L177.212875,21.14948 C177.151855,21.28256 177.033535,21.374585 176.896915,21.39596 L173.68894,21.8966 C173.328385,21.95276 173.034445,22.21886 172.92172,22.591265 C172.80922,22.96367 172.90129,23.36435 173.16208,23.63729 L175.483165,26.067065 C175.58209,26.17073 175.627465,26.3201 175.60414,26.46596 L175.056535,29.897075 C175.00801,30.199115 175.08175,30.4928 175.263745,30.724415 C175.546585,31.08536 176.040265,31.1954 176.43505,30.97271 L179.30398,29.35256 C179.423875,29.28506 179.574835,29.285645 179.69449,29.35256 L182.56366,30.97271 C182.70325,31.051505 182.85205,31.091405 183.00568,31.091405 C183.28609,31.091405 183.55189,30.957515 183.734695,30.724415 C183.91696,30.4928 183.990475,30.198425 183.941875,29.897075 L183.39403,26.46596 C183.370705,26.319875 183.41605,26.17073 183.515035,26.067065 L185.836105,23.6369 Z" id="Forma-1"></path>
            </g>
        </g>
    </g>
</svg>