<svg xmlns="http://www.w3.org/2000/svg" xmlns:xlink="http://www.w3.org/1999/xlink" preserveAspectRatio="xMidYMid" width="33.031" height="33" viewBox="0 0 33.031 33">
  <defs>
    <style>
      .cls-1 {
        fill: #fff;
        fill-rule: evenodd;
      }
    </style>
  </defs>
  <path d="M32.329,14.949 C32.980,14.289 33.209,13.319 32.929,12.418 C32.647,11.517 31.915,10.874 31.016,10.737 L23.017,9.526 C22.676,9.474 22.382,9.251 22.230,8.929 L18.654,1.375 C18.252,0.526 17.438,-0.001 16.529,-0.001 C15.622,-0.001 14.807,0.526 14.405,1.375 L10.829,8.930 C10.676,9.252 10.382,9.475 10.041,9.526 L2.042,10.738 C1.143,10.874 0.410,11.518 0.129,12.419 C-0.151,13.320 0.078,14.290 0.729,14.950 L6.516,20.830 C6.763,21.081 6.876,21.443 6.818,21.796 L5.452,30.099 C5.331,30.830 5.515,31.541 5.969,32.101 C6.674,32.975 7.905,33.241 8.889,32.702 L16.042,28.781 C16.341,28.618 16.718,28.619 17.016,28.781 L24.170,32.702 C24.518,32.893 24.889,32.989 25.272,32.989 C25.971,32.989 26.634,32.665 27.090,32.101 C27.544,31.541 27.727,30.828 27.606,30.099 L26.240,21.796 C26.182,21.442 26.295,21.081 26.542,20.830 L32.329,14.949 Z" class="cls-1"/>
</svg>
