<?xml version="1.0" encoding="utf-8"?>
<!-- Generator: Adobe Illustrator 19.2.0, SVG Export Plug-In . SVG Version: 6.00 Build 0)  -->
<svg version="1.1" id="Layer_1" xmlns="http://www.w3.org/2000/svg" xmlns:xlink="http://www.w3.org/1999/xlink" x="0px" y="0px"
	 viewBox="0 0 128 128" style="enable-background:new 0 0 128 128;" xml:space="preserve">
<style type="text/css">
	.st0{fill:#444CC5;}
	.st1{fill:#FFFFFF;}
</style>
<g>
	<path class="st0" d="M64,0c35.3,0,64,28.7,64,64s-28.7,64-64,64S0,99.3,0,64S28.7,0,64,0z"/>
	<path class="st1" d="M98.5,60.6c1.4-1.5,1.9-3.6,1.3-5.6c-0.6-2-2.2-3.4-4.2-3.7l-17.5-2.7c-0.7-0.1-1.4-0.6-1.7-1.3l-7.8-16.8
		c-0.9-1.9-2.7-3.1-4.6-3.1c-2,0-3.8,1.2-4.6,3.1l-7.8,16.8c-0.3,0.7-1,1.2-1.7,1.3l-17.5,2.7c-2,0.3-3.6,1.7-4.2,3.7
		c-0.6,2-0.1,4.2,1.3,5.6l12.7,13c0.5,0.6,0.8,1.4,0.7,2.1l-3,18.4c-0.3,1.6,0.1,3.2,1.1,4.4c1.5,1.9,4.2,2.5,6.4,1.3l15.6-8.7
		c0.7-0.4,1.5-0.4,2.1,0l15.6,8.7c0.8,0.4,1.6,0.6,2.4,0.6c1.5,0,3-0.7,4-2c1-1.2,1.4-2.8,1.1-4.4l-3-18.4c-0.1-0.8,0.1-1.6,0.7-2.1
		L98.5,60.6z"/>
</g>
</svg>
