<?xml version="1.0" encoding="utf-8"?>
<!-- Generator: Adobe Illustrator 22.0.1, SVG Export Plug-In . SVG Version: 6.00 Build 0)  -->
<svg version="1.1" id="Layer_1" xmlns="http://www.w3.org/2000/svg" xmlns:xlink="http://www.w3.org/1999/xlink" x="0px" y="0px"
	 viewBox="0 0 128 128" enable-background="new 0 0 128 128" xml:space="preserve">
<g>
	<path fill-rule="evenodd" clip-rule="evenodd" fill="#444CC5" d="M64,0c35.346,0,64,28.654,64,64c0,35.346-28.654,64-64,64
		S0,99.346,0,64C0,28.654,28.654,0,64,0z"/>
	<path fill="#FFFFFF" d="M58.546,58.975c-0.165-1.77-1.591-3.361-3.664-3.35c-5.553,0.029-11.106,0.01-16.659,0.01
		c-2.882,0-5.765,0.001-8.647,0c-0.683,0-1.322,0.165-1.886,0.549c-1.143,0.777-1.682,1.888-1.684,3.247
		c-0.009,5.628-0.004,11.257-0.004,16.885c0,5.636,0.001,11.273,0,16.909c0,1.934,1.433,3.828,3.778,3.778
		c2.433-0.052,4.869-0.011,7.303-0.011c5.944,0,11.888-0.002,17.832,0.002c0.897,0.001,1.696-0.252,2.369-0.851
		c0.906-0.807,1.295-1.84,1.295-3.033c0.001-11.151,0-22.302,0-33.453C58.577,59.428,58.567,59.202,58.546,58.975z M42.28,95.412
		c-0.795,0-1.38-0.588-1.378-1.386c0.002-0.777,0.593-1.368,1.37-1.371c0.807-0.003,1.411,0.593,1.405,1.389
		C43.671,94.836,43.083,95.413,42.28,95.412z M53.864,89.607c-7.719-0.006-15.437-0.006-23.156,0.001
		c-0.231,0-0.27-0.068-0.269-0.279c0.006-4.832,0.005-9.664,0.005-14.497c0-4.832,0.002-9.664-0.005-14.496
		c0-0.22,0.053-0.274,0.274-0.274c7.719,0.006,15.437,0.006,23.156,0c0.228,0,0.274,0.062,0.273,0.278
		c-0.005,9.664-0.006,19.328,0.001,28.993C54.143,89.559,54.083,89.607,53.864,89.607z"/>
	<path fill="#FFFFFF" d="M102.998,68.411c0-0.399-0.04-0.793-0.141-1.18c-0.42-1.609-1.82-2.744-3.47-2.735
		c-4.536,0.023-9.072,0.008-13.608,0.008c-1,0-1.833,0.386-2.503,1.114c-0.722,0.785-1.013,1.73-1.012,2.785
		c0.005,4.102,0.002,8.204,0.002,12.306c0,4.118,0,8.236,0,12.355c0,0.309,0.013,0.616,0.071,0.921
		c0.317,1.659,1.675,3.015,3.543,3.01c4.503-0.012,9.007-0.005,13.51-0.003c0.613,0,1.2-0.118,1.727-0.434
		c1.304-0.783,1.876-1.977,1.877-3.46C103,84.867,102.998,76.639,102.998,68.411z M98.3,89.607c-3.778-0.007-7.555-0.007-11.333,0
		c-0.205,0-0.27-0.035-0.27-0.259c0.007-6.716,0.007-13.432,0-20.148c0-0.232,0.069-0.273,0.283-0.272
		c3.77,0.006,7.539,0.007,11.309-0.001c0.219,0,0.277,0.05,0.276,0.273c-0.008,3.362-0.006,6.724-0.006,10.086
		c0,3.354-0.002,6.708,0.006,10.062C98.566,89.567,98.508,89.608,98.3,89.607z"/>
	<path fill="#444CC5" d="M92.632,95.413c-0.797,0.001-1.39-0.585-1.392-1.374c-0.002-0.784,0.594-1.379,1.387-1.384
		c0.786-0.005,1.388,0.592,1.388,1.379C94.016,94.826,93.428,95.412,92.632,95.413z"/>
	<path fill="#FFFFFF" d="M64.49,32.001c7.85,0,15.699,0,23.549,0c2.193,0,4.158,0.658,5.839,2.071
		c1.782,1.498,2.826,3.41,3.124,5.722c0.051,0.396,0.068,0.793,0.068,1.19c0.002,6.757,0,13.515,0.008,20.273
		c0,0.242-0.066,0.289-0.296,0.287c-1.791-0.01-3.583-0.01-5.374,0c-0.216,0.001-0.267-0.053-0.267-0.267
		c0.006-6.741,0.001-13.483,0.009-20.224c0.001-1.085-0.385-1.958-1.265-2.599c-0.478-0.348-1.023-0.519-1.615-0.54
		c-0.098-0.003-0.195-0.005-0.293-0.005c-15.65,0-31.301,0.001-46.951-0.003c-1.201,0-2.143,0.446-2.778,1.48
		c-0.314,0.513-0.409,1.08-0.409,1.674c0.003,3.769-0.001,7.537,0.007,11.306c0,0.242-0.044,0.324-0.309,0.321
		c-1.791-0.014-3.583-0.009-5.374-0.003c-0.181,0.001-0.248-0.031-0.248-0.235c0.007-3.866-0.005-7.732,0.008-11.598
		c0.015-4.272,3.061-7.916,7.246-8.696c0.617-0.115,1.241-0.156,1.869-0.156C48.855,32.002,56.673,32.001,64.49,32.001z"/>
	<path fill="#FFFFFF" d="M70.416,91.076c-2.874,0-5.748-0.003-8.622,0.005c-0.216,0.001-0.266-0.052-0.266-0.266
		c0.007-4.743,0.007-9.486,0.001-14.229c0-0.215,0.043-0.284,0.275-0.283c5.74,0.007,11.48,0.008,17.221,0
		c0.244,0,0.287,0.068,0.286,0.295c-0.01,1.787-0.009,3.573,0,5.36c0.001,0.209-0.042,0.27-0.263,0.269
		c-2.785-0.009-5.569-0.002-8.354-0.012c-0.243-0.001-0.288,0.066-0.284,0.293c0.015,0.796,0.018,1.592-0.001,2.387
		c-0.006,0.246,0.071,0.281,0.295,0.281c2.776-0.008,5.553-0.003,8.329-0.011c0.22-0.001,0.28,0.051,0.278,0.275
		c-0.01,1.787-0.012,3.574,0.001,5.36c0.002,0.248-0.075,0.281-0.297,0.281C76.148,91.074,73.282,91.076,70.416,91.076z"/>
</g>
</svg>
