<?xml version="1.0" encoding="utf-8"?>
<!-- Generator: Adobe Illustrator 19.2.0, SVG Export Plug-In . SVG Version: 6.00 Build 0)  -->
<svg version="1.1" id="Layer_1" xmlns="http://www.w3.org/2000/svg" xmlns:xlink="http://www.w3.org/1999/xlink" x="0px" y="0px"
	 viewBox="0 0 77.3 77.3" style="enable-background:new 0 0 77.3 77.3;" xml:space="preserve">
<style type="text/css">
	.st0{fill:#333333;}
	.st1{fill:#333333;stroke:#000000;stroke-width:2;}
	.st2{stroke:#000000;}
</style>
<g>
	<path class="st0" d="M15.5,0h61.8v61.8c0,8.5-6.9,15.5-15.5,15.5H0V15.5C0,6.9,6.9,0,15.5,0z"/>
	<path d="M58.7,29.2h-17l8-8c0.6-0.6,0.6-1.6,0-2.3c-0.6-0.6-1.6-0.6-2.3,0l-8.8,8.8L27,16.2c-0.6-0.6-1.6-0.6-2.3,0
		c-0.6,0.6-0.6,1.6,0,2.3l10.9,10.8h-17c-0.9,0-1.6,0.7-1.6,1.6v24c0,0.9,0.7,1.6,1.6,1.6H32v1.3l-6.5,2.9c-0.8,0.4-1.2,1.3-0.8,2.1
		c0.3,0.6,0.9,0.9,1.5,0.9c0.2,0,0.4,0,0.7-0.1l7.1-3.2h9.3l7.1,3.2c0.2,0.1,0.4,0.1,0.7,0.1c0.6,0,1.2-0.4,1.5-0.9
		c0.4-0.8,0-1.8-0.8-2.1l-6.5-2.9v-1.3h13.4c0.9,0,1.6-0.7,1.6-1.6v-24C60.3,29.9,59.6,29.2,58.7,29.2z M42,57.1h-6.8v-0.7H42V57.1z
		 M58.2,54.1H19.1l0.1-22.7h38.9L58.2,54.1z"/>
	<path d="M45.5,42.7c0,0.3-0.2,0.6-0.5,0.8l-8.3,4.7c-0.3,0.2-0.6,0.2-0.9,0c-0.3-0.2-0.5-0.5-0.5-0.8V38c0-0.3,0.2-0.6,0.5-0.8
		s0.6-0.2,0.9,0l8.3,4.7C45.3,42.1,45.5,42.4,45.5,42.7z"/>
	<path class="st1" d="M61.5,46.2c3.8,0,6.9,3.1,6.9,6.9S65.3,60,61.5,60c-3.8,0-6.9-3.1-6.9-6.9S57.7,46.2,61.5,46.2z"/>
	<path class="st2" d="M64.7,55.5L63.3,54l0,0c0.3-0.4,0.5-1,0.5-1.5c0-1.5-1.2-2.8-2.8-2.8c-1.5,0-2.8,1.2-2.8,2.8
		c0,1.5,1.2,2.8,2.8,2.8c0.6,0,1.1-0.2,1.5-0.5l0,0l1.5,1.5c0.2,0.2,0.6,0.2,0.8,0C64.9,56,64.9,55.7,64.7,55.5z M60.9,54.3
		c-1,0-1.8-0.8-1.8-1.8s0.8-1.8,1.8-1.8s1.8,0.8,1.8,1.8S61.9,54.3,60.9,54.3z"/>
</g>
</svg>
