<?xml version="1.0" encoding="utf-8"?>
<!-- Generator: Adobe Illustrator 19.2.0, SVG Export Plug-In . SVG Version: 6.00 Build 0)  -->
<svg version="1.1" id="Layer_1" xmlns="http://www.w3.org/2000/svg" xmlns:xlink="http://www.w3.org/1999/xlink" x="0px" y="0px"
	 viewBox="0 0 31 31" style="enable-background:new 0 0 31 31;" xml:space="preserve">
<style type="text/css">
	.st0{fill:#FFFFFF;}
</style>
<path class="st0" d="M30.3,26.9l-6.4-6.4c1.5-2.2,2.3-4.7,2.3-7.4c0-1.8-0.3-3.5-1-5.1c-0.7-1.6-1.6-3-2.8-4.2
	c-1.2-1.2-2.6-2.1-4.2-2.8c-1.6-0.7-3.3-1-5.1-1C11.3,0,9.6,0.3,8,1C6.4,1.7,5,2.7,3.8,3.8C2.7,5,1.7,6.4,1,8c-0.7,1.6-1,3.3-1,5.1
	c0,1.8,0.3,3.5,1,5.1c0.7,1.6,1.6,3,2.8,4.2C5,23.6,6.4,24.5,8,25.2c1.6,0.7,3.3,1,5.1,1c2.7,0,5.2-0.8,7.4-2.3l6.4,6.4
	c0.4,0.5,1,0.7,1.7,0.7c0.6,0,1.2-0.2,1.7-0.7c0.5-0.5,0.7-1,0.7-1.7C31,28,30.8,27.4,30.3,26.9z M19,19c-1.6,1.6-3.6,2.4-5.9,2.4
	c-2.3,0-4.3-0.8-5.9-2.4c-1.6-1.6-2.5-3.6-2.5-5.9c0-2.3,0.8-4.3,2.5-5.9c1.6-1.6,3.6-2.5,5.9-2.5c2.3,0,4.3,0.8,5.9,2.5
	c1.6,1.6,2.5,3.6,2.5,5.9C21.5,15.4,20.6,17.4,19,19z"/>
</svg>
