<svg xmlns="http://www.w3.org/2000/svg" xmlns:xlink="http://www.w3.org/1999/xlink" preserveAspectRatio="xMidYMid" width="128" height="128" viewBox="0 0 128 128">
  <defs>
    <style>
      .cls-1 {
        fill: #fff;
        fill-rule: evenodd;
      }
    </style>
  </defs>
  <path d="M108.217,46.502 C108.883,47.504 110.012,48.128 111.245,48.132 L112.134,48.132 C120.883,48.132 128.001,55.251 128.001,64.000 C128.001,72.749 120.883,79.867 112.134,79.867 L111.653,79.867 C110.216,79.873 108.903,80.742 108.329,82.082 C108.322,82.098 108.315,82.115 108.308,82.132 C107.704,83.500 107.985,85.073 109.022,86.147 L109.319,86.443 C115.507,92.624 115.512,102.691 109.329,108.881 C106.326,111.887 102.342,113.540 98.104,113.543 C98.101,113.543 98.098,113.543 98.095,113.543 C93.859,113.543 89.878,111.894 86.881,108.902 L86.575,108.595 C85.501,107.557 83.927,107.276 82.560,107.880 C82.543,107.887 82.526,107.895 82.509,107.902 C81.170,108.476 80.301,109.788 80.294,111.246 L80.294,112.134 C80.294,120.883 73.177,128.001 64.427,128.001 C55.678,128.001 48.560,120.883 48.560,112.134 L48.560,111.725 C48.506,110.235 47.572,108.945 46.170,108.429 C46.067,108.391 45.967,108.351 45.867,108.307 C44.499,107.703 42.926,107.984 41.853,109.022 L41.556,109.319 C35.380,115.503 25.324,115.513 19.133,109.343 C19.125,109.335 19.118,109.328 19.111,109.321 C16.112,106.325 14.459,102.342 14.457,98.103 C14.455,93.870 16.099,89.889 19.088,86.892 C19.095,86.885 19.102,86.878 19.108,86.870 L19.405,86.574 C20.443,85.500 20.724,83.927 20.120,82.559 C20.113,82.543 20.105,82.526 20.098,82.509 C19.524,81.169 18.212,80.300 16.755,80.294 L15.866,80.294 C7.117,80.294 -0.002,73.177 -0.002,64.428 C-0.002,55.678 7.117,48.561 15.865,48.561 L16.274,48.561 C17.763,48.507 19.054,47.572 19.569,46.170 C19.607,46.068 19.648,45.967 19.692,45.867 C20.295,44.500 20.015,42.926 18.977,41.852 L18.680,41.556 C15.684,38.563 14.031,34.579 14.029,30.341 C14.026,26.103 15.674,22.117 18.670,19.119 C21.674,16.111 25.657,14.459 29.895,14.457 C29.898,14.457 29.902,14.457 29.905,14.457 C34.140,14.457 38.121,16.104 41.118,19.098 L41.425,19.405 C42.498,20.443 44.072,20.724 45.439,20.120 C45.781,19.969 46.137,19.856 46.501,19.782 C47.504,19.116 48.127,17.987 48.133,16.754 L48.133,15.865 C48.133,7.116 55.251,-0.001 63.999,-0.001 C72.749,-0.001 79.867,7.116 79.867,15.865 L79.867,16.347 C79.872,17.783 80.742,19.096 82.081,19.670 C82.098,19.677 82.115,19.684 82.132,19.692 C83.500,20.296 85.073,20.015 86.147,18.977 L86.443,18.681 C89.436,15.684 93.420,14.031 97.658,14.028 C97.661,14.028 97.664,14.028 97.667,14.028 C101.902,14.028 105.884,15.676 108.880,18.670 C108.888,18.677 108.896,18.686 108.904,18.694 C111.893,21.687 113.540,25.665 113.543,29.895 C113.545,34.134 111.897,38.120 108.902,41.118 C108.894,41.126 108.887,41.133 108.878,41.141 L108.595,41.424 C107.557,42.499 107.276,44.072 107.879,45.440 C108.030,45.781 108.143,46.138 108.217,46.502 ZM63.999,42.785 C52.301,42.785 42.784,52.302 42.784,64.000 C42.784,75.698 52.301,85.215 63.999,85.215 C75.698,85.215 85.215,75.698 85.215,64.000 C85.215,52.302 75.697,42.785 63.999,42.785 Z" class="cls-1"/>
</svg>
