<svg xmlns="http://www.w3.org/2000/svg" xmlns:xlink="http://www.w3.org/1999/xlink" preserveAspectRatio="xMidYMid" width="42" height="42" viewBox="0 0 42 42">
  <defs>
    <style>
      .cls-1 {
        stroke: #fff;
        stroke-width: 2px;
        fill: none;
        fill-rule: evenodd;
      }
    </style>
  </defs>
  <path d="M34.818,15.532 C35.026,15.845 35.379,16.040 35.764,16.041 L36.042,16.041 C38.776,16.041 41.000,18.266 41.000,21.000 C41.000,23.734 38.776,25.958 36.042,25.958 L35.891,25.958 C35.442,25.960 35.032,26.232 34.853,26.651 C34.850,26.656 34.848,26.661 34.846,26.666 C34.657,27.094 34.745,27.585 35.069,27.921 L35.162,28.013 C37.096,29.945 37.097,33.091 35.165,35.025 C34.227,35.965 32.982,36.481 31.657,36.482 C31.656,36.482 31.655,36.482 31.654,36.482 C30.331,36.482 29.087,35.967 28.150,35.032 L28.054,34.936 C27.719,34.611 27.227,34.523 26.800,34.712 C26.795,34.714 26.789,34.717 26.784,34.719 C26.366,34.898 26.094,35.309 26.092,35.764 L26.092,36.042 C26.092,38.776 23.868,41.000 21.134,41.000 C18.400,41.000 16.175,38.776 16.175,36.042 L16.175,35.914 C16.158,35.448 15.866,35.045 15.428,34.884 C15.396,34.872 15.365,34.859 15.333,34.846 C14.906,34.657 14.415,34.745 14.079,35.069 L13.986,35.162 C12.056,37.094 8.914,37.098 6.979,35.169 C6.977,35.167 6.975,35.165 6.972,35.163 C6.035,34.227 5.519,32.982 5.518,31.657 C5.517,30.334 6.031,29.090 6.965,28.153 C6.967,28.151 6.969,28.149 6.972,28.147 L7.064,28.054 C7.389,27.719 7.476,27.227 7.288,26.800 C7.285,26.795 7.283,26.789 7.281,26.784 C7.102,26.365 6.691,26.094 6.236,26.092 L5.958,26.092 C3.224,26.092 1.000,23.868 1.000,21.134 C1.000,18.399 3.224,16.175 5.958,16.175 L6.086,16.175 C6.551,16.158 6.954,15.866 7.116,15.428 C7.127,15.396 7.140,15.365 7.154,15.334 C7.342,14.906 7.255,14.415 6.930,14.079 L6.838,13.986 C5.901,13.051 5.385,11.806 5.384,10.482 C5.383,9.157 5.898,7.912 6.834,6.975 C7.773,6.035 9.018,5.519 10.342,5.518 C10.343,5.518 10.344,5.518 10.345,5.518 C11.669,5.518 12.913,6.033 13.849,6.968 L13.945,7.064 C14.281,7.388 14.772,7.476 15.200,7.288 C15.307,7.241 15.418,7.205 15.532,7.182 C15.845,6.974 16.040,6.621 16.042,6.236 L16.042,5.958 C16.042,3.224 18.266,1.000 21.000,1.000 C23.734,1.000 25.958,3.224 25.958,5.958 L25.958,6.109 C25.960,6.557 26.232,6.968 26.650,7.147 C26.656,7.149 26.661,7.152 26.666,7.154 C27.094,7.343 27.585,7.255 27.921,6.930 L28.013,6.838 C28.949,5.901 30.194,5.385 31.518,5.384 C31.519,5.384 31.520,5.384 31.521,5.384 C32.844,5.384 34.089,5.899 35.025,6.834 C35.027,6.837 35.030,6.839 35.032,6.842 C35.966,7.777 36.481,9.020 36.482,10.342 C36.483,11.667 35.968,12.912 35.032,13.850 C35.029,13.852 35.027,13.854 35.024,13.857 L34.936,13.945 C34.611,14.281 34.524,14.773 34.712,15.200 C34.759,15.307 34.795,15.418 34.818,15.532 ZM21.000,14.370 C17.344,14.370 14.370,17.344 14.370,21.000 C14.370,24.656 17.344,27.630 21.000,27.630 C24.655,27.630 27.630,24.656 27.630,21.000 C27.630,17.344 24.655,14.370 21.000,14.370 Z" class="cls-1"/>
</svg>
