<svg xmlns="http://www.w3.org/2000/svg" xmlns:xlink="http://www.w3.org/1999/xlink" preserveAspectRatio="xMidYMid" width="30" height="19" viewBox="0 0 30 19">
  <defs>
    <style>
      .cls-1 {
        fill: #fff;
        fill-rule: evenodd;
      }
    </style>
  </defs>
  <path d="M27.963,10.682 L1.268,10.682 C0.557,10.682 0.000,10.161 0.000,9.494 C0.000,8.827 0.557,8.306 1.268,8.306 L27.913,8.306 C29.056,8.306 29.950,8.827 30.000,9.494 C30.000,10.161 29.106,10.682 27.963,10.682 ZM28.732,2.386 L1.268,2.386 C0.557,2.386 0.000,1.864 0.000,1.197 C0.000,0.531 0.557,0.009 1.268,0.009 L28.701,0.009 C29.412,0.009 29.969,0.531 30.000,1.197 C30.000,1.864 29.443,2.386 28.732,2.386 ZM1.268,16.614 L28.354,16.614 C29.255,16.614 29.961,17.135 30.000,17.802 C30.000,18.469 29.295,18.990 28.393,18.990 L1.268,18.990 C0.557,18.990 0.000,18.469 0.000,17.802 C0.000,17.135 0.557,16.614 1.268,16.614 Z" class="cls-1"/>
</svg>
