<?xml version="1.0" encoding="utf-8"?>
<!-- Generator: Adobe Illustrator 19.2.0, SVG Export Plug-In . SVG Version: 6.00 Build 0)  -->
<svg version="1.1" id="Layer_1" xmlns="http://www.w3.org/2000/svg" xmlns:xlink="http://www.w3.org/1999/xlink" x="0px" y="0px"
	 viewBox="0 0 96 96" style="enable-background:new 0 0 96 96;" xml:space="preserve">
<style type="text/css">
	.st0{fill:#FFFFFF;}
</style>
<path class="st0" d="M87.5,53.4c-0.9,2.3-3.1,3.8-5.5,3.8h-4.6v20.9c0,4.4-3.4,8-7.7,8c0,0-9.1,1.1-11.7-0.3c-2.2-1.2-2-4.9-2-4.9
	V65.3c0-2.3-1.8-4.1-4-4.1h-8c-2.2,0-4,1.8-4,4.1c0,0,0,9.4,0,15.6c0,6.7-13.7,5.2-13.7,5.2c-4.2,0-7.7-3.6-7.7-8V57.2H14
	c-2.4,0-4.6-1.5-5.5-3.8c-0.9-2.3-0.4-5,1.3-6.7l34-35.4c2.3-2.4,6.1-2.4,8.4,0l34,35.4C88,48.5,88.5,51.1,87.5,53.4z"/>
</svg>
