<?xml version="1.0" encoding="utf-8"?>
<!-- Generator: Adobe Illustrator 19.2.0, SVG Export Plug-In . SVG Version: 6.00 Build 0)  -->
<svg version="1.1" id="Layer_1" xmlns="http://www.w3.org/2000/svg" xmlns:xlink="http://www.w3.org/1999/xlink" x="0px" y="0px"
	 viewBox="0 0 96 96" style="enable-background:new 0 0 96 96;" xml:space="preserve">
<style type="text/css">
	.st0{fill:#FFFFFF;stroke:#FFFFFF;stroke-width:2;}
</style>
<path class="st0" d="M80.5,8H57.9c-4.1,0-9.9,2.4-12.8,5.3L10.2,48.2c-2.9,2.9-2.9,7.7,0,10.6l27,26.9c2.9,2.9,7.7,2.9,10.6,0
	l34.9-34.9C85.6,48,88,42.2,88,38.1V15.5C88,11.4,84.6,8,80.5,8z M67.1,34.3c-3,0-5.5-2.4-5.5-5.5s2.4-5.5,5.5-5.5s5.5,2.4,5.5,5.5
	S70.1,34.3,67.1,34.3z"/>
</svg>
