<?xml version="1.0" encoding="utf-8"?>
<!-- Generator: Adobe Illustrator 19.2.0, SVG Export Plug-In . SVG Version: 6.00 Build 0)  -->
<svg version="1.1" id="Layer_1" xmlns="http://www.w3.org/2000/svg" xmlns:xlink="http://www.w3.org/1999/xlink" x="0px" y="0px"
	 viewBox="0 0 96 96" style="enable-background:new 0 0 96 96;" xml:space="preserve">
<style type="text/css">
	.st0{fill:#FFFFFF;}
</style>
<path class="st0" d="M75.1,37.1H58.9V20.9C58.9,14.3,54.6,10,48,10c-6.7,0-10.9,4.3-10.9,10.9v16.1H20.9C14.3,37.1,10,41.3,10,48
	c0,6.6,4.3,10.9,10.9,10.9h16.2v16.1C37.1,81.7,41.3,86,48,86c6.6,0,10.9-4.3,10.9-10.9V58.9h16.2C81.7,58.9,86,54.6,86,48
	C86,41.3,81.7,37.1,75.1,37.1z"/>
</svg>
