<?xml version="1.0" encoding="utf-8"?>
<!-- Generator: Adobe Illustrator 22.0.1, SVG Export Plug-In . SVG Version: 6.00 Build 0)  -->
<svg version="1.1" id="Layer_1" xmlns="http://www.w3.org/2000/svg" xmlns:xlink="http://www.w3.org/1999/xlink" x="0px" y="0px"
	 viewBox="0 0 750 877" style="enable-background:new 0 0 750 877;" xml:space="preserve">
<style type="text/css">
	.st0{fill:#1A1A1A;}
	.st1{fill:#333333;}
</style>
<path class="st0" d="M0,0h750v877H0V0z"/>
<path class="st1" d="M210.5,274h330v330h-330V274z"/>
<path class="st0" d="M375.5,338.1c-55.6,0-100.9,45.3-100.9,100.9s45.3,100.9,100.9,100.9S476.4,494.6,476.4,439
	C476.4,383.2,431.1,338.1,375.5,338.1z M375.5,523.1c-46.4,0-84.1-37.5-84.1-84.1c0-46.4,37.5-84.1,84.1-84.1
	c46.4,0,83.9,37.7,83.9,84.1C459.6,485.4,421.9,523.1,375.5,523.1z"/>
<path class="st0" d="M408.7,435l-41.9-30.5c-1.5-1.1-3.6-1.3-5.3-0.4c-1.7,0.9-2.8,2.6-2.8,4.5v60.9c0,1.9,1.1,3.6,2.8,4.5
	c0.8,0.4,1.5,0.6,2.3,0.6c0.9,0,2.1-0.4,3-0.9l41.9-30.4c1.3-0.9,2.1-2.5,2.1-4.1C411,437.5,410,436,408.7,435z"/>
</svg>
