<?xml version="1.0" encoding="UTF-8"?>
<svg width="17px" height="19px" viewBox="0 0 17 19" version="1.1" xmlns="http://www.w3.org/2000/svg" xmlns:xlink="http://www.w3.org/1999/xlink">
    <!-- Generator: Sketch 52.6 (67491) - http://www.bohemiancoding.com/sketch -->
    <title>Forma 1</title>
    <desc>Created with Sketch.</desc>
    <g id="Page-1" stroke="none" stroke-width="1" fill="none" fill-rule="evenodd">
        <g id="03_Details" transform="translate(-134.000000, -254.000000)" fill="#444CC5">
            <g id="Group-4" transform="translate(60.000000, 254.000000)">
                <path d="M90.525733,8.8492 C90.856067,8.48524 90.97267,7.9511 90.830189,7.45464 C90.687366,6.9581 90.315403,6.60368 89.858358,6.5285 L85.794923,5.86096 C85.621871,5.83256 85.472303,5.70962 85.395049,5.5324 L83.578421,1.37022 C83.374418,0.90256 82.960427,0.61186 82.499031,0.61186 C82.037939,0.61186 81.623948,0.90256 81.419945,1.37022 L79.602975,5.53264 C79.525683,5.71008 79.375811,5.83278 79.202759,5.86128 L75.139324,6.5288 C74.682621,6.60368 74.310297,6.95848 74.167512,7.45502 C74.025012,7.95156 74.141634,8.4858 74.471968,8.84972 L77.412009,12.08942 C77.537314,12.22764 77.594789,12.4268 77.565244,12.62128 L76.871611,17.1961 C76.810146,17.59882 76.90355,17.9904 77.134077,18.29922 C77.492341,18.78048 78.117669,18.9272 78.61773,18.63028 L82.251708,16.47008 C82.403575,16.38008 82.594791,16.38086 82.746354,16.47008 L86.380636,18.63028 C86.55745,18.73534 86.74593,18.78854 86.940528,18.78854 C87.295714,18.78854 87.632394,18.61002 87.863947,18.29922 C88.094816,17.9904 88.187935,17.5979 88.126375,17.1961 L87.432438,12.62128 C87.402893,12.4265 87.46033,12.22764 87.585711,12.08942 L90.525733,8.8492 Z" id="Forma-1"></path>
            </g>
        </g>
    </g>
</svg>