<?xml version="1.0" encoding="UTF-8"?>
<svg width="17px" height="19px" viewBox="0 0 17 19" version="1.1" xmlns="http://www.w3.org/2000/svg" xmlns:xlink="http://www.w3.org/1999/xlink">
    <!-- Generator: Sketch 52.6 (67491) - http://www.bohemiancoding.com/sketch -->
    <title>Forma 1</title>
    <desc>Created with Sketch.</desc>
    <g id="Page-1" stroke="none" stroke-width="1" fill="none" fill-rule="evenodd" fill-opacity="0.4">
        <g id="03_Details" transform="translate(-157.000000, -254.000000)" fill="#FFFFFF">
            <g id="Group-4" transform="translate(60.000000, 254.000000)">
                <path d="M113.525733,8.8492 C113.856067,8.48524 113.97267,7.9511 113.830189,7.45464 C113.687366,6.9581 113.315403,6.60368 112.858358,6.5285 L108.794923,5.86096 C108.621871,5.83256 108.472303,5.70962 108.395049,5.5324 L106.578421,1.37022 C106.374418,0.90256 105.960427,0.61186 105.499031,0.61186 C105.037939,0.61186 104.623948,0.90256 104.419945,1.37022 L102.602975,5.53264 C102.525683,5.71008 102.375811,5.83278 102.202759,5.86128 L98.139324,6.5288 C97.682621,6.60368 97.310297,6.95848 97.167512,7.45502 C97.025012,7.95156 97.141634,8.4858 97.471968,8.84972 L100.412009,12.08942 C100.537314,12.22764 100.594789,12.4268 100.565244,12.62128 L99.871611,17.1961 C99.810146,17.59882 99.90355,17.9904 100.134077,18.29922 C100.492341,18.78048 101.117669,18.9272 101.61773,18.63028 L105.251708,16.47008 C105.403575,16.38008 105.594791,16.38086 105.746354,16.47008 L109.380636,18.63028 C109.55745,18.73534 109.74593,18.78854 109.940528,18.78854 C110.295714,18.78854 110.632394,18.61002 110.863947,18.29922 C111.094816,17.9904 111.187935,17.5979 111.126375,17.1961 L110.432438,12.62128 C110.402893,12.4265 110.46033,12.22764 110.585711,12.08942 L113.525733,8.8492 Z" id="Forma-1"></path>
            </g>
        </g>
    </g>
</svg>