<svg xmlns="http://www.w3.org/2000/svg" xmlns:xlink="http://www.w3.org/1999/xlink" preserveAspectRatio="xMidYMid" width="33" height="29.688" viewBox="0 0 33 29.688">
  <defs>
    <style>
      .cls-1 {
        fill: #fff;
        fill-rule: evenodd;
      }
    </style>
  </defs>
  <path d="M29.333,-0.006 L3.667,-0.006 C1.650,-0.006 -0.000,1.665 -0.000,3.706 L-0.000,25.982 C-0.000,28.023 1.650,29.694 3.667,29.694 L29.333,29.694 C31.350,29.694 33.000,28.023 33.000,25.982 L33.000,3.706 C33.000,1.665 31.350,-0.006 29.333,-0.006 ZM14.667,12.988 L11.917,12.988 L11.917,12.060 L8.250,12.060 L8.250,17.628 L11.917,17.628 L11.917,16.700 L14.667,16.700 L14.667,18.556 C14.667,19.670 13.933,20.413 12.833,20.413 L7.333,20.413 C6.233,20.413 5.500,19.670 5.500,18.556 L5.500,11.132 C5.500,10.018 6.233,9.275 7.333,9.275 L12.833,9.275 C13.933,9.275 14.667,10.018 14.667,11.132 L14.667,12.988 ZM27.500,12.988 L24.750,12.988 L24.750,12.060 L21.083,12.060 L21.083,17.628 L24.750,17.628 L24.750,16.700 L27.500,16.700 L27.500,18.556 C27.500,19.670 26.767,20.413 25.667,20.413 L20.167,20.413 C19.067,20.413 18.333,19.670 18.333,18.556 L18.333,11.132 C18.333,10.018 19.067,9.275 20.167,9.275 L25.667,9.275 C26.767,9.275 27.500,10.018 27.500,11.132 L27.500,12.988 Z" class="cls-1"/>
</svg>
