<svg xmlns="http://www.w3.org/2000/svg" xmlns:xlink="http://www.w3.org/1999/xlink" preserveAspectRatio="xMidYMid" width="36" height="36.031" viewBox="0 0 36 36.031">
  <defs>
    <style>
      .cls-1 {
        stroke: #fff;
        stroke-width: 2px;
        fill: none;
        fill-rule: evenodd;
      }
    </style>
  </defs>
  <path d="M31.800,0.994 L22.222,0.994 C20.466,0.994 18.014,2.011 16.772,3.254 L1.937,18.103 C0.695,19.346 0.695,21.380 1.937,22.622 L13.384,34.081 C14.626,35.323 16.658,35.323 17.899,34.081 L32.735,19.231 C33.977,17.988 34.993,15.534 34.993,13.776 L34.993,4.190 C34.993,2.432 33.556,0.994 31.800,0.994 ZM26.110,12.184 C24.830,12.184 23.793,11.145 23.793,9.864 C23.793,8.583 24.830,7.545 26.110,7.545 C27.390,7.545 28.427,8.583 28.427,9.864 C28.427,11.145 27.390,12.184 26.110,12.184 Z" class="cls-1"/>
</svg>
