<?xml version="1.0" encoding="utf-8"?>
<!-- Generator: Adobe Illustrator 19.2.0, SVG Export Plug-In . SVG Version: 6.00 Build 0)  -->
<svg version="1.1" id="Layer_1" xmlns="http://www.w3.org/2000/svg" xmlns:xlink="http://www.w3.org/1999/xlink" x="0px" y="0px"
	 viewBox="0 0 128 128" style="enable-background:new 0 0 128 128;" xml:space="preserve">
<style type="text/css">
	.st0{fill:#444CC5;}
	.st1{fill:#FFFFFF;}
</style>
<g>
	<path class="st0" d="M64,0c35.3,0,64,28.7,64,64s-28.7,64-64,64S0,99.3,0,64S28.7,0,64,0z"/>
	<path class="st1" d="M42.9,49.3v-7.9c0-12.5,10-22.7,22.4-22.7s22.4,10.1,22.4,22.7v7.9c-3.6-1.7-7.4-2.9-11.2-3.6v-4.3
		c0-6.3-5-11.3-11.2-11.3s-11.2,5.1-11.2,11.3v4.3C50.2,46.4,46.5,47.6,42.9,49.3z M93.3,68.4c0,19.7-11.9,36.3-28.1,41
		c-16-4.7-27.9-21.2-27.9-41c0-5,0.7-9.7,2.1-14.2c15.9-9.6,35.7-9.6,51.7,0C92.6,58.6,93.3,63.4,93.3,68.4z M68.8,74
		c1.3-1.1,2.1-2.6,2.1-4.3c0-3.1-2.5-5.7-5.7-5.7c-3.1,0-5.7,2.6-5.7,5.7c0,1.7,0.9,3.3,2.1,4.3l-2.1,12.7h11.2L68.8,74z"/>
</g>
</svg>
