<?xml version="1.0" encoding="utf-8"?>
<!-- Generator: Adobe Illustrator 22.0.1, SVG Export Plug-In . SVG Version: 6.00 Build 0)  -->
<svg version="1.1" id="Layer_1" xmlns="http://www.w3.org/2000/svg" xmlns:xlink="http://www.w3.org/1999/xlink" x="0px" y="0px"
	 viewBox="0 0 799.3 319.6" style="enable-background:new 0 0 799.3 319.6;" xml:space="preserve">
<style type="text/css">
	.st0{fill:#FFFFFF;}
	.st1{font-family:'Gotham-BlackItalic';}
	.st2{font-size:69.9181px;}
</style>
<g>
	<g>
		<path class="st0" d="M721.9,71.9c-11.3,0-18.3,5.3-18.3,11.8c0,7,5,9.4,28.1,18.5c15.5,5.9,28.2,12.5,35.8,22.3l12.7-49.6
			l-13.9,15.4C753.6,79.1,738.9,71.9,721.9,71.9z"/>
		<path class="st0" d="M719.4,206l-23.6-38.8c3.9,0.7,7.8,1.1,11.9,1.1c11.1,0,19-4.8,19-12.5c0-6.7-4.6-9.8-28.1-19
			c-26.4-10.3-43.5-21.6-43.5-46.4c0-14.4,5.8-27.1,15.4-36.8c12.7-12.7,32.4-20.4,55.7-20.4c24.5,0,44.7,6.6,60.1,17.7l13-50.9
			h-178l-21.1,20.9h-39.5L580.3,0H59.8l-9.2,36.1h95.3H175h17.5l-11.1,41.1L158.4,163h15.4c19.7,0,37.2-6,48.3-17.1
			c8.9-8.9,14.4-21.9,14.4-35.3c0-10.3-3.1-17.8-8.4-23.1c-6-5.8-15.3-9.7-29.4-10.3l10.7-40.9c27.4,1.5,45.1,9.9,56.6,21.3
			c12.5,12.5,18.3,28.8,18.3,49.2c0,25.2-9.6,48.3-27.6,66.3c-20.2,20.2-49.2,31-88.2,31h-68L134.8,77h-23.1L77.6,204.3H31L65.1,77
			h-25L0,233.8h739.5l9.9-38.6C740.9,200.6,730.8,204.2,719.4,206z M442.2,204.3l25.9-96.6l-60.3,65.8h-1L382.2,108l-25.9,96.3
			h-46.1l45.4-168.2h46.8l22.3,65.1l57.2-65.1h52.4l-45.2,168.2H442.2z M676.4,204.3h-27.9l-8.7-15.7l-8.1-14.6h-3.7h-45l9.5-36.3
			H613l-26.3-48l-11.4,48l-17.1,66.5h-49.5l46.2-169.4h45.6l52.7,91.9l17.2,29.9l25.4,44.3l1.8,3.2H676.4z"/>
	</g>
</g>
<g>
	<text transform="matrix(1 0 0 1 281.0058 297.6593)" class="st0 st1 st2">ORIGINALES</text>
</g>
</svg>
