<?xml version="1.0" encoding="utf-8"?>
<!-- Generator: Adobe Illustrator 22.0.1, SVG Export Plug-In . SVG Version: 6.00 Build 0)  -->
<svg version="1.1" id="Layer_1" xmlns="http://www.w3.org/2000/svg" xmlns:xlink="http://www.w3.org/1999/xlink" x="0px" y="0px"
	 viewBox="0 0 799.3 319.6" style="enable-background:new 0 0 799.3 319.6;" xml:space="preserve">
<style type="text/css">
	.st0{fill:#FFFFFF;}
	.st1{enable-background:new    ;}
</style>
<g>
	<g>
		<path class="st0" d="M721.9,72.9c-11.3,0-18.3,5.3-18.3,11.8c0,7,5,9.4,28.1,18.5c15.5,5.9,28.2,12.5,35.8,22.3l12.7-49.6
			l-13.9,15.4C753.6,80.1,738.9,72.9,721.9,72.9z"/>
		<path class="st0" d="M719.4,207l-23.6-38.8c3.9,0.7,7.8,1.1,11.9,1.1c11.1,0,19-4.8,19-12.5c0-6.7-4.6-9.8-28.1-19
			c-26.4-10.3-43.5-21.6-43.5-46.4c0-14.4,5.8-27.1,15.4-36.8c12.7-12.7,32.4-20.4,55.7-20.4c24.5,0,44.7,6.6,60.1,17.7l13-50.9
			h-178l-21.1,20.9h-39.5L580.3,1H59.8l-9.2,36.1h95.3H175h17.5l-11.1,41.1l-23,85.8h15.4c19.7,0,37.2-6,48.3-17.1
			c8.9-8.9,14.4-21.9,14.4-35.3c0-10.3-3.1-17.8-8.4-23.1c-6-5.8-15.3-9.7-29.4-10.3l10.7-40.9c27.4,1.5,45.1,9.9,56.6,21.3
			c12.5,12.5,18.3,28.8,18.3,49.2c0,25.2-9.6,48.3-27.6,66.3c-20.2,20.2-49.2,31-88.2,31h-68L134.8,78h-23.1L77.6,205.3H31L65.1,78
			h-25L0,234.8h739.5l9.9-38.6C740.9,201.6,730.8,205.2,719.4,207z M442.2,205.3l25.9-96.6l-60.3,65.8h-1L382.2,109l-25.9,96.3
			h-46.1l45.4-168.2h46.8l22.3,65.1l57.2-65.1h52.4l-45.2,168.2H442.2z M676.4,205.3h-27.9l-8.7-15.7l-8.1-14.6H628h-45l9.5-36.3
			H613l-26.3-48l-11.4,48l-17.1,66.5h-49.5l46.2-169.4h45.6l52.7,91.9l17.2,29.9l25.4,44.3l1.8,3.2h-21.2V205.3z"/>
	</g>
</g>
<g>
	<g class="st1">
		<path class="st0" d="M337.1,270.7c0,7.6-3.1,15-8.5,20.4c-5.2,5.1-12.3,8.5-20.6,8.5c-14,0-23.4-9.5-23.4-22
			c0-7.6,3.1-15,8.5-20.3c5.2-5.2,12.3-8.5,20.6-8.5C327.8,248.8,337.1,258.3,337.1,270.7z M318.6,283.4c3-3,4.8-7.5,4.8-11.6
			c0-6.2-3.8-10.8-10.8-10.8c-3.7,0-6.9,1.5-9.3,3.9c-3,3.1-4.8,7.6-4.8,11.7c0,6.2,3.8,10.8,10.8,10.8
			C313,287.4,316.2,285.8,318.6,283.4z"/>
		<path class="st0" d="M360.7,283.8h-1.1h-4.9l-4,14.8h-13.6l13.2-48.9h18.5c8.1,0,13.5,1.7,16.8,5c2.6,2.6,3.8,6.2,3.8,10.1
			c0,4.6-1.5,8.7-4.6,11.8c-2.1,2.1-5.2,4.1-10.1,5.5l7.6,16.5h-15L360.7,283.8z M365.3,273.2c3.7,0,6.7-1,8.4-2.7
			c1.1-1.1,1.7-2.5,1.7-4.2c0-1.3-0.4-2.4-1.3-3.2c-1.1-1.1-3.1-1.7-5.9-1.7h-7.4l-3.2,11.8H365.3z"/>
		<path class="st0" d="M400.9,249.7h13.6l-13.1,48.9h-13.6L400.9,249.7z"/>
		<path class="st0" d="M414.5,278c0-7.7,3.1-14.9,8.5-20.2c5.5-5.5,13.5-9.1,23-9.1c9.8,0,16.8,4,20.2,8.3l-9.1,8.7
			c-2.8-2.9-6.9-5-12.1-5c-4.8,0-8.9,1.9-11.8,4.8c-3,3-4.8,7.3-4.8,12c0,6.9,5,10.4,11,10.4c2.8,0,4.9-0.6,6.5-1.3l2-6.6h-9.4
			l2.6-9.9h22.4l-7,24.7c-4.8,2.8-11,4.9-18.2,4.9C426.4,299.6,414.5,293.1,414.5,278z"/>
		<path class="st0" d="M476.9,249.7h13.6l-13.1,48.9h-13.6L476.9,249.7z"/>
		<path class="st0" d="M499.4,249.7h12.6l12.7,27.2l7.3-27.2h13.4l-13.1,48.9h-11.9l-13.2-28.2l-7.6,28.2h-13.5L499.4,249.7z"/>
		<path class="st0" d="M570.5,249.4h13.3l7.6,49.3h-14.3l-1.2-8.8H557l-5.9,8.8h-14.8L570.5,249.4z M574.9,279.3l-1.8-14l-9.2,14
			H574.9z"/>
		<path class="st0" d="M608.1,249.7h13.6l-9.9,37.1h23.4l-3.2,11.9h-37L608.1,249.7z"/>
		<path class="st0" d="M651.4,249.7h39.2l-3.1,11.5h-25.7l-2,7.5H683l-2.9,10.6h-23.4l-2.1,7.8h26.1l-3.1,11.5h-39.6L651.4,249.7z"
			/>
		<path class="st0" d="M684.1,290.5l8.7-9c4.8,4.4,9.7,6.6,15.1,6.6c3.2,0,5.5-1.4,5.5-3.6c0-2-1.3-2.9-8.2-5.5
			c-7.7-3-12.7-6.3-12.7-13.5c0-4.2,1.7-7.9,4.5-10.7c3.7-3.7,9.4-5.9,16.2-5.9c8.6,0,15.4,2.8,20.1,7.3l-8.4,9.3
			c-3.7-3.2-8-5.3-12.9-5.3c-3.3,0-5.3,1.5-5.3,3.4c0,2,1.5,2.7,8.2,5.4c7.6,2.9,12.7,6.3,12.7,13.6c0,4.4-1.7,8.2-4.5,11
			c-3.7,3.7-9.5,5.9-16.3,5.9C697.3,299.5,689.5,296.2,684.1,290.5z"/>
	</g>
</g>
</svg>
