<svg xmlns="http://www.w3.org/2000/svg" xmlns:xlink="http://www.w3.org/1999/xlink" preserveAspectRatio="xMidYMid" width="105.812" height="40" viewBox="0 0 105.812 40">
  <defs>
    <style>
      .cls-1 {
        fill: #fff;
        fill-rule: evenodd;
      }
    </style>
  </defs>
  <path d="M104.078,6.816 C102.044,5.338 99.369,4.452 96.124,4.452 C93.040,4.452 90.433,5.481 88.747,7.186 C87.475,8.472 86.712,10.177 86.712,12.107 C86.712,15.420 88.970,16.932 92.467,18.315 C95.583,19.537 96.188,19.955 96.188,20.856 C96.188,21.885 95.138,22.528 93.676,22.528 C93.143,22.528 92.620,22.477 92.104,22.380 L95.228,27.580 C96.731,27.345 98.078,26.853 99.195,26.144 L97.890,31.307 L0.012,31.307 L5.318,10.306 L8.631,10.306 L4.115,27.353 L10.284,27.353 L14.799,10.306 L17.858,10.306 L13.308,27.353 L22.306,27.353 C27.457,27.353 31.304,25.906 33.975,23.204 C36.360,20.791 37.632,17.704 37.632,14.326 C37.632,11.592 36.869,9.405 35.215,7.733 C33.695,6.195 31.342,5.079 27.722,4.875 L26.302,10.348 C28.167,10.423 29.398,10.948 30.192,11.721 C30.891,12.429 31.304,13.426 31.304,14.809 C31.304,16.610 30.573,18.347 29.397,19.537 C27.934,21.016 25.613,21.821 23.006,21.821 L20.971,21.821 L24.023,10.338 L25.495,4.838 L23.175,4.838 L19.317,4.838 L6.700,4.838 L7.922,0.000 L76.822,0.000 L74.231,2.794 L79.457,2.794 L82.245,0.000 L105.800,0.000 L104.078,6.816 ZM63.791,4.838 L56.223,13.554 L53.266,4.838 L47.066,4.838 L41.056,27.353 L47.161,27.353 L50.595,14.455 L53.870,23.236 L53.997,23.236 L61.978,14.423 L58.544,27.353 L64.744,27.353 L70.722,4.838 L63.791,4.838 ZM79.493,4.677 L73.452,4.677 L67.342,27.353 L73.892,27.353 L76.155,18.444 L77.660,12.011 L81.147,18.444 L78.441,18.444 L77.181,23.300 L83.141,23.300 L83.632,23.300 L84.698,25.251 L85.848,27.353 L89.537,27.353 L92.334,27.353 L92.092,26.924 L88.732,20.991 L86.462,16.983 L79.493,4.677 ZM63.965,33.185 C65.279,33.185 66.195,33.831 66.583,34.842 L65.029,35.685 C64.770,35.141 64.363,34.833 63.733,34.833 C63.233,34.833 62.780,35.048 62.438,35.394 C62.040,35.806 61.790,36.387 61.790,37.004 C61.790,37.837 62.336,38.352 63.085,38.352 C63.650,38.352 64.057,38.109 64.474,37.688 L65.686,38.774 C65.056,39.494 64.205,40.000 62.974,40.000 C61.189,40.000 59.911,38.886 59.911,37.126 C59.911,36.134 60.319,35.123 61.077,34.355 C61.762,33.662 62.762,33.185 63.965,33.185 ZM70.248,33.316 C71.321,33.316 72.034,33.550 72.469,33.990 C72.811,34.336 72.969,34.814 72.969,35.338 C72.969,35.956 72.774,36.508 72.358,36.920 C72.080,37.201 71.673,37.472 71.016,37.660 L72.025,39.869 L70.044,39.869 L69.184,37.884 L69.036,37.884 L68.388,37.884 L67.861,39.869 L66.056,39.869 L67.805,33.316 L70.248,33.316 ZM69.785,36.461 C70.276,36.461 70.674,36.330 70.896,36.106 C71.044,35.956 71.127,35.769 71.127,35.544 C71.127,35.366 71.072,35.226 70.951,35.113 C70.803,34.964 70.544,34.879 70.165,34.879 L69.184,34.879 L68.758,36.461 L69.785,36.461 ZM74.958,38.043 L74.468,39.869 L72.645,39.869 L73.135,38.043 L74.958,38.043 ZM79.520,33.185 C80.834,33.185 81.750,33.831 82.139,34.842 L80.584,35.685 C80.325,35.141 79.918,34.833 79.289,34.833 C78.789,34.833 78.336,35.048 77.993,35.394 C77.596,35.806 77.346,36.387 77.346,37.004 C77.346,37.837 77.892,38.352 78.641,38.352 C79.206,38.352 79.613,38.109 80.029,37.688 L81.242,38.774 C80.612,39.494 79.761,40.000 78.530,40.000 C76.744,40.000 75.467,38.886 75.467,37.126 C75.467,36.134 75.874,35.123 76.633,34.355 C77.318,33.662 78.317,33.185 79.520,33.185 ZM85.924,33.194 C87.775,33.194 89.015,34.467 89.015,36.125 C89.015,37.145 88.598,38.137 87.886,38.858 C87.201,39.541 86.257,39.991 85.165,39.991 C83.314,39.991 82.074,38.717 82.074,37.051 C82.074,36.031 82.491,35.048 83.203,34.327 C83.888,33.634 84.832,33.194 85.924,33.194 ZM85.322,38.362 C85.813,38.362 86.239,38.146 86.553,37.828 C86.951,37.426 87.192,36.826 87.192,36.274 C87.192,35.441 86.692,34.823 85.767,34.823 C85.276,34.823 84.851,35.029 84.536,35.347 C84.138,35.759 83.897,36.358 83.897,36.911 C83.897,37.744 84.397,38.362 85.322,38.362 ZM92.559,33.316 L93.420,35.853 L95.622,33.316 L97.639,33.316 L95.900,39.869 L94.095,39.869 L95.095,36.106 L92.772,38.670 L92.735,38.670 L91.782,36.115 L90.782,39.869 L89.006,39.869 L90.755,33.316 L92.559,33.316 ZM93.135,11.206 C93.135,10.338 94.057,9.630 95.552,9.630 C97.809,9.630 99.749,10.595 101.434,12.075 L103.269,10.017 L101.590,16.664 C100.582,15.357 98.913,14.473 96.855,13.683 C93.803,12.461 93.135,12.139 93.135,11.206 Z" class="cls-1"/>
</svg>
