<?xml version="1.0" encoding="UTF-8"?>
<svg width="1920px" height="1080px" viewBox="0 0 1920 1080" version="1.1" xmlns="http://www.w3.org/2000/svg" xmlns:xlink="http://www.w3.org/1999/xlink">
    <!-- Generator: Sketch 53.2 (72643) - https://sketchapp.com -->
    <title>Artboard</title>
    <desc>Created with Sketch.</desc>
    <defs>
        <path d="M262.988467,2.48942593 L307.633321,2.48942593 L1470.57206,3.51038889 C1473.62357,44.3091296 1457.57,88.7243333 1457.57,88.7243333 C1351.43067,330.758852 989.893591,154.970907 797.516063,113.035185 C605.138535,71.099463 571.969996,211.322759 568.653142,345.556185 C565.336288,479.792926 332.625816,626.218241 103.779479,459.93387 C-125.063542,293.652815 69.506427,-26.2367593 262.988467,2.48942593 Z" id="path-1"></path>
        <linearGradient x1="-8.86492694e-06%" y1="50.0001718%" x2="99.9999483%" y2="50.0001718%" id="linearGradient-3">
            <stop stop-color="#898A8C" offset="0%"></stop>
            <stop stop-color="#555555" offset="100%"></stop>
        </linearGradient>
        <path d="M0,147.573161 L0,1050 L2488,1050 L2488,263.873918 C2488,263.873918 2488,179.252631 2315.68112,147.573161 L2315.68112,147.573161 C2143.36224,115.893691 1504.63293,383.337312 1398.26595,429.203849 L1398.26595,429.203849 C1291.90561,475.067066 1151.35351,398.271066 827.933419,147.573161 L827.933419,147.573161 C689.57408,40.3255773 554.870443,0.575242902 430.264768,0.578561514 L430.264768,0.578561514 C263.595307,0.581880126 115.005312,71.7096909 0,147.573161" id="path-4"></path>
        <path d="M603.366132,1660.24545 C-131.947451,1612.0301 -173.085824,779.5301 365.035033,587.159582 C903.152571,394.789064 411.987736,0.0978286853 411.987736,0.0978286853 L1203.02198,0.0978286853 L1206.34066,1660.24545 L603.366132,1660.24545 Z" id="path-6"></path>
        <radialGradient cx="50.0000031%" cy="49.9999968%" fx="50.0000031%" fy="49.9999968%" r="88.2653901%" gradientTransform="translate(0.500000,0.500000),scale(1.000000,0.726108),translate(-0.500000,-0.500000)" id="radialGradient-8">
            <stop stop-color="#898C8E" offset="0%"></stop>
            <stop stop-color="#898A8C" offset="100%"></stop>
        </radialGradient>
        <path d="M0,147.648668 L0,894.223384 L2491,894.223384 L2491,263.901642 C2491,263.901642 2491,179.316026 2318.4742,147.648668 L2318.4742,147.648668 C2145.94509,115.98131 1506.44801,383.322679 1399.95527,429.168362 L1399.95527,429.168362 C1293.46253,475.017362 1152.74591,398.250723 828.929174,147.648668 L828.929174,147.648668 C690.401712,40.4420886 555.53612,0.70695203 430.780471,0.70695203 L430.780471,0.70695203 C263.913324,0.713586716 115.143241,71.8108856 0,147.648668" id="path-9"></path>
        <path d="M104.447793,465.883122 C333.297447,634.297561 566.004602,485.994537 569.321456,350.037659 L569.321456,350.037659 C572.641627,214.08078 605.810166,72.0569756 798.187694,114.532098 L798.187694,114.532098 C990.565222,157.00722 1352.1023,335.047805 1458.23831,89.9094634 L1458.23831,89.9094634 C1458.23831,89.9094634 1474.29188,44.9233171 1471.24369,3.60253659 L1471.24369,3.60253659 L308.301636,2.57092683 L263.660099,2.57092683 C255.440935,1.33365854 247.20187,0.736585366 239.012557,0.736585366 L239.012557,0.736585366 C54.3931506,0.72 -114.673528,304.62361 104.447793,465.883122" id="path-11"></path>
        <linearGradient x1="50%" y1="-2.48949813e-15%" x2="50%" y2="100%" id="linearGradient-13">
            <stop stop-color="#FFFFFF" stop-opacity="0.09765625" offset="0%"></stop>
            <stop stop-color="#8A8A8A" offset="100%"></stop>
        </linearGradient>
        <path d="M603.037152,1660.22389 C-132.321659,1612.00855 -173.459245,779.508546 364.691393,587.138028 C902.84535,394.76751 411.650303,0.0762749004 411.650303,0.0762749004 L1067.68111,0.0762749004 L1071,1660.22389 L603.037152,1660.22389 Z" id="path-14"></path>
        <linearGradient x1="97.8530781%" y1="97.8531762%" x2="97.8530781%" y2="2.1470253%" id="linearGradient-16">
            <stop stop-color="#898C8E" offset="0%"></stop>
            <stop stop-color="#C3C3C3" offset="100%"></stop>
        </linearGradient>
    </defs>
    <g id="Artboard" stroke="none" stroke-width="1" fill="none" fill-rule="evenodd" opacity="0.200000003">
        <g id="Group-108" transform="translate(-507.000000, -146.000000)">
            <polygon id="Fill-1" points="0 1664 2493 1664 2493 5 0 5"></polygon>
            <g id="Group-5" transform="translate(248.000000, 0.000000)">
                <mask id="mask-2" fill="white">
                    <use xlink:href="#path-1"></use>
                </mask>
                <g id="Clip-4"></g>
            </g>
            <path d="M658.56289,72.881904 C488.718039,47.8964833 317.918169,326.129585 518.804042,470.757287 C719.692828,615.387872 923.973677,488.030268 926.88532,371.274026 C929.796962,254.520666 958.913389,132.557445 1127.78866,169.032238 C1296.66394,205.507032 1614.03299,358.403622 1707.20555,147.88718 C1707.20555,147.88718 1721.2979,109.255787 1718.61919,73.7699158 L697.7536,72.881904 L658.56289,72.881904 Z" id="Fill-3" fill="url(#linearGradient-3)" opacity="0.305245536"></path>
            <g id="Group-8" transform="translate(0.000000, 629.000000)">
                <mask id="mask-5" fill="white">
                    <use xlink:href="#path-4"></use>
                </mask>
                <g id="Clip-7"></g>
                <path d="M0,147.573161 L0,1050 L2488,1050 L2488,263.873918 C2488,263.873918 2488,179.252631 2315.68112,147.573161 L2315.68112,147.573161 C2143.36224,115.893691 1504.63293,383.337312 1398.26595,429.203849 L1398.26595,429.203849 C1291.90561,475.067066 1151.35351,398.271066 827.933419,147.573161 L827.933419,147.573161 C689.57408,40.3255773 554.870443,0.575242902 430.264768,0.578561514 L430.264768,0.578561514 C263.595307,0.581880126 115.005312,71.7096909 0,147.573161" id="Fill-6" mask="url(#mask-5)"></path>
            </g>
            <g id="Group-11" transform="translate(1284.000000, 6.000000)">
                <mask id="mask-7" fill="white">
                    <use xlink:href="#path-6"></use>
                </mask>
                <g id="Clip-10"></g>
                <path d="M603.366132,1660.24545 C-131.947451,1612.0301 -173.085824,779.5301 365.035033,587.159582 C903.152571,394.789064 411.987736,0.0978286853 411.987736,0.0978286853 L1203.02198,0.0978286853 L1206.34066,1660.24545 L603.366132,1660.24545 Z" id="Fill-9" fill="url(#radialGradient-8)" opacity="0.200000003" mask="url(#mask-7)"></path>
            </g>
            <g id="Group-14" transform="translate(0.000000, 772.000000)">
                <mask id="mask-10" fill="white">
                    <use xlink:href="#path-9"></use>
                </mask>
                <g id="Clip-13"></g>
                <path d="M0,147.648668 L0,894.223384 L2491,894.223384 L2491,263.901642 C2491,263.901642 2491,179.316026 2318.4742,147.648668 L2318.4742,147.648668 C2145.94509,115.98131 1506.44801,383.322679 1399.95527,429.168362 L1399.95527,429.168362 C1293.46253,475.017362 1152.74591,398.250723 828.929174,147.648668 L828.929174,147.648668 C690.401712,40.4420886 555.53612,0.70695203 430.780471,0.70695203 L430.780471,0.70695203 C263.913324,0.713586716 115.143241,71.8108856 0,147.648668" id="Fill-12" mask="url(#mask-10)"></path>
            </g>
            <g id="Group-20" transform="translate(95.000000, 2.000000)">
                <mask id="mask-12" fill="white">
                    <use xlink:href="#path-11"></use>
                </mask>
                <g id="Clip-19"></g>
            </g>
            <path d="M385.082316,477.671376 C585.974013,624.154649 790.251951,495.163854 793.163593,376.911472 L793.163593,376.911472 C796.078148,258.659091 825.194574,135.129826 994.069849,172.073778 L994.069849,172.073778 C1162.94512,209.01773 1480.31417,363.873619 1573.48383,150.657538 L1573.48383,150.657538 C1573.48383,150.657538 1587.57618,111.529551 1584.90038,75.589621 L1584.90038,75.589621 L564.031874,74.692349 L524.844075,74.692349 C517.629025,73.6161995 510.396505,73.096878 503.207659,73.096878 L503.207659,73.096878 C341.142717,73.0824524 192.730467,337.411305 385.082316,477.671376" id="Fill-18" fill="url(#linearGradient-13)"></path>
            <g id="Group-23" transform="translate(1421.000000, 5.000000)">
                <mask id="mask-15" fill="white">
                    <use xlink:href="#path-14"></use>
                </mask>
                <g id="Clip-22"></g>
                <path d="M603.037152,1660.22389 C-132.321659,1612.00855 -173.459245,779.508546 364.691393,587.138028 C902.84535,394.76751 411.650303,0.0762749004 411.650303,0.0762749004 L1067.68111,0.0762749004 L1071,1660.22389 L603.037152,1660.22389 Z" id="Fill-21" fill="url(#linearGradient-16)" mask="url(#mask-15)"></path>
            </g>
            <g id="Group-107" transform="translate(77.000000, 34.000000)" fill="#FFFFFF">
                <polygon id="Fill-36" points="1599.6519 306.064088 1102.09554 85.95321 1104.77588 79.8807739 1602.33554 299.99497"></polygon>
                <polygon id="Fill-38" points="1717.89994 390.837288 1428.72938 262.914618 1430.06954 259.8784 1719.24011 387.80107"></polygon>
                <polygon id="Fill-40" points="1410.17074 161.63667 1231.7131 82.6916813 1233.05327 79.6554633 1411.5109 158.600451"></polygon>
                <polygon id="Fill-43" points="1067.10495 293.136104 569.548599 73.0252257 572.22893 66.9527896 1069.7886 287.066986"></polygon>
                <polygon id="Fill-49" points="443.677534 1265.12873 181.880844 1149.31775 183.22101 1146.28485 445.017699 1262.09583"></polygon>
                <polygon id="Fill-51" points="1820.26802 221.114357 1594.37715 121.184622 1595.72063 118.148404 1821.60819 218.078139"></polygon>
                <polygon id="Fill-53" points="2305.17142 590.484388 1963.13066 439.167907 1965.81099 433.098789 2307.85507 584.41527"></polygon>
                <polygon id="Fill-55" points="2160.24944 864.855636 1891.05198 745.762885 1893.73231 739.693767 2162.93308 858.783199"></polygon>
                <polygon id="Fill-57" points="2313.62342 984.598767 1963.5682 829.735054 1964.90837 826.702154 2314.96358 981.565867"></polygon>
                <polygon id="Fill-63" points="1344.93055 1413.50157 847.374199 1193.39069 850.05453 1187.32157 1347.6142 1407.43245"></polygon>
                <polygon id="Fill-65" points="1187.58517 1374.82612 690.028816 1154.71193 691.368981 1151.67903 1188.92533 1371.79322"></polygon>
                <path d="M2238.44776,695.275722 C2238.07623,695.275722 2237.69475,695.232584 2237.31658,695.142991 C2234.64289,694.522474 2232.97763,691.847948 2233.59795,689.170103 L2242.11663,652.51648 C2242.74027,649.841954 2245.41065,648.172863 2248.09098,648.796698 C2250.768,649.417215 2252.43325,652.091741 2251.80961,654.769586 L2243.29093,691.423209 C2242.75686,693.722771 2240.71012,695.275722 2238.44776,695.275722" id="Fill-83"></path>
                <path d="M2260.93965,681.296177 C2260.56812,681.296177 2260.18664,681.25304 2259.80847,681.163447 L2223.09325,672.625535 C2220.41623,672.005018 2218.75098,669.330492 2219.37462,666.649329 C2219.99494,663.974802 2222.65869,662.299075 2225.34897,662.929547 L2262.0642,671.470777 C2264.74121,672.091293 2266.40315,674.76582 2265.78283,677.443665 C2265.24875,679.743227 2263.20533,681.296177 2260.93965,681.296177" id="Fill-85"></path>
                <path d="M2013.90535,1132.32654 C2012.07423,1132.32654 2010.3161,1131.31447 2009.44698,1129.56574 L1992.69823,1095.86869 C1991.47416,1093.40654 1992.47929,1090.41677 1994.93736,1089.19565 C1997.40539,1087.96789 2000.39091,1088.97664 2001.60834,1091.43548 L2018.35709,1125.13253 C2019.58115,1127.59468 2018.57603,1130.58445 2016.11795,1131.80557 C2015.40474,1132.16062 2014.65173,1132.32654 2013.90535,1132.32654" id="Fill-87"></path>
                <path d="M1988.6084,1124.01128 C1986.77728,1124.01128 1985.01914,1122.99921 1984.15003,1121.25048 C1982.92597,1118.78832 1983.93109,1115.79856 1986.38917,1114.57744 L2020.1421,1097.79362 C2022.60681,1096.56586 2025.58901,1097.56798 2026.81307,1100.03014 C2028.03713,1102.49561 2027.03201,1105.48206 2024.57393,1106.70318 L1990.821,1123.49031 C1990.10779,1123.84537 1989.35478,1124.01128 1988.6084,1124.01128" id="Fill-89"></path>
                <path d="M739.721755,948.068584 L761.054934,960.389325 L761.054934,935.747843 L739.721755,948.068584 Z M766.030797,973.9876 C765.171631,973.9876 764.312466,973.761957 763.542866,973.317309 L727.2821,952.379018 C725.7429,951.489722 724.794169,949.847177 724.794169,948.068584 C724.794169,946.289991 725.7429,944.647447 727.2821,943.75815 L763.542866,922.816541 C765.085383,921.927244 766.97621,921.927244 768.518728,922.816541 C770.057928,923.702519 771.006659,925.345063 771.006659,927.123657 L771.006659,969.010193 C771.006659,970.788786 770.057928,972.431331 768.518728,973.317309 C767.74581,973.761957 766.886645,973.9876 766.030797,973.9876 L766.030797,973.9876 Z" id="Fill-93"></path>
                <path d="M1547.52211,494.439353 L1541.14637,518.241312 L1564.94095,511.863595 L1547.52211,494.439353 Z M1534.1105,530.256772 C1532.80683,530.256772 1531.53964,529.745758 1530.59091,528.796732 C1529.33699,527.542426 1528.84273,525.707422 1529.30382,523.991876 L1540.13793,483.535514 C1540.59903,481.81665 1541.93919,480.476068 1543.65753,480.014829 C1545.37917,479.556907 1547.20697,480.044693 1548.46421,481.305636 L1578.07059,510.921206 C1579.32782,512.178831 1579.81877,514.010516 1579.36099,515.729381 C1578.8999,517.444927 1577.55973,518.785508 1575.8414,519.246748 L1535.40091,530.08754 C1534.97299,530.200361 1534.54175,530.256772 1534.1105,530.256772 L1534.1105,530.256772 Z" id="Fill-97"></path>
                <path d="M1638.26989,905.650461 C1638.26989,912.36996 1632.82298,917.818561 1626.10557,917.818561 C1619.39147,917.818561 1613.94456,912.36996 1613.94456,905.650461 C1613.94456,898.930962 1619.39147,893.482361 1626.10557,893.482361 C1632.82298,893.482361 1638.26989,898.930962 1638.26989,905.650461" id="Fill-101"></path>
                <path d="M1127.24289,1180.39933 C1127.24289,1187.11883 1121.79598,1192.56743 1115.08188,1192.56743 C1108.36447,1192.56743 1102.91756,1187.11883 1102.91756,1180.39933 C1102.91756,1173.68315 1108.36447,1168.23455 1115.08188,1168.23455 C1121.79598,1168.23455 1127.24289,1173.68315 1127.24289,1180.39933" id="Fill-105"></path>
            </g>
        </g>
    </g>
</svg>