<?xml version="1.0" encoding="UTF-8"?>
<svg width="13px" height="13px" viewBox="0 0 13 13" version="1.1" xmlns="http://www.w3.org/2000/svg" xmlns:xlink="http://www.w3.org/1999/xlink">
    <!-- Generator: Sketch 52.6 (67491) - http://www.bohemiancoding.com/sketch -->
    <title>clapperboard</title>
    <desc>Created with Sketch.</desc>
    <g id="Page-1" stroke="none" stroke-width="1" fill="none" fill-rule="evenodd">
        <g id="03_Details" transform="translate(-386.000000, -601.000000)" fill="#FFFFFF">
            <g id="Group-3" transform="translate(386.000000, 598.000000)">
                <g id="clapperboard" transform="translate(0.000000, 3.000000)">
                    <polygon id="Path" points="11.4052763 4.39532203 12.9766513 6.01463729 12.9766513 4.39532203"></polygon>
                    <path d="M8.98616447,4.39532203 L6.93652632,4.39532203 L9.53703947,7.07517288 L7.11792763,7.07517288 L4.51741447,4.39532203 L2.33948684,4.39532203 L4.94,7.07517288 L2.52088816,7.07517288 L0.274924342,4.76068814 C0.248240132,4.82850847 0.233230263,4.90249831 0.233230263,4.98018983 L0.233230263,12.2572814 C0.233230263,12.6629254 0.552328947,12.9917593 0.945963816,12.9917593 L12.2639178,12.9917593 C12.6575526,12.9917593 12.9766513,12.6629254 12.9766513,12.2572814 L12.9766513,7.07517288 L11.5866776,7.07517288 L8.98616447,4.39532203 Z" id="Path"></path>
                    <polygon id="Path" points="10.8327632 0.0282474576 8.67728618 0.350074576 6.47648026 3.3864339 8.632 3.06465085"></polygon>
                    <polygon id="Path" points="6.28319079 0.707508475 4.25472039 1.01034237 2.05391447 4.04674576 4.08242763 3.7438678"></polygon>
                    <path d="M12.8277928,1.8472339 L12.6363421,0.485450847 L11.0260099,2.70721695 L12.347477,2.50992542 C12.6576809,2.46361017 12.8727368,2.16694576 12.8277928,1.8472339 Z" id="Path"></path>
                    <path d="M1.860625,1.36777627 L0.486217105,1.57295593 C0.176055921,1.61927119 -0.039,1.91597966 0.00594407895,2.23564746 L0.180674342,3.47853559 L0.205049342,3.65198644 L0.773713816,2.86740339 L1.860625,1.36777627 Z" id="Path"></path>
                </g>
            </g>
        </g>
    </g>
</svg>