<?xml version="1.0" encoding="utf-8"?>
<!-- Generator: Adobe Illustrator 19.2.0, SVG Export Plug-In . SVG Version: 6.00 Build 0)  -->
<svg version="1.1" id="Layer_1" xmlns="http://www.w3.org/2000/svg" xmlns:xlink="http://www.w3.org/1999/xlink" x="0px" y="0px"
	 viewBox="0 0 128 128" style="enable-background:new 0 0 128 128;" xml:space="preserve">
<style type="text/css">
	.st0{fill:#444CC5;}
	.st1{fill:#FFFFFF;}
</style>
<path class="st0" d="M64,0c35.3,0,64,28.7,64,64s-28.7,64-64,64S0,99.3,0,64S28.7,0,64,0z"/>
<path class="st1" d="M64.5,30.3c-20.5,19-31.2-0.8-31.2,23.1c0,33.3,24,43.3,31.2,44.6c7.2-1.3,31.2-11.3,31.2-44.6
	C95.7,29.5,85,49.3,64.5,30.3z M81.7,60.9l-17.9,18c-1,1-2.2,1.4-3.4,1.4c-1.2,0-2.5-0.5-3.4-1.4l-9.6-9.6c-1.9-1.9-1.9-5,0-6.9
	c1.9-1.9,5-1.9,6.9,0l6.1,6.1L74.8,54c1.9-1.9,5-1.9,6.9,0C83.6,55.9,83.6,59,81.7,60.9z"/>
</svg>
