<?xml version="1.0" encoding="utf-8"?>
<!-- Generator: Adobe Illustrator 19.2.0, SVG Export Plug-In . SVG Version: 6.00 Build 0)  -->
<svg version="1.1" id="Layer_1" xmlns="http://www.w3.org/2000/svg" xmlns:xlink="http://www.w3.org/1999/xlink" x="0px" y="0px"
	 viewBox="0 0 70 70" style="enable-background:new 0 0 70 70;" xml:space="preserve">
<style type="text/css">
	.st0{fill:#FFFFFF;}
	.st1{fill:#22C393;}
</style>
<g>
	<path class="st0" d="M35,0c19.3,0,35,15.7,35,35S54.3,70,35,70S0,54.3,0,35S15.7,0,35,0z"/>
	<path class="st1" d="M24.9,55.8l-10.2,5.4c-0.6,0.3-1.1,0.7-1.6,1.1c6,4.8,13.7,7.8,22.1,7.8c8.3,0,16-2.9,21.9-7.6
		c-0.5-0.4-1.1-0.8-1.8-1.2L44.4,56c-1.4-0.7-2.3-2.1-2.3-3.6v-4.1c0.3-0.3,0.7-0.8,1-1.3c1.5-2,2.6-4.3,3.4-6.6
		c1.4-0.4,2.4-1.7,2.4-3.1v-4.4c0-1-0.4-1.8-1.1-2.4v-6.4c0,0,1.4-9.9-12.6-9.9s-12.6,9.9-12.6,9.9v6.4c-0.7,0.6-1.1,1.5-1.1,2.4
		v4.4c0,1.2,0.6,2.2,1.6,2.8c1.1,4.8,4.1,8.3,4.1,8.3v4C27,53.7,26.2,55,24.9,55.8z"/>
</g>
</svg>
