<svg xmlns="http://www.w3.org/2000/svg" xmlns:xlink="http://www.w3.org/1999/xlink" preserveAspectRatio="xMidYMid" width="549" height="174.125" viewBox="0 0 549 174.125">
  <defs>
    <style>
      .cls-1 {
        fill: #fff;
        fill-rule: evenodd;
      }
    </style>
  </defs>
  <path d="M541.876,33.826 L542.000,34.000 L540.757,34.660 C539.574,35.474 538.294,36.155 536.939,36.687 L288.804,168.421 C281.216,176.002 268.887,176.002 261.299,168.421 L13.477,37.182 C11.121,36.467 8.961,35.307 7.090,33.799 L5.690,33.058 C5.690,33.058 5.905,32.769 5.909,32.763 C2.271,29.302 0.000,24.418 0.000,19.000 C0.000,8.507 8.507,0.000 19.000,0.000 C23.869,0.000 28.309,1.834 31.671,4.845 C38.796,8.428 275.052,127.203 275.052,127.203 L519.029,3.492 C522.128,1.296 525.912,0.000 530.000,0.000 C540.493,0.000 549.000,8.507 549.000,19.000 C549.000,24.998 546.218,30.344 541.876,33.826 Z" class="cls-1"/>
</svg>
