<?xml version="1.0" encoding="utf-8"?>
<!-- Generator: Adobe Illustrator 19.2.0, SVG Export Plug-In . SVG Version: 6.00 Build 0)  -->
<svg version="1.1" id="Layer_1" xmlns="http://www.w3.org/2000/svg" xmlns:xlink="http://www.w3.org/1999/xlink" x="0px" y="0px"
	 viewBox="0 0 48 48" style="enable-background:new 0 0 48 48;" xml:space="preserve">
<style type="text/css">
	.st0{opacity:0.3;fill-rule:evenodd;clip-rule:evenodd;}
	.st1{fill:#FFFFFF;}
</style>
<g>
	<path class="st0" d="M24,3.5c11.3,0,20.5,9.2,20.5,20.5c0,11.3-9.2,20.5-20.5,20.5C12.7,44.5,3.5,35.3,3.5,24
		C3.5,12.7,12.7,3.5,24,3.5z"/>
	<path class="st1" d="M24,9.5c-1.6,0-2.9,1.3-2.9,2.9c0,1.6,1.3,2.9,2.9,2.9c1.6,0,2.9-1.3,2.9-2.9C26.9,10.8,25.6,9.5,24,9.5z"/>
	<path class="st1" d="M24,19.7c-1.2,0-2.2,1-2.2,2.2v13.1c0,1.2,1,2.2,2.2,2.2s2.2-1,2.2-2.2V21.8C26.2,20.6,25.2,19.7,24,19.7z"/>
	<path class="st1" d="M24,0C10.8,0,0,10.8,0,24s10.8,24,24,24s24-10.8,24-24S37.2,0,24,0z M24,43.6C13.2,43.6,4.4,34.8,4.4,24
		C4.4,13.2,13.2,4.4,24,4.4S43.6,13.2,43.6,24C43.6,34.8,34.8,43.6,24,43.6z"/>
</g>
</svg>
